<?xml version="1.0" standalone="no"?>
<!DOCTYPE svg PUBLIC "-//W3C//DTD SVG 20010904//EN" "http://www.w3.org/TR/2001/REC-SVG-20010904/DTD/svg10.dtd">
<!-- Created using Krita: https://krita.org -->
<svg xmlns="http://www.w3.org/2000/svg" 
    xmlns:xlink="http://www.w3.org/1999/xlink"
    xmlns:krita="http://krita.org/namespaces/svg/krita"
    xmlns:sodipodi="http://sodipodi.sourceforge.net/DTD/sodipodi-0.dtd"
    width="576pt"
    height="77.76pt"
    viewBox="0 0 576 77.76">
<defs/>
<path id="shape0" transform="matrix(0.720436379600373 0 0 0.71999999025059 -0.287873917284865 19.822431288264)" fill="#3f2007" stroke="#000000" stroke-opacity="0" stroke-width="0" stroke-linecap="square" stroke-linejoin="bevel" d="M447 0C448.98 0 450.96 0 453 0C454.98 0.752394 456.96 1.50479 459 2.27998C461.64 2.02918 464.28 1.77838 467 1.51999C467.33 1.77078 467.66 2.02158 468 2.27998C485.82 2.27998 503.64 2.27998 522 2.27998C522.66 2.53078 523.32 2.78158 524 3.03997C526.97 3.03997 529.94 3.03997 533 3.03997C536.96 3.79237 536.96 3.79237 541 4.55996C547.6 4.55996 554.2 4.55996 561 4.55996C561.99 5.06156 562.98 5.56315 564 6.07995C564.887 6.09562 565.774 6.1113 566.688 6.12745C567.781 6.11177 568.874 6.0961 570 6.07995C570.893 5.95357 571.787 5.82719 572.707 5.69698C573.464 5.57256 574.22 5.44814 575 5.31995C576.139 5.48454 576.139 5.48454 577.301 5.65245C578.792 5.86406 578.792 5.86406 580.313 6.07995C581.299 6.22102 582.285 6.3621 583.301 6.50744C584.637 6.67203 584.637 6.67203 586 6.83994C586.99 6.83994 587.98 6.83994 589 6.83994C589.891 6.8948 590.781 6.94967 591.699 7.00619C592.685 7.07673 593.671 7.14726 594.688 7.21994C595.681 7.29048 596.675 7.36101 597.699 7.43369C598.838 7.51598 598.838 7.51598 600 7.59994C602.97 6.84754 602.97 6.84754 606 6.07995C604.02 5.57835 602.04 5.07676 600 4.55996C600 4.30916 600 4.05837 600 3.79997C602.31 3.79997 604.62 3.79997 607 3.79997C608.32 4.55236 609.64 5.30476 611 6.07995C613.97 5.32755 613.97 5.32755 617 4.55996C618.98 4.81076 620.96 5.06156 623 5.31995C621.68 5.82155 620.36 6.32315 619 6.83994C619.66 7.09074 620.32 7.34154 621 7.59994C622.133 7.61188 622.133 7.61188 623.288 7.62406C624.343 7.63373 625.398 7.64341 626.484 7.65337C627.648 7.66023 628.812 7.66709 630.012 7.67415C631.862 7.68444 631.862 7.68444 633.75 7.69493C634.937 7.70767 636.124 7.72041 637.348 7.73353C638.527 7.73843 639.707 7.74333 640.922 7.74837C642.096 7.74078 643.269 7.73319 644.479 7.72536C645.641 7.68397 646.803 7.64258 648 7.59994C649.178 7.48605 650.355 7.37216 651.568 7.25482C652.665 7.11595 653.761 6.97708 654.891 6.834C655.876 6.69379 656.861 6.55357 657.876 6.40911C658.927 6.24617 658.927 6.24617 660 6.07995C657.69 5.32755 655.38 4.57516 653 3.79997C649.04 3.42377 649.04 3.42377 645 3.03997C645.66 2.53838 646.32 2.03678 647 1.51999C650.3 1.51999 653.6 1.51999 657 1.51999C657.743 1.86483 658.485 2.20968 659.25 2.56498C660.158 2.97252 661.065 3.38007 662 3.79997C663.32 4.30156 664.64 4.80316 666 5.31995C667.32 4.56756 668.64 3.81517 670 3.03997C670.99 3.29077 671.98 3.54157 673 3.79997C675.97 3.79997 678.94 3.79997 682 3.79997C682 4.05077 682 4.30156 682 4.55996C683.65 4.55996 685.3 4.55996 687 4.55996C684.03 4.05837 681.06 3.55677 678 3.03997C678.33 2.53838 678.66 2.03678 679 1.51999C681.31 1.51999 683.62 1.51999 686 1.51999C688.475 2.64858 688.475 2.64858 691 3.79997C691 4.30156 691 4.80316 691 5.31995C691.66 5.31995 692.32 5.31995 693 5.31995C693.33 4.56756 693.66 3.81517 694 3.03997C695.65 2.78918 697.3 2.53838 699 2.27998C700.98 2.53078 702.96 2.78158 705 3.03997C705.33 3.79237 705.66 4.54476 706 5.31995C708.97 5.31995 711.94 5.31995 715 5.31995C715 5.06916 715 4.81836 715 4.55996C718.63 4.55996 722.26 4.55996 726 4.55996C726.99 5.06156 727.98 5.56315 729 6.07995C733.455 5.70375 733.455 5.70375 738 5.31995C738.33 5.57075 738.66 5.82155 739 6.07995C741.31 6.07995 743.62 6.07995 746 6.07995C746 6.58154 746 7.08314 746 7.59994C748.64 7.59994 751.28 7.59994 754 7.59994C754 7.34914 754 7.09834 754 6.83994C755.98 6.83994 757.96 6.83994 760 6.83994C761.32 7.09074 762.64 7.34154 764 7.59994C775.88 7.85073 787.76 8.10153 800 8.35993C800 32.1857 800 56.0115 800 80.5593C536 80.5593 272 80.5593 0 80.5593C0 56.7335 0 32.9077 0 8.35993C1.98 7.85833 3.96 7.35674 6 6.83994C6.77086 6.62637 7.54172 6.4128 8.33594 6.19276C9.00883 5.99878 9.68172 5.80481 10.375 5.60495C11.5713 5.26011 12.7675 4.91526 14 4.55996C11.03 3.80757 8.06 3.05517 5 2.27998C5 2.02918 5 1.77838 5 1.51999C7.97 1.51999 10.94 1.51999 14 1.51999C15.65 2.27238 17.3 3.02477 19 3.79997C19 4.30156 19 4.80316 19 5.31995C20.98 4.31676 22.96 3.31357 25 2.27998C28.3 2.53078 31.6 2.78158 35 3.03997C35.495 3.79237 35.495 3.79237 36 4.55996C33.36 4.55996 30.72 4.55996 28 4.55996C28 5.06156 28 5.56315 28 6.07995C30.97 6.45615 30.97 6.45615 34 6.83994C34 7.09074 34 7.34154 34 7.59994C34.9526 7.60875 35.9052 7.61757 36.8867 7.62665C38.141 7.63351 39.3952 7.64037 40.6875 7.64744C42.5496 7.66066 42.5496 7.66066 44.4492 7.67415C46.2069 7.63742 46.2069 7.63742 48 7.59994C48.9758 7.47356 49.9516 7.34718 50.957 7.21697C51.6312 7.09255 52.3054 6.96813 53 6.83994C50.525 6.08755 50.525 6.08755 48 5.31995C45.03 5.06916 42.06 4.81836 39 4.55996C39.66 4.05837 40.32 3.55677 41 3.03997C44.96 3.03997 48.92 3.03997 53 3.03997C55.31 4.29396 57.62 5.54795 60 6.83994C61.32 6.08755 62.64 5.33515 64 4.55996C64.99 4.93616 64.99 4.93616 66 5.31995C66.33 5.31995 66.66 5.31995 67 5.31995C67.6819 5.31995 68.3638 5.31995 69.0664 5.31995C69.8901 5.31995 70.7138 5.31995 71.5625 5.31995C73.0269 5.31995 74.4912 5.31995 76 5.31995C76 5.57075 76 5.82155 76 6.07995C74.35 6.33075 72.7 6.58154 71 6.83994C74.63 6.58914 78.26 6.33835 82 6.07995C79.36 5.32755 76.72 4.57516 74 3.79997C74 3.54917 74 3.29837 74 3.03997C76.64 3.03997 79.28 3.03997 82 3.03997C83.65 4.04317 85.3 5.04636 87 6.07995C87.99 5.32755 88.98 4.57516 90 3.79997C91.833 3.99835 91.833 3.99835 93.7031 4.20075C94.5339 4.27018 95.3647 4.33962 96.2207 4.41115C97.5965 4.48481 97.5965 4.48481 99 4.55996C99.9223 4.55714 100.845 4.55433 101.795 4.55143C103.281 4.5101 103.281 4.5101 104.797 4.46793C105.894 4.43107 106.991 4.39421 108.122 4.35623C109.319 4.31374 110.516 4.27125 111.75 4.22746C113.044 4.18889 114.338 4.15031 115.671 4.11057C117.092 4.07371 118.513 4.03685 119.977 3.99887C120.733 3.98049 121.489 3.9621 122.267 3.94316C123.065 3.92567 123.863 3.90817 124.685 3.89014C125.951 3.86606 125.951 3.86606 127.243 3.84148C128.153 3.82778 129.063 3.81408 130 3.79997C131.008 3.79019 132.015 3.7804 133.054 3.77033C134.122 3.76309 135.191 3.75585 136.292 3.74839C137.951 3.74009 137.951 3.74009 139.644 3.73163C140.78 3.72773 141.916 3.72383 143.086 3.71981C144.812 3.71603 144.812 3.71603 146.573 3.71217C147.734 3.71071 148.895 3.70925 150.091 3.70775C151.84 3.70701 151.84 3.70701 153.624 3.70624C154.779 3.70582 155.935 3.7054 157.125 3.70497C158.249 3.70314 159.373 3.70131 160.531 3.69943C161.635 3.69789 162.74 3.69635 163.878 3.69476C164.969 3.69472 166.06 3.69467 167.185 3.69462C168.799 3.69681 168.799 3.69681 170.445 3.69903C172.038 3.70332 172.038 3.70332 173.663 3.70771C175.231 3.71636 175.231 3.71636 176.83 3.72519C178.369 3.73912 178.369 3.73912 179.939 3.75333C181.454 3.77641 181.454 3.77641 183 3.79997C184.502 3.83894 184.502 3.83894 186.033 3.87871C187.011 3.91022 187.989 3.94173 188.996 3.97419C190.416 4.02477 190.416 4.02477 191.865 4.07636C192.767 4.11153 193.668 4.1467 194.598 4.18293C195.43 4.21835 196.262 4.25376 197.12 4.29025C198.3 4.34082 198.3 4.34082 199.504 4.39241C200.254 4.42338 201.003 4.45434 201.775 4.48624C202.51 4.51057 203.244 4.5349 204 4.55996C204.763 4.57146 205.526 4.58296 206.312 4.59481C207.412 4.60162 207.412 4.60162 208.534 4.60857C209.781 4.60821 211.028 4.60784 212.313 4.60746C213.422 4.6006 214.532 4.59375 215.676 4.58668C216.443 4.57786 217.21 4.56905 218 4.55996C216.35 4.05837 214.7 3.55677 213 3.03997C213 2.78918 213 2.53838 213 2.27998C215.31 2.53078 217.62 2.78158 220 3.03997C220.99 3.41617 220.99 3.41617 222 3.79997C222 4.30156 222 4.80316 222 5.31995C224.475 4.56756 224.475 4.56756 227 3.79997C227.99 4.17616 227.99 4.17616 229 4.55996C229 5.06156 229 5.56315 229 6.07995C230.65 5.82915 232.3 5.57835 234 5.31995C234.99 5.69615 234.99 5.69615 236 6.07995C237.98 6.07995 239.96 6.07995 242 6.07995C242 5.32755 242 4.57516 242 3.79997C243.65 4.30156 245.3 4.80316 247 5.31995C247.33 5.06916 247.66 4.81836 248 4.55996C249.65 4.55996 251.3 4.55996 253 4.55996C253 5.31235 253 6.06475 253 6.83994C259.27 7.09074 265.54 7.34154 272 7.59994C271.01 7.09834 270.02 6.59674 269 6.07995C270.98 6.07995 272.96 6.07995 275 6.07995C276.98 6.83234 276.98 6.83234 279 7.59994C280.65 6.84754 282.3 6.09515 284 5.31995C287.3 5.57075 290.6 5.82155 294 6.07995C294.33 6.58154 294.66 7.08314 295 7.59994C296.145 7.43535 296.145 7.43535 297.313 7.26744C298.199 7.12636 299.086 6.98529 300 6.83994C301.485 6.46375 301.485 6.46375 303 6.07995C303.99 6.07995 304.98 6.07995 306 6.07995C306.99 6.07995 307.98 6.07995 309 6.07995C309 6.83234 309 7.58474 309 8.35993C310.485 6.85514 310.485 6.85514 312 5.31995C313.98 4.81836 315.96 4.31676 318 3.79997C315.03 3.29837 312.06 2.79678 309 2.27998C310.485 1.52759 310.485 1.52759 312 0.759994C315.96 1.13619 315.96 1.13619 320 1.51999C320.99 2.27238 321.98 3.02477 323 3.79997C324.98 3.29837 326.96 2.79678 329 2.27998C330.98 3.03237 330.98 3.03237 333 3.79997C332.34 4.05077 331.68 4.30156 331 4.55996C331.99 5.06156 332.98 5.56315 334 6.07995C332.515 6.45615 332.515 6.45615 331 6.83994C339.58 6.83994 348.16 6.83994 357 6.83994C354.03 6.08755 351.06 5.33515 348 4.55996C348 4.30916 348 4.05837 348 3.79997C350.97 3.79997 353.94 3.79997 357 3.79997C358.65 4.55236 360.3 5.30476 362 6.07995C363.32 5.82915 364.64 5.57835 366 5.31995C366.908 5.17888 367.815 5.03781 368.75 4.89246C369.864 4.72787 369.864 4.72787 371 4.55996C372.06 4.62903 372.06 4.62903 373.141 4.69949C374.167 4.76317 375.193 4.82685 376.25 4.89246C377.414 4.96104 378.578 5.02961 379.777 5.10027C381.171 5.17277 382.564 5.24526 384 5.31995C385.276 5.37469 385.276 5.37469 386.579 5.43054C387.934 5.48454 387.934 5.48454 389.316 5.53964C390.678 5.5919 390.678 5.5919 392.067 5.64522C392.973 5.67895 393.879 5.71269 394.813 5.74745C396.166 5.79732 396.166 5.79732 397.546 5.8482C398.383 5.87863 399.22 5.90906 400.082 5.94042C402.021 6.00949 402.021 6.00949 404 6.07995C404 5.57835 404 5.07676 404 4.55996C400.04 4.18376 400.04 4.18376 396 3.79997C396 3.54917 396 3.29837 396 3.03997C398.64 3.03997 401.28 3.03997 404 3.03997C404.99 3.54157 405.98 4.04317 407 4.55996C407.919 4.43456 408.838 4.30916 409.785 4.17996C411.176 4.05457 412.567 3.92917 414 3.79997C415.272 3.77499 415.272 3.77499 416.57 3.7495C417.494 3.75048 418.419 3.75146 419.371 3.75247C420.351 3.75884 421.33 3.7652 422.34 3.77176C423.873 3.78573 423.873 3.78573 425.438 3.79997C427.019 3.80805 427.019 3.80805 428.633 3.8163C429.691 3.81874 430.749 3.82119 431.84 3.82372C432.883 3.82372 433.925 3.82372 435 3.82372C435.99 3.81588 436.98 3.80804 438 3.79997C438.883 3.77646 439.766 3.75294 440.676 3.72872C441.486 3.69737 442.295 3.66602 443.129 3.63372C444.571 3.56318 446.014 3.49265 447.5 3.41997C449.403 3.31417 449.403 3.31417 451.344 3.20622C452.22 3.15136 453.097 3.0965 454 3.03997C450.7 2.53838 447.4 2.03678 444 1.51999C445.485 0.767593 445.485 0.767593 447 0Z"/><path id="shape1" transform="matrix(0.720436379600373 0 0 0.71999999025059 -0.670415277946142 1.50514016537758)" fill="#854229" stroke="#000000" stroke-opacity="0" stroke-width="0" stroke-linecap="square" stroke-linejoin="bevel" d="M447.531 0C449.511 0 451.491 0 453.531 0C455.511 0.99 457.491 1.98 459.531 3C462.171 2.67 464.811 2.34 467.531 2C467.861 2.33 468.191 2.66 468.531 3C486.351 3 504.171 3 522.531 3C523.191 3.33 523.851 3.66 524.531 4C527.501 4 530.471 4 533.531 4C537.491 4.99 537.491 4.99 541.531 6C548.131 6 554.731 6 561.531 6C562.521 6.66 563.511 7.32 564.531 8C565.418 8.02063 566.305 8.04125 567.218 8.0625C568.312 8.04187 569.405 8.02125 570.531 8C571.424 7.83371 572.318 7.66742 573.238 7.49609C573.995 7.33238 574.751 7.16867 575.531 7C576.67 7.21656 576.67 7.21656 577.832 7.4375C579.323 7.71594 579.323 7.71594 580.843 8C581.83 8.18562 582.816 8.37125 583.832 8.5625C585.168 8.77906 585.168 8.77906 586.531 9C587.521 9 588.511 9 589.531 9C590.422 9.07219 591.312 9.14438 592.23 9.21875C593.216 9.31156 594.202 9.40437 595.218 9.5C596.212 9.59281 597.206 9.68562 598.23 9.78125C599.369 9.88953 599.369 9.88953 600.531 10C603.501 9.01 603.501 9.01 606.531 8C604.551 7.34 602.571 6.68 600.531 6C600.531 5.67 600.531 5.34 600.531 5C602.841 5 605.151 5 607.531 5C608.851 5.99 610.171 6.98 611.531 8C614.501 7.01 614.501 7.01 617.531 6C619.511 6.33 621.491 6.66 623.531 7C622.211 7.66 620.891 8.32 619.531 9C620.191 9.33 620.851 9.66 621.531 10C622.664 10.0157 622.664 10.0157 623.819 10.0317C624.874 10.0445 625.929 10.0572 627.015 10.0703C628.179 10.0793 629.343 10.0884 630.543 10.0977C632.393 10.1112 632.393 10.1112 634.281 10.125C635.468 10.1418 636.655 10.1585 637.879 10.1758C639.058 10.1822 640.238 10.1887 641.453 10.1953C642.627 10.1853 643.8 10.1753 645.01 10.165C646.172 10.1106 647.334 10.0561 648.531 10C649.709 9.85015 650.886 9.70029 652.099 9.5459C653.196 9.36317 654.292 9.18045 655.422 8.99219C656.407 8.80769 657.392 8.62319 658.407 8.43311C659.458 8.21872 659.458 8.21872 660.531 8C658.221 7.01 655.911 6.02 653.531 5C649.571 4.505 649.571 4.505 645.531 4C646.191 3.34 646.851 2.68 647.531 2C650.831 2 654.131 2 657.531 2C658.273 2.45375 659.016 2.9075 659.781 3.375C660.688 3.91125 661.596 4.4475 662.531 5C663.851 5.66 665.171 6.32 666.531 7C667.851 6.01 669.171 5.02 670.531 4C671.521 4.33 672.511 4.66 673.531 5C676.501 5 679.471 5 682.531 5C682.531 5.33 682.531 5.66 682.531 6C684.181 6 685.831 6 687.531 6C684.561 5.34 681.591 4.68 678.531 4C678.861 3.34 679.191 2.68 679.531 2C681.841 2 684.151 2 686.531 2C689.006 3.485 689.006 3.485 691.531 5C691.531 5.66 691.531 6.32 691.531 7C692.191 7 692.851 7 693.531 7C693.861 6.01 694.191 5.02 694.531 4C696.181 3.67 697.831 3.34 699.531 3C701.511 3.33 703.491 3.66 705.531 4C705.861 4.99 706.191 5.98 706.531 7C709.501 7 712.471 7 715.531 7C715.531 6.67 715.531 6.34 715.531 6C719.161 6 722.791 6 726.531 6C727.521 6.66 728.511 7.32 729.531 8C733.986 7.505 733.986 7.505 738.531 7C738.861 7.33 739.191 7.66 739.531 8C741.841 8 744.151 8 746.531 8C746.531 8.66 746.531 9.32 746.531 10C749.171 10 751.811 10 754.531 10C754.531 9.67 754.531 9.34 754.531 9C756.511 9 758.491 9 760.531 9C761.851 9.33 763.171 9.66 764.531 10C776.411 10.33 788.291 10.66 800.531 11C800.531 14.96 803.753 36.7517 800.172 39.1094C797.501 40.8677 788.31 39.0114 787.031 39C785.191 38.9837 756.909 47.5164 755.031 47.5C753.809 47.4893 726.791 32.0108 725.531 32C724.307 31.9895 692.792 39.0105 691.531 39C690.306 38.9898 669.289 47.078 668.031 47C637.704 45.1194 632.179 36.4109 630.917 36.4009C629.072 36.3861 596.029 47.3759 594.147 47.361C592.912 47.3512 552.993 39.9465 551.721 39.9364C550.472 39.9265 509.874 41.7146 508.587 41.7042C507.307 41.6937 479.35 36.511 478.031 36.5C476.742 36.4892 463.109 43.5112 461.781 43.5C460.496 43.4891 440.605 35.0112 439.281 35C438.009 34.9892 413.341 40.0111 412.031 40C410.165 39.9842 389.434 31.016 387.531 31C386.31 30.9897 380.039 35.5106 378.781 35.5C377.585 35.4899 352.514 36.256 351.281 36.25C343.855 36.214 335.911 29.4236 332.281 33C327.42 37.7898 313.734 35.0098 312.531 35C311.399 34.9908 310.947 41.7907 302.031 41.75C300.959 41.7451 295.875 37.1098 294.781 37C286.943 36.214 278.827 42.2584 277.781 42.25C276.809 42.2422 262.782 43.258 261.781 43.25C260.471 43.2396 240.117 43.0107 238.781 43C236.836 42.9845 207.467 40.8706 206.031 41.75C204.963 42.4042 196.159 43.2824 195.281 44.5C193.396 47.116 134.143 41.1161 131.281 42.5C94.9812 60.0548 102.636 36.9047 102.281 36C101.667 34.4373 62.6647 44.0485 62.031 42.5C61.8322 42.0143 43.6795 39.0098 42.281 39C41.3301 38.9934 24.0107 33.7544 23.031 33.75C21.9362 33.7451 1.65898 38.8789 0.530985 38.8757C-0.663732 38.8723 0.530985 15.08 0.530985 11C1.35599 10.7319 2.18099 10.4637 3.03099 10.1875C4.18599 9.79562 5.34099 9.40375 6.53099 9C7.25028 8.73574 7.96958 8.47148 8.71067 8.19922C9.43513 7.92723 10.1596 7.65523 10.906 7.375C12.1022 6.92125 13.2985 6.4675 14.531 6C11.561 5.01 8.59099 4.02 5.53099 3C5.53099 2.67 5.53099 2.34 5.53099 2C8.50099 2 11.471 2 14.531 2C16.181 2.99 17.831 3.98 19.531 5C19.531 5.66 19.531 6.32 19.531 7C21.511 5.68 23.491 4.36 25.531 3C28.831 3.33 32.131 3.66 35.531 4C36.026 4.99 36.026 4.99 36.531 6C33.891 6 31.251 6 28.531 6C28.531 6.66 28.531 7.32 28.531 8C31.501 8.495 31.501 8.495 34.531 9C34.531 9.33 34.531 9.66 34.531 10C35.4836 10.0116 36.4362 10.0232 37.4177 10.0352C38.672 10.0442 39.9262 10.0532 41.2185 10.0625C43.0805 10.0799 43.0805 10.0799 44.9802 10.0977C46.7378 10.0493 46.7378 10.0493 48.531 10C49.5068 9.83371 50.4826 9.66742 51.488 9.49609C52.1622 9.33238 52.8364 9.16867 53.531 9C51.056 8.01 51.056 8.01 48.531 7C45.561 6.67 42.591 6.34 39.531 6C40.191 5.34 40.851 4.68 41.531 4C45.491 4 49.451 4 53.531 4C55.841 5.65 58.151 7.3 60.531 9C61.851 8.01 63.171 7.02 64.531 6C65.521 6.495 65.521 6.495 66.531 7C66.861 7 67.191 7 67.531 7C68.2129 7 68.8948 7 69.5974 7C70.4211 7 71.2448 7 72.0935 7C73.5579 7 75.0222 7 76.531 7C76.531 7.33 76.531 7.66 76.531 8C74.881 8.33 73.231 8.66 71.531 9C75.161 8.67 78.791 8.34 82.531 8C79.891 7.01 77.251 6.02 74.531 5C74.531 4.67 74.531 4.34 74.531 4C77.171 4 79.811 4 82.531 4C84.181 5.32 85.831 6.64 87.531 8C88.521 7.01 89.511 6.02 90.531 5C92.364 5.26104 92.364 5.26104 94.2341 5.52734C95.0649 5.61871 95.8957 5.71007 96.7517 5.8042C98.1274 5.90112 98.1274 5.90112 99.531 6C100.453 5.99629 101.376 5.99259 102.326 5.98877C103.812 5.93439 103.812 5.93439 105.328 5.87891C106.425 5.83041 107.522 5.7819 108.653 5.73193C109.85 5.67602 111.047 5.62011 112.281 5.5625C113.575 5.51174 114.869 5.46099 116.202 5.40869C117.623 5.36019 119.044 5.31169 120.508 5.26172C121.264 5.23753 122.02 5.21334 122.798 5.18842C123.596 5.16539 124.394 5.14237 125.216 5.11865C126.482 5.08696 126.482 5.08696 127.774 5.05463C128.684 5.0366 129.594 5.01857 130.531 5C131.539 4.98713 132.546 4.97426 133.585 4.961C134.653 4.95147 135.722 4.94194 136.823 4.93213C138.482 4.92121 138.482 4.92121 140.175 4.91008C141.311 4.90495 142.447 4.89982 143.617 4.89453C145.343 4.88955 145.343 4.88955 147.104 4.88448C148.265 4.88256 149.426 4.88064 150.622 4.87866C152.371 4.87768 152.371 4.87768 154.155 4.87668C155.31 4.87612 156.466 4.87557 157.656 4.875C158.78 4.87259 159.904 4.87019 161.062 4.86771C162.166 4.86568 163.271 4.86366 164.409 4.86157C165.5 4.86151 166.591 4.86145 167.716 4.86139C169.33 4.86426 169.33 4.86426 170.976 4.86719C172.569 4.87284 172.569 4.87284 174.194 4.8786C175.762 4.88999 175.762 4.88999 177.361 4.90161C178.9 4.91994 178.9 4.91994 180.47 4.93863C181.985 4.96901 181.985 4.96901 183.531 5C185.033 5.05129 185.033 5.05129 186.564 5.10361C187.542 5.14507 188.52 5.18653 189.527 5.22925C190.947 5.29579 190.947 5.29579 192.396 5.36368C193.298 5.40995 194.199 5.45623 195.129 5.50391C195.961 5.5505 196.793 5.5971 197.651 5.64511C198.831 5.71165 198.831 5.71165 200.035 5.77954C200.785 5.82028 201.534 5.86102 202.306 5.903C203.04 5.93501 203.775 5.96702 204.531 6C205.294 6.01513 206.057 6.03026 206.843 6.04585C207.943 6.05482 207.943 6.05482 209.065 6.06396C210.312 6.06348 211.559 6.063 212.843 6.0625C213.953 6.05348 215.063 6.04445 216.207 6.03516C216.974 6.02355 217.741 6.01195 218.531 6C216.881 5.34 215.231 4.68 213.531 4C213.531 3.67 213.531 3.34 213.531 3C215.841 3.33 218.151 3.66 220.531 4C221.521 4.495 221.521 4.495 222.531 5C222.531 5.66 222.531 6.32 222.531 7C225.006 6.01 225.006 6.01 227.531 5C228.521 5.495 228.521 5.495 229.531 6C229.531 6.66 229.531 7.32 229.531 8C231.181 7.67 232.831 7.34 234.531 7C235.521 7.495 235.521 7.495 236.531 8C238.511 8 240.491 8 242.531 8C242.531 7.01 242.531 6.02 242.531 5C244.181 5.66 245.831 6.32 247.531 7C247.861 6.67 248.191 6.34 248.531 6C250.181 6 251.831 6 253.531 6C253.531 6.99 253.531 7.98 253.531 9C259.801 9.33 266.071 9.66 272.531 10C271.541 9.34 270.551 8.68 269.531 8C271.511 8 273.491 8 275.531 8C277.511 8.99 277.511 8.99 279.531 10C281.181 9.01 282.831 8.02 284.531 7C287.831 7.33 291.131 7.66 294.531 8C294.861 8.66 295.191 9.32 295.531 10C296.676 9.78344 296.676 9.78344 297.843 9.5625C298.73 9.37688 299.617 9.19125 300.531 9C302.016 8.505 302.016 8.505 303.531 8C304.521 8 305.511 8 306.531 8C307.521 8 308.511 8 309.531 8C309.531 8.99 309.531 9.98 309.531 11C311.016 9.02 311.016 9.02 312.531 7C314.511 6.34 316.491 5.68 318.531 5C315.561 4.34 312.591 3.68 309.531 3C311.016 2.01 311.016 2.01 312.531 1C316.491 1.495 316.491 1.495 320.531 2C321.521 2.99 322.511 3.98 323.531 5C325.511 4.34 327.491 3.68 329.531 3C331.511 3.99 331.511 3.99 333.531 5C332.871 5.33 332.211 5.66 331.531 6C332.521 6.66 333.511 7.32 334.531 8C333.046 8.495 333.046 8.495 331.531 9C340.111 9 348.691 9 357.531 9C354.561 8.01 351.591 7.02 348.531 6C348.531 5.67 348.531 5.34 348.531 5C351.501 5 354.471 5 357.531 5C359.181 5.99 360.831 6.98 362.531 8C363.851 7.67 365.171 7.34 366.531 7C367.438 6.81438 368.346 6.62875 369.281 6.4375C370.395 6.22094 370.395 6.22094 371.531 6C372.591 6.09088 372.591 6.09088 373.672 6.18359C374.698 6.26738 375.724 6.35117 376.781 6.4375C377.945 6.52773 379.109 6.61797 380.308 6.71094C381.702 6.80633 383.095 6.90172 384.531 7C385.807 7.07203 385.807 7.07203 387.11 7.14551C388.465 7.21657 388.465 7.21657 389.847 7.28906C391.209 7.35783 391.209 7.35783 392.598 7.42798C393.504 7.47237 394.41 7.51676 395.343 7.5625C396.697 7.62812 396.697 7.62812 398.077 7.69507C398.914 7.73511 399.751 7.77515 400.613 7.81641C402.552 7.90729 402.552 7.90729 404.531 8C404.531 7.34 404.531 6.68 404.531 6C400.571 5.505 400.571 5.505 396.531 5C396.531 4.67 396.531 4.34 396.531 4C399.171 4 401.811 4 404.531 4C405.521 4.66 406.511 5.32 407.531 6C408.45 5.835 409.369 5.67 410.316 5.5C411.707 5.335 413.098 5.17 414.531 5C415.803 4.96713 415.803 4.96713 417.101 4.93359C418.025 4.93488 418.95 4.93617 419.902 4.9375C420.882 4.94588 421.861 4.95426 422.871 4.96289C424.404 4.98126 424.404 4.98126 425.968 5C427.55 5.01063 427.55 5.01063 429.164 5.02148C430.222 5.02471 431.28 5.02793 432.371 5.03125C433.414 5.03125 434.456 5.03125 435.53 5.03125C436.521 5.02094 437.511 5.01063 438.531 5C439.414 4.96906 440.297 4.93813 441.207 4.90625C442.017 4.865 442.826 4.82375 443.66 4.78125C445.102 4.68844 446.545 4.59563 448.031 4.5C449.934 4.36078 449.934 4.36078 451.875 4.21875C452.751 4.14656 453.628 4.07437 454.531 4C451.231 3.34 447.931 2.68 444.531 2C446.016 1.01 446.016 1.01 447.531 0Z"/><path id="shape2" transform="matrix(0.720436379600373 0 0 0.71999999025059 319.585878625281 1.50514016537758)" fill="#667e1f" stroke="#000000" stroke-opacity="0" stroke-width="0" stroke-linecap="square" stroke-linejoin="bevel" d="M3 0C4.98 0 6.96 0 9 0C10.98 0.99 12.96 1.98 15 3C17.64 2.67 20.28 2.34 23 2C23.33 2.33 23.66 2.66 24 3C41.82 3 59.64 3 78 3C78.99 3.495 78.99 3.495 80 4C82.97 4 85.94 4 89 4C91.64 4.66 94.28 5.32 97 6C95.68 6.33 94.36 6.66 93 7C92.01 7 91.02 7 90 7C90.99 7.66 91.98 8.32 93 9C90.69 9.66 88.38 10.32 86 11C86.495 12.98 86.495 12.98 87 15C82.545 15.495 82.545 15.495 78 16C80.31 16.66 82.62 17.32 85 18C83.68 18.66 82.36 19.32 81 20C80.0925 20.3712 79.185 20.7425 78.25 21.125C77.5075 21.4138 76.765 21.7025 76 22C75.34 22.66 74.68 23.32 74 24C72.35 23.67 70.7 23.34 69 23C69 22.01 69 21.02 69 20C65.04 20.495 65.04 20.495 61 21C60.505 21.495 60.505 21.495 60 22C59.0042 22.0174 59.0042 22.0174 57.9883 22.0352C56.6638 22.0487 56.6638 22.0487 55.3125 22.0625C53.9493 22.0644 53.9493 22.0644 52.5586 22.0664C51.7143 22.0445 50.8699 22.0226 50 22C48.9688 21.835 47.9375 21.67 46.875 21.5C46.2563 21.335 45.6375 21.17 45 21C45 20.34 45 19.68 45 19C44.175 19.165 43.35 19.33 42.5 19.5C40.7675 19.7475 40.7675 19.7475 39 20C36.8344 20.0309 36.8344 20.0309 34.625 20.0625C33.4288 20.0419 32.2325 20.0212 31 20C31 20.66 31 21.32 31 22C29.4222 22.2475 29.4222 22.2475 27.8125 22.5C27.0971 22.5915 26.3816 22.683 25.6445 22.7773C24.7718 22.8508 23.8991 22.9243 23 23C21.8695 23.0219 20.739 23.0438 19.5742 23.0664C18.3947 23.0651 17.2152 23.0638 16 23.0625C14.8656 23.0535 13.7312 23.0445 12.5625 23.0352C11.7169 23.0236 10.8712 23.012 10 23C7.525 22.01 7.525 22.01 5 21C5 20.34 5 19.68 5 19C5.99 19 6.98 19 8 19C8 18.01 8 17.02 8 16C6.35 15.67 4.7 15.34 3 15C3 14.01 3 13.02 3 12C3.66 11.34 4.32 10.68 5 10C3.68 9.67 2.36 9.34 1 9C2.65 8.01 4.3 7.02 6 6C8.31 6 10.62 6 13 6C11.02 5.01 9.04 4.02 7 3C4.69 2.67 2.38 2.34 0 2C0.99 1.34 1.98 0.68 3 0Z"/><path id="shape3" transform="matrix(0.720436379600373 0 0 0.71999999025059 3.31430798071703 2.94514014587875)" fill="#6e8529" stroke="#000000" stroke-opacity="0" stroke-width="0" stroke-linecap="square" stroke-linejoin="bevel" d="M0 0C2.97 0 5.94 0 9 0C10.65 0.99 12.3 1.98 14 3C14 3.66 14 4.32 14 5C15.98 3.68 17.96 2.36 20 1C23.3 1.33 26.6 1.66 30 2C30.33 2.66 30.66 3.32 31 4C28.36 4 25.72 4 23 4C23 4.66 23 5.32 23 6C25.97 6.495 25.97 6.495 29 7C29 7.33 29 7.66 29 8C29.9526 8.0116 30.9052 8.0232 31.8867 8.03516C33.141 8.04418 34.3952 8.0532 35.6875 8.0625C37.5496 8.0799 37.5496 8.0799 39.4492 8.09766C41.2069 8.04932 41.2069 8.04932 43 8C43.9758 7.83371 44.9516 7.66742 45.957 7.49609C46.6312 7.33238 47.3054 7.16867 48 7C45.525 6.01 45.525 6.01 43 5C40.03 4.67 37.06 4.34 34 4C34.66 3.34 35.32 2.68 36 2C39.96 2 43.92 2 48 2C50.31 3.65 52.62 5.3 55 7C56.32 6.01 57.64 5.02 59 4C59.66 4.33 60.32 4.66 61 5C61.33 5 61.66 5 62 5C62.6819 5 63.3638 5 64.0664 5C64.8901 5 65.7138 5 66.5625 5C68.0269 5 69.4912 5 71 5C71 5.33 71 5.66 71 6C69.35 6.33 67.7 6.66 66 7C69.63 6.67 73.26 6.34 77 6C74.36 5.01 71.72 4.02 69 3C69 2.67 69 2.34 69 2C71.64 2 74.28 2 77 2C78.65 3.32 80.3 4.64 82 6C82.99 5.01 83.98 4.02 85 3C86.9162 3.24557 86.9162 3.24557 88.8711 3.49609C89.6934 3.58746 90.5156 3.67882 91.3628 3.77295C92.2331 3.84788 93.1033 3.9228 94 4C94.8329 4.02723 95.6658 4.05446 96.5239 4.08252C97.767 4.09001 97.767 4.09001 99.0352 4.09766C99.8634 4.09443 100.692 4.09121 101.545 4.08789C102.791 4.07532 102.791 4.07532 104.063 4.0625C105.361 4.05573 105.361 4.05573 106.686 4.04883C107.91 4.04206 107.91 4.04206 109.16 4.03516C110.427 4.02355 111.694 4.01195 113 4C113 4.66 113 5.32 113 6C114.65 6.33 116.3 6.66 118 7C118.99 8.98 118.99 8.98 120 11C120.66 11 121.32 11 122 11C122.33 10.01 122.66 9.02 123 8C124.32 7.67 125.64 7.34 127 7C127.495 7.495 127.495 7.495 128 8C130.31 8 132.62 8 135 8C135 8.33 135 8.66 135 9C132.69 9.33 130.38 9.66 128 10C128 10.66 128 11.32 128 12C129.65 12 131.3 12 133 12C132.01 12.66 131.02 13.32 130 14C130.915 14 131.83 14 132.773 14C133.962 14 135.15 14 136.375 14C137.558 14 138.742 14 139.961 14C140.964 14 141.967 14 143 14C143.66 14 144.32 14 145 14C145 13.34 145 12.68 145 12C145.99 11.67 146.98 11.34 148 11C147.01 10.01 147.01 10.01 146 9C148.31 9.33 150.62 9.66 153 10C155.97 9.34 158.94 8.68 162 8C157.545 7.01 157.545 7.01 153 6C153.33 5.34 153.66 4.68 154 4C156.31 4 158.62 4 161 4C162.65 5.32 164.3 6.64 166 8C167.32 7.01 168.64 6.02 170 5C172.31 5.33 174.62 5.66 177 6C176.01 6.66 175.02 7.32 174 8C174.99 8.99 175.98 9.98 177 11C174.36 11.33 171.72 11.66 169 12C169.33 13.32 169.66 14.64 170 16C168.35 16 166.7 16 165 16C164.67 15.34 164.34 14.68 164 14C160.7 14 157.4 14 154 14C154.33 15.98 154.66 17.96 155 20C146.42 20 137.84 20 129 20C128.01 19.34 127.02 18.68 126 18C126 18.66 126 19.32 126 20C123.69 20 121.38 20 119 20C119 19.01 119 18.02 119 17C116.69 17.33 114.38 17.66 112 18C111.34 18.33 110.68 18.66 110 19C110.495 17.515 110.495 17.515 111 16C111.66 15.67 112.32 15.34 113 15C111.35 14.34 109.7 13.68 108 13C108.66 12.34 109.32 11.68 110 11C112.31 11 114.62 11 117 11C115.02 10.01 113.04 9.02 111 8C110.113 7.835 109.226 7.67 108.313 7.5C106.178 7.2525 106.178 7.2525 104 7C102.891 6.97809 101.783 6.95617 100.641 6.93359C99.4598 6.93488 98.2791 6.93617 97.0625 6.9375C95.9191 6.94652 94.7757 6.95555 93.5977 6.96484C92.7404 6.97645 91.8832 6.98805 91 7C91.99 7.99 91.99 7.99 93 9C90.36 9.66 87.72 10.32 85 11C85.495 12.485 85.495 12.485 86 14C84.35 14.99 82.7 15.98 81 17C81.495 17.99 81.495 17.99 82 19C79.69 18.67 77.38 18.34 75 18C74.67 18.66 74.34 19.32 74 20C72.35 20 70.7 20 69 20C69.33 18.68 69.66 17.36 70 16C67.36 15.67 64.72 15.34 62 15C62.66 14.34 63.32 13.68 64 13C62.35 13.33 60.7 13.66 59 14C59.66 15.32 60.32 16.64 61 18C60.505 18.495 60.505 18.495 60 19C57.69 19 55.38 19 53 19C52.34 18.67 51.68 18.34 51 18C51 17.34 51 16.68 51 16C50.0719 16 49.1437 16 48.1875 16C47.1356 16 46.0838 16 45 16C44.01 16 43.02 16 42 16C43.32 15.01 44.64 14.02 46 13C44.35 13 42.7 13 41 13C40.34 12.34 39.68 11.68 39 11C34.71 11 30.42 11 26 11C27.32 11 28.64 11 30 11C31.32 11.66 32.64 12.32 34 13C34.495 13.99 34.495 13.99 35 15C33.02 15.99 33.02 15.99 31 17C31 17.66 31 18.32 31 19C29.35 19 27.7 19 26 19C26 18.34 26 17.68 26 17C24.35 17.33 22.7 17.66 21 18C21 16.68 21 15.36 21 14C21.99 13.67 22.98 13.34 24 13C22.68 12.67 21.36 12.34 20 12C20 12.66 20 13.32 20 14C18.02 14.33 16.04 14.66 14 15C13.34 14.67 12.68 14.34 12 14C12 13.34 12 12.68 12 12C9.69 12 7.38 12 5 12C5.33 11.34 5.66 10.68 6 10C6.99 10 7.98 10 9 10C9 9.34 9 8.68 9 8C7.35 7.67 5.7 7.34 4 7C4.33 6.34 4.66 5.68 5 5C6.32 4.67 7.64 4.34 9 4C6.03 3.01 3.06 2.02 0 1C0 0.67 0 0.34 0 0Z"/><path id="shape4" transform="matrix(0.720436379600373 0 0 0.71999999025059 190.627766676814 2.22514015562827)" fill="#6f8629" stroke="#000000" stroke-opacity="0" stroke-width="0" stroke-linecap="square" stroke-linejoin="bevel" d="M47 0C49.64 0.33 52.28 0.66 55 1C55.99 1.99 56.98 2.98 58 4C59.98 3.34 61.96 2.68 64 2C65.32 2.66 66.64 3.32 68 4C67.34 4.33 66.68 4.66 66 5C66.99 5.66 67.98 6.32 69 7C68.01 7.33 67.02 7.66 66 8C74.58 8 83.16 8 92 8C89.03 7.01 86.06 6.02 83 5C83 4.67 83 4.34 83 4C85.97 4 88.94 4 92 4C93.65 4.99 95.3 5.98 97 7C98.32 6.67 99.64 6.34 101 6C101.907 5.81438 102.815 5.62875 103.75 5.4375C104.493 5.29312 105.235 5.14875 106 5C107.06 5.09088 107.06 5.09088 108.141 5.18359C109.167 5.26738 110.193 5.35117 111.25 5.4375C112.996 5.57285 112.996 5.57285 114.777 5.71094C116.171 5.80633 117.564 5.90172 119 6C119.851 6.04802 120.702 6.09604 121.579 6.14551C122.934 6.21657 122.934 6.21657 124.316 6.28906C125.224 6.3349 126.132 6.38075 127.067 6.42798C127.973 6.47237 128.879 6.51676 129.813 6.5625C130.715 6.60625 131.617 6.65 132.546 6.69507C133.383 6.73511 134.22 6.77515 135.082 6.81641C137.021 6.90729 137.021 6.90729 139 7C139 6.34 139 5.68 139 5C136.36 4.67 133.72 4.34 131 4C131 3.67 131 3.34 131 3C133.64 3 136.28 3 139 3C139.99 3.66 140.98 4.32 142 5C145.465 4.505 145.465 4.505 149 4C149.99 4.99 149.99 4.99 151 6C150.67 6.33 150.34 6.66 150 7C150.99 7.66 151.98 8.32 153 9C151.02 9.99 149.04 10.98 147 12C147 12.99 147 13.98 147 15C145.35 14.67 143.7 14.34 142 14C142 13.01 142 12.02 142 11C139.69 11.66 137.38 12.32 135 13C134.34 13 133.68 13 133 13C132.67 14.65 132.34 16.3 132 18C131.029 18.1637 130.059 18.3274 129.059 18.4961C127.719 18.6624 126.38 18.8287 125 19C123.547 19.0322 122.094 19.0645 120.598 19.0977C119.481 19.0928 119.481 19.0928 118.342 19.0879C117.59 19.0795 116.837 19.0711 116.063 19.0625C115.283 19.058 114.504 19.0535 113.701 19.0488C112.598 19.0421 112.598 19.0421 111.473 19.0352C110.327 19.0236 109.181 19.012 108 19C106.68 18.67 105.36 18.34 104 18C101.69 18.33 99.38 18.66 97 19C95.68 18.34 94.36 17.68 93 17C91.02 17 89.04 17 87 17C87.99 15.515 87.99 15.515 89 14C88.01 13.01 88.01 13.01 87 12C86.01 11.505 86.01 11.505 85 11C80.05 10.505 80.05 10.505 75 10C76.65 10.66 78.3 11.32 80 12C78.68 12.66 77.36 13.32 76 14C75.01 14 74.02 14 73 14C73 14.66 73 15.32 73 16C71.68 16 70.36 16 69 16C69 15.01 69 14.02 69 13C67.68 12.34 66.36 11.68 65 11C64.34 10.67 63.68 10.34 63 10C63.495 11.485 63.495 11.485 64 13C63.01 13.66 62.02 14.32 61 15C55.555 14.505 55.555 14.505 50 14C49.505 13.01 49.505 13.01 49 12C46.69 11.67 44.38 11.34 42 11C42 11.66 42 12.32 42 13C41.34 13 40.68 13 40 13C40 13.66 40 14.32 40 15C32.41 15 24.82 15 17 15C17 15.66 17 16.32 17 17C15.02 17 13.04 17 11 17C11 16.34 11 15.68 11 15C8.36 14.67 5.72 14.34 3 14C2.01 13.34 1.02 12.68 0 12C2.31 11.01 4.62 10.02 7 9C6.01 8.34 5.02 7.68 4 7C5.98 7 7.96 7 10 7C11.32 7.66 12.64 8.32 14 9C15.65 8.01 17.3 7.02 19 6C22.3 6.33 25.6 6.66 29 7C29.33 7.66 29.66 8.32 30 9C31.1447 8.78344 31.1447 8.78344 32.3125 8.5625C33.6428 8.28406 33.6428 8.28406 35 8C35.99 7.67 36.98 7.34 38 7C38.99 7 39.98 7 41 7C41.99 7 42.98 7 44 7C44 7.99 44 8.98 44 10C44.99 8.68 45.98 7.36 47 6C48.98 5.34 50.96 4.68 53 4C48.545 3.01 48.545 3.01 44 2C44.99 1.34 45.98 0.68 47 0Z"/><path id="shape5" transform="matrix(0.720436379600373 0 0 0.71999999025059 167.573802529602 48.9238895232874)" fill="#271304" stroke="#000000" stroke-opacity="0" stroke-width="0" stroke-linecap="square" stroke-linejoin="bevel" d="M5 0.140625C6.18771 0.130151 7.37542 0.119678 8.59912 0.108887C9.40407 0.102512 10.209 0.0961371 11.0384 0.0895691C11.9409 0.0832144 12.8435 0.0768597 13.7734 0.0703125C15.2048 0.0621098 15.2048 0.0621098 16.665 0.0537415C17.6795 0.0488974 18.694 0.0440533 19.7393 0.0390625C20.8165 0.034873 21.8937 0.0306836 23.0035 0.0263672C24.1161 0.0228223 25.2287 0.0192773 26.375 0.015625C28.0429 0.010791 28.0429 0.010791 29.7445 0.00585938C30.8842 0.00392578 32.024 0.00199219 33.1982 0C34.3824 0.00018127 35.5667 0.00036255 36.7867 0.00054932C38.0147 0.00294617 39.2426 0.00534302 40.5078 0.0078125C41.7818 0.0123041 43.0559 0.0167956 44.3685 0.0214233C45.6961 0.0295001 47.0238 0.0375769 48.3916 0.0458984C49.774 0.0582654 51.1564 0.0706323 52.5807 0.083374C54.0391 0.102267 55.4974 0.12116 57 0.140625C57.7747 0.154185 58.5494 0.167746 59.3476 0.181717C60.1447 0.197362 60.9418 0.213007 61.7631 0.229126C62.9817 0.254832 62.9817 0.254832 64.225 0.281057C65.0502 0.29949 65.8754 0.317923 66.7256 0.336914C67.9759 0.36593 67.9759 0.36593 69.2514 0.395533C70.0919 0.415757 70.9324 0.435981 71.7984 0.456818C72.6444 0.477857 73.4905 0.498896 74.3622 0.520573C75.2095 0.542143 76.0567 0.563713 76.9297 0.585938C77.7723 0.607679 78.6149 0.629421 79.483 0.651821C80.7445 0.684936 80.7445 0.684936 82.0315 0.718719C82.8723 0.741191 83.7131 0.763662 84.5794 0.786814C85.8388 0.82104 85.8388 0.82104 87.1235 0.855957C87.961 0.879122 88.7985 0.902286 89.6614 0.926153C90.4974 0.949576 91.3333 0.972999 92.1946 0.997131C93.4454 1.03253 93.4454 1.03253 94.7215 1.06864C95.9731 1.10427 95.9731 1.10427 97.25 1.14063C98.5105 1.1765 98.5105 1.1765 99.7966 1.2131C100.634 1.23702 101.471 1.26094 102.334 1.28558C103.163 1.3094 103.992 1.33322 104.846 1.35776C106.07 1.39312 106.07 1.39312 107.318 1.4292C108.511 1.46391 108.511 1.46391 109.728 1.49932C110.894 1.53348 110.894 1.53348 112.084 1.56833C113.223 1.60189 113.223 1.60189 114.385 1.63614C115.129 1.65824 115.874 1.68035 116.641 1.70313C118.094 1.74688 119.548 1.79064 121.046 1.83572C123.019 1.89577 123.019 1.89577 125.032 1.95703C126.19 1.99256 127.348 2.02809 128.541 2.0647C129.352 2.08975 130.164 2.11481 131 2.14063C132.65 2.80063 134.3 3.46063 136 4.14063C136 3.81062 136 3.48062 136 3.14063C138.64 3.14063 141.28 3.14063 144 3.14063C144.99 6.11062 144.99 6.11062 146 9.14063C144.68 9.14063 143.36 9.14063 142 9.14063C141.67 10.1306 141.34 11.1206 141 12.1406C140.34 12.1406 139.68 12.1406 139 12.1406C139 11.4806 139 10.8206 139 10.1406C138.375 10.0742 137.751 10.0079 137.107 9.93945C136.218 9.85115 135.329 9.76285 134.413 9.67188C133.401 9.58035 132.39 9.48883 131.348 9.39453C129.691 9.26885 129.691 9.26885 128 9.14063C126.343 9.06135 126.343 9.06135 124.652 8.98047C123.492 8.94051 122.333 8.90055 121.138 8.85938C119.28 8.80422 119.28 8.80422 117.385 8.74796C116.069 8.71254 114.754 8.67712 113.398 8.64063C111.991 8.60029 110.583 8.55996 109.133 8.5184C107.661 8.47672 106.189 8.43504 104.672 8.39209C103.918 8.3715 103.164 8.35091 102.387 8.3297C101.241 8.2988 101.241 8.2988 100.073 8.26727C99.3002 8.2465 98.5278 8.22574 97.7321 8.20434C96.9542 8.18331 96.1764 8.16229 95.375 8.14063C94.5958 8.11912 93.8166 8.09761 93.0138 8.07545C91.84 8.04284 91.84 8.04284 90.6425 8.00958C89.856 7.98778 89.0694 7.96597 88.259 7.94351C87.074 7.91081 87.074 7.91081 85.865 7.87744C84.675 7.84493 84.675 7.84493 83.461 7.81175C82.665 7.7902 81.869 7.76864 81.0489 7.74643C80.2511 7.72501 79.4533 7.7036 78.6313 7.68153C77.4313 7.64968 77.4313 7.64968 76.207 7.61719C75.4038 7.59617 74.6006 7.57514 73.7731 7.55349C72.5679 7.52237 72.5679 7.52237 71.3384 7.49063C70.1364 7.46004 70.1364 7.46004 68.91 7.42883C68.1117 7.40881 67.3133 7.38879 66.4907 7.36816C65.6963 7.34851 64.9018 7.32886 64.0833 7.30861C63.2951 7.28947 62.5069 7.27033 61.6949 7.25061C60.5243 7.22279 60.5243 7.22279 59.3301 7.19441C58.5612 7.17666 57.7922 7.15891 57 7.14063C56.2481 7.124 55.4961 7.10738 54.7214 7.09026C53.982 7.07445 53.2427 7.05864 52.4809 7.04236C51.0323 7.01259 49.5838 6.98282 48.0913 6.95215C46.6774 6.92433 45.2635 6.89652 43.8067 6.86786C42.4306 6.84186 41.0545 6.81585 39.6367 6.78906C38.3001 6.76451 36.9635 6.73996 35.5864 6.71466C34.2857 6.69152 32.9851 6.66838 31.645 6.64453C30.3816 6.62278 29.1182 6.60103 27.8165 6.57861C26.5777 6.55783 25.3388 6.53704 24.0625 6.51563C22.824 6.49516 21.5855 6.4747 20.3095 6.45361C19.1076 6.43412 17.9058 6.41462 16.6675 6.39453C15.5313 6.37645 14.3952 6.35838 13.2246 6.33975C12.1514 6.32302 11.0783 6.3063 9.97266 6.28906C8.95121 6.27354 7.92976 6.25802 6.87737 6.24203C5.96272 6.22839 5.04807 6.21474 4.10571 6.20068C2.75083 6.18086 1.39594 6.16104 0 6.14063C1.65 4.16062 3.3 2.18063 5 0.140625Z"/><path id="shape6" transform="matrix(0.720436379600373 0 0 0.71999999025059 393.790825724119 5.1051401166306)" fill="#657a1f" stroke="#000000" stroke-opacity="0" stroke-width="0" stroke-linecap="square" stroke-linejoin="bevel" d="M53 0C55.31 0 57.62 0 60 0C61.32 0.99 62.64 1.98 64 3C65.98 2.34 67.96 1.68 70 1C72.97 1.495 72.97 1.495 76 2C74.68 2.66 73.36 3.32 72 4C72.99 4.495 72.99 4.495 74 5C74.9604 5.03758 74.9604 5.03758 75.9402 5.07593C76.83 5.11146 77.7199 5.14699 78.6367 5.18359C80.0917 5.2445 80.0917 5.2445 81.5762 5.30664C82.6029 5.34982 83.6296 5.39301 84.6875 5.4375C86.1986 5.49647 86.1986 5.49647 87.7402 5.55664C88.7167 5.59854 89.6932 5.64043 90.6992 5.68359C91.5947 5.72025 92.4902 5.75691 93.4128 5.79468C94.2666 5.86243 95.1204 5.93019 96 6C96.9343 6.17153 97.8687 6.34305 98.8313 6.51978C99.547 6.67825 100.263 6.83672 101 7C99.35 8.32 97.7 9.64 96 11C95.01 12.98 94.02 14.96 93 17C92.01 17 91.02 17 90 17C90 16.34 90 15.68 90 15C87.69 14.67 85.38 14.34 83 14C83 14.99 83 15.98 83 17C81.68 17 80.36 17 79 17C79 16.01 79 15.02 79 14C76.03 13.67 73.06 13.34 70 13C70 12.34 70 11.68 70 11C68.02 11.33 66.04 11.66 64 12C63.505 10.515 63.505 10.515 63 9C62.2163 9 61.4325 9 60.625 9C59.7587 9 58.8925 9 58 9C57.34 9 56.68 9 56 9C55.34 10.32 54.68 11.64 54 13C54 13.99 54 14.98 54 16C45.75 16 37.5 16 29 16C27.68 15.67 26.36 15.34 25 15C22.69 15.33 20.38 15.66 18 16C17.67 15.01 17.34 14.02 17 13C16.2369 13 15.4738 13 14.6875 13C13.8006 13 12.9138 13 12 13C11.01 13 10.02 13 9 13C9.66 12.34 10.32 11.68 11 11C8.525 10.01 8.525 10.01 6 9C6.66 8.34 7.32 7.68 8 7C11.465 6.505 11.465 6.505 15 6C13.68 5.34 12.36 4.68 11 4C7.37 3.67 3.74 3.34 0 3C1.32 2.34 2.64 1.68 4 1C7.3 1 10.6 1 14 1C14.99 1.66 15.98 2.32 17 3C17.8869 3.02062 18.7737 3.04125 19.6875 3.0625C20.7806 3.04188 21.8738 3.02125 23 3C23.8933 2.83371 24.7866 2.66742 25.707 2.49609C26.4637 2.33238 27.2204 2.16867 28 2C28.7593 2.14438 29.5185 2.28875 30.3008 2.4375C31.2946 2.62312 32.2885 2.80875 33.3125 3C34.2986 3.18562 35.2848 3.37125 36.3008 3.5625C37.1915 3.70688 38.0823 3.85125 39 4C39.99 4 40.98 4 42 4C42.8907 4.07219 43.7815 4.14438 44.6992 4.21875C45.6854 4.31156 46.6715 4.40437 47.6875 4.5C48.6814 4.59281 49.6752 4.68562 50.6992 4.78125C51.8381 4.88953 51.8381 4.88953 53 5C54.98 4.34 56.96 3.68 59 3C57.02 2.34 55.04 1.68 53 1C53 0.67 53 0.34 53 0Z"/><path id="shape7" transform="matrix(0.720436379600373 0 0 0.71999999025059 491.04973697017 48.9547693436693)" fill="#271304" stroke="#000000" stroke-opacity="0" stroke-width="0" stroke-linecap="square" stroke-linejoin="bevel" d="M33 0.0977364C33.7726 0.08723 34.5452 0.0767236 35.3412 0.0658989C36.5556 0.0546788 36.5556 0.0546788 37.7944 0.043232C38.6324 0.0377604 39.4704 0.0322888 40.3337 0.0266514C41.6284 0.0209913 41.6284 0.0209913 42.9492 0.0152168C43.8321 0.0124757 44.7149 0.00973454 45.6245 0.00691033C46.5251 0.00525053 47.4257 0.00359074 48.3535 0.00188065C49.2698 0.00126003 50.1861 0.00063942 51.1301 0C52.5198 3.966e-05 52.5198 3.966e-05 53.9375 8.011e-05C54.8667 0.00027775 55.7958 0.00047539 56.7532 0.00067902C57.6886 0.00125683 58.6241 0.00183464 59.5879 0.00242996C60.5313 0.00344523 61.4746 0.00446049 62.4466 0.00550652C63.871 0.00765443 63.871 0.00765443 65.3242 0.00984574C66.756 0.0127565 66.756 0.0127565 68.2168 0.0157261C69.177 0.0178945 70.1372 0.0200628 71.1265 0.0222969C72.0915 0.0245326 73.0565 0.0267683 74.0507 0.0290718C75.5106 0.0321233 75.5106 0.0321233 77 0.0352364C78.4831 0.037321 78.4831 0.037321 79.9962 0.0394478C80.9882 0.0405556 81.9803 0.0416634 83.0024 0.0428047C83.9902 0.0438341 84.9779 0.0448636 85.9956 0.0459242C87.4615 0.0474013 87.4615 0.0474013 88.957 0.0489082C90.3924 0.0504798 90.3924 0.0504798 91.8568 0.052083C92.7968 0.0531754 93.7368 0.0542678 94.7053 0.0553932C96.0882 0.0570785 96.0882 0.0570785 97.4991 0.0587978C98.8608 0.0606701 98.8608 0.0606701 100.25 0.0625801C101.155 0.0640951 102.06 0.0656102 102.992 0.0671711C103.871 0.0687931 104.75 0.0704152 105.656 0.0720863C106.907 0.0745184 106.907 0.0745184 108.183 0.0769997C109.368 0.0794091 109.368 0.0794091 110.578 0.0818672C112.016 0.0848834 113.453 0.0878996 114.935 0.0910072C115.946 0.0932279 116.958 0.0954485 118 0.0977364C118 2.07774 118 4.05774 118 6.09774C101.5 6.09774 85 6.09774 68 6.09774C68 5.43774 68 4.77774 68 4.09774C66.68 4.09774 65.36 4.09774 64 4.09774C64 4.75774 64 5.41774 64 6.09774C55.42 6.09774 46.84 6.09774 38 6.09774C38 5.43774 38 4.77774 38 4.09774C35.69 4.09774 33.38 4.09774 31 4.09774C30.67 5.08774 30.34 6.07774 30 7.09774C26.04 7.09774 22.08 7.09774 18 7.09774C18 6.43774 18 5.77774 18 5.09774C16.02 6.08774 16.02 6.08774 14 7.09774C9.38 7.09774 4.76 7.09774 0 7.09774C0.33 6.10774 0.66 5.11774 1 4.09774C1.66 4.09774 2.32 4.09774 3 4.09774C3 3.10774 3 2.11774 3 1.09774C4.65 1.42774 6.3 1.75774 8 2.09774C8.33 1.76774 8.66 1.43774 9 1.09774C10.222 1.02627 11.4441 0.954812 12.7031 0.881184C13.5577 0.836303 14.4123 0.791423 15.2927 0.745182C16.7566 0.67413 16.7566 0.67413 18.25 0.601643C19.2936 0.554879 20.3372 0.508115 21.4124 0.459934C22.5615 0.415336 23.7106 0.370737 24.8945 0.324787C26.7984 0.26258 26.7984 0.26258 28.7407 0.199116C30.1463 0.165661 31.5518 0.132205 33 0.0977364Z"/><path id="shape8" transform="matrix(0.720436379600373 0 0 0.71999999025059 12.9571876104928 43.3163083632698)" fill="#2d1803" stroke="#000000" stroke-opacity="0" stroke-width="0" stroke-linecap="square" stroke-linejoin="bevel" d="M0 0C29.7 0 59.4 0 90 0C90.99 0.33 91.98 0.66 93 1C93 1.99 93 2.98 93 4C92.34 4.33 91.68 4.66 91 5C90.67 5.99 90.34 6.98 90 8C60.3 7.67 30.6 7.34 0 7C0 4.69 0 2.38 0 0Z"/><path id="shape9" transform="matrix(0.720436379600373 0 0 0.71999999025059 251.864858942846 4.38514012637993)" fill="#6d7e22" stroke="#000000" stroke-opacity="0" stroke-width="0" stroke-linecap="square" stroke-linejoin="bevel" d="M46 0C48.64 0 51.28 0 54 0C54.99 0.66 55.98 1.32 57 2C60.465 1.505 60.465 1.505 64 1C64.99 1.99 64.99 1.99 66 3C65.67 3.33 65.34 3.66 65 4C65.99 4.66 66.98 5.32 68 6C66.02 6.99 64.04 7.98 62 9C62 9.99 62 10.98 62 12C59.525 11.505 59.525 11.505 57 11C57 10.01 57 9.02 57 8C54.69 8.66 52.38 9.32 50 10C49.34 10 48.68 10 48 10C47.67 11.65 47.34 13.3 47 15C46.0293 15.1637 45.0587 15.3274 44.0586 15.4961C42.7193 15.6624 41.3799 15.8287 40 16C38.5472 16.0322 37.0945 16.0645 35.5977 16.0977C34.481 16.0928 34.481 16.0928 33.3418 16.0879C32.5896 16.0795 31.8375 16.0711 31.0625 16.0625C30.2833 16.058 29.504 16.0535 28.7012 16.0488C27.5981 16.0421 27.5981 16.0421 26.4727 16.0352C25.3267 16.0236 24.1807 16.012 23 16C21.68 15.67 20.36 15.34 19 15C16.69 15.33 14.38 15.66 12 16C10.68 15.34 9.36 14.68 8 14C6.02 14 4.04 14 2 14C2.66 13.01 3.32 12.02 4 11C3.34 10.34 2.68 9.68 2 9C1.34 8.67 0.68 8.34 0 8C0.33 7.67 0.66 7.34 1 7C2.04801 6.89172 2.04801 6.89172 3.11719 6.78125C4.02727 6.68844 4.93734 6.59563 5.875 6.5C7.23238 6.36078 7.23238 6.36078 8.61719 6.21875C9.79668 6.11047 9.79668 6.11047 11 6C11.66 6 12.32 6 13 6C13.99 6 14.98 6 16 6C16 5.01 16 4.02 16 3C17.65 2.67 19.3 2.34 21 2C22.0596 2.09088 22.0596 2.09088 23.1406 2.18359C24.1667 2.26738 25.1928 2.35117 26.25 2.4375C27.996 2.57285 27.996 2.57285 29.7773 2.71094C31.8676 2.85402 31.8676 2.85402 34 3C35.2764 3.07203 35.2764 3.07203 36.5786 3.14551C37.9338 3.21657 37.9338 3.21657 39.3164 3.28906C40.2242 3.3349 41.1321 3.38075 42.0674 3.42798C43.4262 3.49457 43.4262 3.49457 44.8125 3.5625C45.7145 3.60625 46.6165 3.65 47.5459 3.69507C48.3828 3.73511 49.2197 3.77515 50.082 3.81641C52.0214 3.90729 52.0214 3.90729 54 4C54 3.34 54 2.68 54 2C51.36 1.67 48.72 1.34 46 1C46 0.67 46 0.34 46 0Z"/><path id="shape10" transform="matrix(0.720436379600373 0 0 0.71999999025059 464.393590924956 2.94514014587875)" fill="#688121" stroke="#000000" stroke-opacity="0" stroke-width="0" stroke-linecap="square" stroke-linejoin="bevel" d="M2 0C5.3 0 8.6 0 12 0C13.1137 0.680625 13.1137 0.680625 14.25 1.375C15.1575 1.91125 16.065 2.4475 17 3C18.32 3.66 19.64 4.32 21 5C22.32 4.01 23.64 3.02 25 2C25.99 2.33 26.98 2.66 28 3C30.97 3 33.94 3 37 3C37 3.33 37 3.66 37 4C38.65 4 40.3 4 42 4C37.545 3.01 37.545 3.01 33 2C33.33 1.34 33.66 0.68 34 0C36.31 0 38.62 0 41 0C43.475 1.485 43.475 1.485 46 3C46 3.66 46 4.32 46 5C46.66 5 47.32 5 48 5C48.33 4.01 48.66 3.02 49 2C50.65 1.67 52.3 1.34 54 1C55.98 1.33 57.96 1.66 60 2C60.495 3.98 60.495 3.98 61 6C57.7 6.99 54.4 7.98 51 9C50.67 10.32 50.34 11.64 50 13C47.36 13 44.72 13 42 13C44.31 13.99 46.62 14.98 49 16C48.01 17.32 47.02 18.64 46 20C43.69 19.67 41.38 19.34 39 19C38.505 20.485 38.505 20.485 38 22C36.35 21.67 34.7 21.34 33 21C33.495 19.515 33.495 19.515 34 18C32.02 17.34 30.04 16.68 28 16C28.99 15.34 29.98 14.68 31 14C28.525 13.505 28.525 13.505 26 13C26 12.67 26 12.34 26 12C30.455 11.505 30.455 11.505 35 11C35.495 12.485 35.495 12.485 36 14C36.99 13.34 37.98 12.68 39 12C38.505 10.02 38.505 10.02 38 8C37.34 7.67 36.68 7.34 36 7C33.36 7 30.72 7 28 7C27.67 7.33 27.34 7.66 27 8C29.31 8 31.62 8 34 8C32.02 8.99 32.02 8.99 30 10C29.0925 10.3712 28.185 10.7425 27.25 11.125C26.5075 11.4138 25.765 11.7025 25 12C25.33 13.32 25.66 14.64 26 16C25.34 16.33 24.68 16.66 24 17C22.02 17 20.04 17 18 17C17.67 16.01 17.34 15.02 17 14C14.36 14 11.72 14 9 14C9.99 13.01 10.98 12.02 12 11C10.35 11 8.7 11 7 11C5.68 10.01 4.36 9.02 3 8C6.96 7.34 10.92 6.68 15 6C12.69 5.01 10.38 4.02 8 3C5.36 2.67 2.72 2.34 0 2C0.66 1.34 1.32 0.68 2 0Z"/><path id="shape11" transform="matrix(0.720436379600373 0 0 0.71999999025059 78.2396914591558 5.82514010688114)" fill="#667c1e" stroke="#000000" stroke-opacity="0" stroke-width="0" stroke-linecap="square" stroke-linejoin="bevel" d="M50 0C52.31 0 54.62 0 57 0C59.475 1.98 59.475 1.98 62 4C63.32 3.01 64.64 2.02 66 1C68.31 1.33 70.62 1.66 73 2C72.01 2.66 71.02 3.32 70 4C70.99 4.99 71.98 5.98 73 7C70.36 7.33 67.72 7.66 65 8C65.495 9.98 65.495 9.98 66 12C64.35 12 62.7 12 61 12C60.505 11.01 60.505 11.01 60 10C56.7 10 53.4 10 50 10C50.495 12.97 50.495 12.97 51 16C42.42 16 33.84 16 25 16C24.01 15.34 23.02 14.68 22 14C22 14.66 22 15.32 22 16C19.69 16 17.38 16 15 16C15 15.01 15 14.02 15 13C12.69 13.33 10.38 13.66 8 14C7.01 14.495 7.01 14.495 6 15C6.33 14.01 6.66 13.02 7 12C7.66 11.67 8.32 11.34 9 11C6.525 10.01 6.525 10.01 4 9C4.66 8.34 5.32 7.68 6 7C8.31 7 10.62 7 13 7C11.02 6.01 9.04 5.02 7 4C4.69 3.67 2.38 3.34 0 3C0.66 2.34 1.32 1.68 2 1C4.31 1 6.62 1 9 1C10.98 1.99 12.96 2.98 15 4C15.33 4.99 15.66 5.98 16 7C16.66 7 17.32 7 18 7C18.33 6.01 18.66 5.02 19 4C20.32 3.67 21.64 3.34 23 3C23.33 3.33 23.66 3.66 24 4C26.31 4 28.62 4 31 4C31 4.33 31 4.66 31 5C28.69 5.33 26.38 5.66 24 6C24 6.66 24 7.32 24 8C25.65 8 27.3 8 29 8C28.01 8.66 27.02 9.32 26 10C26.9152 10 27.8305 10 28.7734 10C29.962 10 31.1505 10 32.375 10C33.5584 10 34.7417 10 35.9609 10C36.9638 10 37.9667 10 39 10C39.66 10 40.32 10 41 10C41 9.34 41 8.68 41 8C41.99 7.67 42.98 7.34 44 7C43.34 6.34 42.68 5.68 42 5C44.31 5.33 46.62 5.66 49 6C51.97 5.34 54.94 4.68 58 4C53.545 3.01 53.545 3.01 49 2C49.33 1.34 49.66 0.68 50 0Z"/><path id="shape12" transform="matrix(0.720436379600373 0 0 0.71999999025059 51.2914548068682 65.2582174776778)" fill="#2a1504" stroke="#000000" stroke-opacity="0" stroke-width="0" stroke-linecap="square" stroke-linejoin="bevel" d="M0 0C5.61 0 11.22 0 17 0C17 0.99 17 1.98 17 3C19.31 3 21.62 3 24 3C24 2.01 24 1.02 24 0C39.18 0 54.36 0 70 0C70.99 1.32 71.98 2.64 73 4C71.68 4 70.36 4 69 4C69.99 5.485 69.99 5.485 71 7C70.01 7.66 69.02 8.32 68 9C67.01 8.01 66.02 7.02 65 6C65.33 5.01 65.66 4.02 66 3C66.66 3 67.32 3 68 3C68 2.34 68 1.68 68 1C66.68 1.99 65.36 2.98 64 4C63.67 4.99 63.34 5.98 63 7C42.21 7 21.42 7 0 7C0 4.69 0 2.38 0 0Z"/><path id="shape13" transform="matrix(0.720436379600373 0 0 0.71999999025059 141.638092863989 3.66514013612933)" fill="#6b7f21" stroke="#000000" stroke-opacity="0" stroke-width="0" stroke-linecap="square" stroke-linejoin="bevel" d="M16 0C18.31 0.33 20.62 0.66 23 1C23.66 1.33 24.32 1.66 25 2C25 2.66 25 3.32 25 4C26.65 3.34 28.3 2.68 30 2C30.66 2.33 31.32 2.66 32 3C32 3.66 32 4.32 32 5C33.65 4.67 35.3 4.34 37 4C37.66 4.33 38.32 4.66 39 5C40.98 5 42.96 5 45 5C45 4.01 45 3.02 45 2C47.475 2.99 47.475 2.99 50 4C50.33 3.67 50.66 3.34 51 3C52.65 3 54.3 3 56 3C56 4.32 56 5.64 56 7C54.68 7 53.36 7 52 7C51.67 8.32 51.34 9.64 51 11C42.42 11 33.84 11 25 11C23.68 10.01 22.36 9.02 21 8C20.01 8.33 19.02 8.66 18 9C19.65 9.66 21.3 10.32 23 11C22.01 12.32 21.02 13.64 20 15C18.35 15 16.7 15 15 15C14.34 15.66 13.68 16.32 13 17C11.35 17 9.7 17 8 17C8 15.68 8 14.36 8 13C7.01 12.34 6.02 11.68 5 11C5.66 10.67 6.32 10.34 7 10C4.69 9.67 2.38 9.34 0 9C0.33 8.34 0.66 7.68 1 7C4.465 6.505 4.465 6.505 8 6C9.32 6.99 10.64 7.98 12 9C12.99 8.01 13.98 7.02 15 6C14.34 5.34 13.68 4.68 13 4C15.64 3.67 18.28 3.34 21 3C19.35 2.34 17.7 1.68 16 1C16 0.67 16 0.34 16 0Z"/><path id="shape14" transform="matrix(0.720436379600373 0 0 0.71999999025059 357.0485703645 3.642640136434)" fill="#7e6628" stroke="#000000" stroke-opacity="0" stroke-width="0" stroke-linecap="square" stroke-linejoin="bevel" d="M19 0.03125C20.36 0.0209375 21.7199 0.010625 23.1211 0C24.0711 0.0103125 25.0212 0.020625 26 0.03125C28.31 0.69125 30.62 1.35125 33 2.03125C32.34 3.35125 31.68 4.67125 31 6.03125C28.36 6.03125 25.72 6.03125 23 6.03125C23.99 6.69125 24.98 7.35125 26 8.03125C25.01 8.52625 25.01 8.52625 24 9.03125C24 10.0213 24 11.0113 24 12.0313C23.34 12.0313 22.68 12.0313 22 12.0313C21.67 12.6913 21.34 13.3513 21 14.0313C19.68 13.3712 18.36 12.7112 17 12.0313C15.35 11.7012 13.7 11.3712 12 11.0313C12.33 10.0412 12.66 9.05125 13 8.03125C11.35 8.69125 9.7 9.35125 8 10.0313C7.34 9.70125 6.68 9.37125 6 9.03125C6.33 7.71125 6.66 6.39125 7 5.03125C6.01 5.36125 5.02 5.69125 4 6.03125C2.68 4.38125 1.36 2.73125 0 1.03125C1.93553 0.922969 1.93553 0.922969 3.91016 0.8125C4.7358 0.767383 5.56145 0.722266 6.41211 0.675781C7.28674 0.628086 8.16137 0.580391 9.0625 0.53125C9.91006 0.483555 10.7576 0.435859 11.6309 0.386719C12.4655 0.341602 13.3002 0.296484 14.1602 0.25C14.9789 0.20875 15.7976 0.1675 16.6411 0.125C17.4195 0.0940625 18.198 0.063125 19 0.03125Z"/><path id="shape15" transform="matrix(0.720436379600373 0 0 0.71999999025059 411.081298834528 5.10514011663061)" fill="#6a8522" stroke="#000000" stroke-opacity="0" stroke-width="0" stroke-linecap="square" stroke-linejoin="bevel" d="M29 0C31.31 0 33.62 0 36 0C37.32 0.99 38.64 1.98 40 3C41.98 2.34 43.96 1.68 46 1C47.98 1.33 49.96 1.66 52 2C50.02 2.99 50.02 2.99 48 4C48.66 4.66 49.32 5.32 50 6C48.68 6 47.36 6 46 6C46.495 7.485 46.495 7.485 47 9C45.02 9.99 45.02 9.99 43 11C41.68 11 40.36 11 39 11C39 10.34 39 9.68 39 9C38.2163 9 37.4325 9 36.625 9C35.7587 9 34.8925 9 34 9C33.34 9 32.68 9 32 9C31.01 9.33 30.02 9.66 29 10C29 10.66 29 11.32 29 12C28.01 12 27.02 12 26 12C26 11.34 26 10.68 26 10C23.525 9.505 23.525 9.505 21 9C21.99 8.34 22.98 7.68 24 7C20.04 7 16.08 7 12 7C11.67 6.67 11.34 6.34 11 6C9.35 6 7.7 6 6 6C6 5.34 6 4.68 6 4C4.02 4.33 2.04 4.66 0 5C0.33 4.01 0.66 3.02 1 2C1.97582 2.14438 2.95164 2.28875 3.95703 2.4375C5.86549 2.71594 5.86549 2.71594 7.8125 3C9.07707 3.18562 10.3416 3.37125 11.6445 3.5625C12.7518 3.70688 13.8591 3.85125 15 4C15.99 4 16.98 4 18 4C18.8907 4.07219 19.7815 4.14438 20.6992 4.21875C22.1784 4.35797 22.1784 4.35797 23.6875 4.5C24.6814 4.59281 25.6752 4.68562 26.6992 4.78125C27.8381 4.88953 27.8381 4.88953 29 5C30.98 4.34 32.96 3.68 35 3C33.02 2.34 31.04 1.68 29 1C29 0.67 29 0.34 29 0Z"/><path id="shape16" transform="matrix(0.720436379600373 0 0 0.71999999025059 514.824137496982 5.82514010688114)" fill="#6a7c21" stroke="#000000" stroke-opacity="0" stroke-width="0" stroke-linecap="square" stroke-linejoin="bevel" d="M0 0C3.63 0 7.26 0 11 0C11.99 0.66 12.98 1.32 14 2C18.455 1.505 18.455 1.505 23 1C23.33 1.33 23.66 1.66 24 2C26.31 2 28.62 2 31 2C31 2.99 31 3.98 31 5C28.69 4.67 26.38 4.34 24 4C24 4.66 24 5.32 24 6C26.31 6.33 28.62 6.66 31 7C31 7.33 31 7.66 31 8C26.545 8.495 26.545 8.495 22 9C22 9.99 22 10.98 22 12C22 12.66 22 13.32 22 14C20.02 14.33 18.04 14.66 16 15C15.01 14.01 14.02 13.02 13 12C13.66 12 14.32 12 15 12C15 11.34 15 10.68 15 10C12.03 10.66 9.06 11.32 6 12C6.99 11.01 7.98 10.02 9 9C6.69 8.67 4.38 8.34 2 8C2.33 7.34 2.66 6.68 3 6C5.64 5.34 8.28 4.68 11 4C8.69 3.67 6.38 3.34 4 3C2.68 2.01 1.36 1.02 0 0Z"/><path id="shape17" transform="matrix(0.720436379600373 0 0 0.71999999025059 334.715042596889 4.38514012637993)" fill="#8d492c" stroke="#000000" stroke-opacity="0" stroke-width="0" stroke-linecap="square" stroke-linejoin="bevel" d="M5 0C10.94 0 16.88 0 23 0C25.97 1.65 28.94 3.3 32 5C32.495 5.99 32.495 5.99 33 7C29.7 6.67 26.4 6.34 23 6C22.67 6.33 22.34 6.66 22 7C22.66 7.33 23.32 7.66 24 8C23.01 8.66 22.02 9.32 21 10C17.7 10 14.4 10 11 10C7.37 9.01 3.74 8.02 0 7C0.66 6.34 1.32 5.68 2 5C5.465 4.505 5.465 4.505 9 4C7.35 3.67 5.7 3.34 4 3C4.33 2.01 4.66 1.02 5 0Z"/><path id="shape18" transform="matrix(0.720436379600373 0 0 0.71999999025059 53.0244181731428 4.38514012637993)" fill="#84893d" stroke="#000000" stroke-opacity="0" stroke-width="0" stroke-linecap="square" stroke-linejoin="bevel" d="M0 0C2.64 0 5.28 0 8 0C9.65 1.32 11.3 2.64 13 4C13.99 3.01 14.98 2.02 16 1C17.9162 1.24557 17.9162 1.24557 19.8711 1.49609C21.1045 1.63314 21.1045 1.63314 22.3628 1.77295C23.2331 1.84788 24.1033 1.9228 25 2C26.2493 2.04085 26.2493 2.04085 27.5239 2.08252C28.767 2.09001 28.767 2.09001 30.0352 2.09766C30.8634 2.09443 31.6916 2.09121 32.5449 2.08789C33.3757 2.07951 34.2065 2.07113 35.0625 2.0625C35.9281 2.05799 36.7937 2.05348 37.6855 2.04883C38.9105 2.04206 38.9105 2.04206 40.1602 2.03516C41.4273 2.02355 42.6945 2.01195 44 2C44 2.33 44 2.66 44 3C36.74 3.66 29.48 4.32 22 5C22.66 5.66 23.32 6.32 24 7C21.36 7.66 18.72 8.32 16 9C15.67 9.66 15.34 10.32 15 11C12.36 11 9.72 11 7 11C7.99 10.01 8.98 9.02 10 8C10 7.34 10 6.68 10 6C9.34 5.67 8.68 5.34 8 5C7.34 4.34 6.68 3.68 6 3C4.02 2.34 2.04 1.68 0 1C0 0.67 0 0.34 0 0Z"/><path id="shape19" transform="matrix(0.720436379600373 0 0 0.71999999025059 3.31430798071705 2.94514014587875)" fill="#607e1c" stroke="#000000" stroke-opacity="0" stroke-width="0" stroke-linecap="square" stroke-linejoin="bevel" d="M0 0C2.97 0 5.94 0 9 0C10.65 0.99 12.3 1.98 14 3C14 3.66 14 4.32 14 5C15.32 4.01 16.64 3.02 18 2C18.66 2.33 19.32 2.66 20 3C19.01 4.32 18.02 5.64 17 7C17.33 8.65 17.66 10.3 18 12C18.66 12 19.32 12 20 12C20 12.66 20 13.32 20 14C18.02 14.33 16.04 14.66 14 15C13.34 14.67 12.68 14.34 12 14C12 13.34 12 12.68 12 12C9.69 12 7.38 12 5 12C5.33 11.34 5.66 10.68 6 10C6.99 10 7.98 10 9 10C9 9.34 9 8.68 9 8C7.35 7.67 5.7 7.34 4 7C4.33 6.34 4.66 5.68 5 5C6.32 4.67 7.64 4.34 9 4C6.03 3.01 3.06 2.02 0 1C0 0.67 0 0.34 0 0Z"/><path id="shape20" transform="matrix(0.720436379600373 0 0 0.71999999025059 251.864858942846 8.70514006788348)" fill="#657f1e" stroke="#000000" stroke-opacity="0" stroke-width="0" stroke-linecap="square" stroke-linejoin="bevel" d="M10 0C10.99 0 11.98 0 13 0C13.99 0 14.98 0 16 0C16.33 0.66 16.66 1.32 17 2C17.66 2.33 18.32 2.66 19 3C19.66 4.65 20.32 6.3 21 8C19.02 8.99 19.02 8.99 17 10C15.35 10 13.7 10 12 10C10.68 9.34 9.36 8.68 8 8C6.02 8 4.04 8 2 8C2.66 7.01 3.32 6.02 4 5C3.34 4.34 2.68 3.68 2 3C1.34 2.67 0.68 2.34 0 2C0.33 1.67 0.66 1.34 1 1C2.42312 0.835 3.84625 0.67 5.3125 0.5C6.11301 0.407188 6.91352 0.314375 7.73828 0.21875C8.48465 0.146563 9.23102 0.074375 10 0Z"/><path id="shape21" transform="matrix(0.720436379600373 0 0 0.71999999025059 483.124936794565 10.8651400386353)" fill="#687e1f" stroke="#000000" stroke-opacity="0" stroke-width="0" stroke-linecap="square" stroke-linejoin="bevel" d="M6 0C7.32 0.33 8.64 0.66 10 1C10 1.66 10 2.32 10 3C11.32 2.01 12.64 1.02 14 0C14.99 0.33 15.98 0.66 17 1C16.67 1.33 16.34 1.66 16 2C19.465 3.485 19.465 3.485 23 5C22.01 6.32 21.02 7.64 20 9C17.69 8.67 15.38 8.34 13 8C12.67 8.99 12.34 9.98 12 11C10.35 10.67 8.7 10.34 7 10C7.33 9.01 7.66 8.02 8 7C6.02 6.34 4.04 5.68 2 5C2.99 4.34 3.98 3.68 5 3C3.35 2.67 1.7 2.34 0 2C0 1.67 0 1.34 0 1C1.98 0.67 3.96 0.34 6 0Z"/><path id="shape22" transform="matrix(0.720436379600373 0 0 0.71999999025059 190.627766676814 9.42514005813407)" fill="#5c771c" stroke="#000000" stroke-opacity="0" stroke-width="0" stroke-linecap="square" stroke-linejoin="bevel" d="M32 0C33.98 0 35.96 0 38 0C38.495 2.475 38.495 2.475 39 5C31.74 5 24.48 5 17 5C17 5.66 17 6.32 17 7C15.02 7 13.04 7 11 7C11 6.34 11 5.68 11 5C8.36 4.67 5.72 4.34 3 4C2.01 3.34 1.02 2.68 0 2C1.98 1.67 3.96 1.34 6 1C6.99 1.33 7.98 1.66 9 2C9 2.66 9 3.32 9 4C10.32 4.33 11.64 4.66 13 5C13.66 5.33 14.32 5.66 15 6C15.33 5.01 15.66 4.02 16 3C16.99 2.34 17.98 1.68 19 1C21.31 1.33 23.62 1.66 26 2C27.32 1.67 28.64 1.34 30 1C30.66 0.67 31.32 0.34 32 0Z"/><path id="shape23" transform="matrix(0.720436379600373 0 0 0.71999999025059 542.921156301396 7.9851400776328)" fill="#837f40" stroke="#000000" stroke-opacity="0" stroke-width="0" stroke-linecap="square" stroke-linejoin="bevel" d="M0 0C1.98 0 3.96 0 6 0C7.32 0.33 8.64 0.66 10 1C21.88 1.33 33.76 1.66 46 2C46 2.33 46 2.66 46 3C36.1 3.33 26.2 3.66 16 4C14.68 4.99 13.36 5.98 12 7C11.67 7.66 11.34 8.32 11 9C9.68 8.67 8.36 8.34 7 8C7 7.34 7 6.68 7 6C5.68 6.33 4.36 6.66 3 7C2.01 6.01 1.02 5.02 0 4C1.32 3.34 2.64 2.68 4 2C2.68 1.34 1.36 0.68 0 0Z"/><path id="shape24" transform="matrix(0.720436379600373 0 0 0.71999999025059 -0.287873917284813 7.26514008738225)" fill="#8f472f" stroke="#000000" stroke-opacity="0" stroke-width="0" stroke-linecap="square" stroke-linejoin="bevel" d="M8 0C9.98 0.66 11.96 1.32 14 2C14 2.66 14 3.32 14 4C13.01 4.495 13.01 4.495 12 5C14.31 5 16.62 5 19 5C18.01 5.495 18.01 5.495 17 6C17.33 6.99 17.66 7.98 18 9C12.06 9 6.12 9 0 9C0 7.02 0 5.04 0 3C0.94875 2.69063 1.8975 2.38125 2.875 2.0625C3.90625 1.71188 4.9375 1.36125 6 1C6.66 0.67 7.32 0.34 8 0Z"/><path id="shape25" transform="matrix(0.720436379600373 0 0 0.71999999025059 222.32696737923 2.22514015562827)" fill="#829e45" stroke="#000000" stroke-opacity="0" stroke-width="0" stroke-linecap="square" stroke-linejoin="bevel" d="M3 0C5.64 0.33 8.28 0.66 11 1C11.99 1.99 12.98 2.98 14 4C15.98 3.34 17.96 2.68 20 2C21.32 2.66 22.64 3.32 24 4C23.01 4.495 23.01 4.495 22 5C22.99 5.66 23.98 6.32 25 7C24.01 7.33 23.02 7.66 22 8C24.31 8.33 26.62 8.66 29 9C29 9.33 29 9.66 29 10C25.37 10 21.74 10 18 10C17.34 9.01 16.68 8.02 16 7C15.01 7.33 14.02 7.66 13 8C10.69 7.34 8.38 6.68 6 6C6.99 5.34 7.98 4.68 9 4C4.545 3.01 4.545 3.01 0 2C0.99 1.34 1.98 0.68 3 0Z"/><path id="shape26" transform="matrix(0.720436379600373 0 0 0.71999999025059 27.8091448871297 4.38514012637993)" fill="#839e45" stroke="#000000" stroke-opacity="0" stroke-width="0" stroke-linecap="square" stroke-linejoin="bevel" d="M2 0C5.96 0 9.92 0 14 0C17.465 2.475 17.465 2.475 21 5C21.33 6.32 21.66 7.64 22 9C20.68 9 19.36 9 18 9C13.545 8.01 13.545 8.01 9 7C9 6.67 9 6.34 9 6C10.65 5.67 12.3 5.34 14 5C11.525 4.01 11.525 4.01 9 3C6.03 2.67 3.06 2.34 0 2C0.66 1.34 1.32 0.68 2 0Z"/><path id="shape27" transform="matrix(0.720436379600373 0 0 0.71999999025059 266.994022914453 10.8651400386353)" fill="#58691b" stroke="#000000" stroke-opacity="0" stroke-width="0" stroke-linecap="square" stroke-linejoin="bevel" d="M6 0C8.31 0 10.62 0 13 0C13.8456 0.45375 14.6913 0.9075 15.5625 1.375C16.6969 1.91125 17.8313 2.4475 19 3C20.2788 3.39188 21.5575 3.78375 22.875 4.1875C23.9063 4.45563 24.9375 4.72375 26 5C25.34 5.66 24.68 6.32 24 7C16.74 7 9.48 7 2 7C1.34 6.34 0.68 5.68 0 5C3.96 5 7.92 5 12 5C12 4.01 12 3.02 12 2C9.03 1.505 9.03 1.505 6 1C6 0.67 6 0.34 6 0Z"/><path id="shape28" transform="matrix(0.720436379600373 0 0 0.71999999025059 214.402167203626 6.54514009713171)" fill="#749031" stroke="#000000" stroke-opacity="0" stroke-width="0" stroke-linecap="square" stroke-linejoin="bevel" d="M14 0C16.475 0.99 16.475 0.99 19 2C19 2.66 19 3.32 19 4C18.01 4.495 18.01 4.495 17 5C14.36 5 11.72 5 9 5C9 5.66 9 6.32 9 7C8.34 7 7.68 7 7 7C6.67 7.66 6.34 8.32 6 9C5.34 7.68 4.68 6.36 4 5C2.68 4.34 1.36 3.68 0 3C0.66 2.34 1.32 1.68 2 1C3.65 1.33 5.3 1.66 7 2C8.32 1.67 9.64 1.34 11 1C11 1.99 11 2.98 11 4C11.99 2.68 12.98 1.36 14 0Z"/><path id="shape29" transform="matrix(0.720436379600373 0 0 0.71999999025059 45.0996179975387 8.70514006788349)" fill="#796b25" stroke="#000000" stroke-opacity="0" stroke-width="0" stroke-linecap="square" stroke-linejoin="bevel" d="M8 0C10.97 0.495 10.97 0.495 14 1C14.99 1.66 15.98 2.32 17 3C15.68 3.33 14.36 3.66 13 4C13 5.65 13 7.3 13 9C8.545 8.01 8.545 8.01 4 7C4.66 6.34 5.32 5.68 6 5C5.34 4.34 4.68 3.68 4 3C2.68 3.33 1.36 3.66 0 4C0.99 3.01 1.98 2.02 3 1C4.65 0.67 6.3 0.34 8 0Z"/><path id="shape30" transform="matrix(0.720436379600373 0 0 0.71999999025059 171.175984427604 5.10514011663061)" fill="#87753c" stroke="#000000" stroke-opacity="0" stroke-width="0" stroke-linecap="square" stroke-linejoin="bevel" d="M4 0C6.475 0.99 6.475 0.99 9 2C9.33 1.67 9.66 1.34 10 1C11.65 1 13.3 1 15 1C15 2.32 15 3.64 15 5C13.68 5 12.36 5 11 5C10.34 6.32 9.68 7.64 9 9C4.545 7.02 4.545 7.02 0 5C1.32 4.01 2.64 3.02 4 2C4 1.34 4 0.68 4 0Z"/><path id="shape31" transform="matrix(0.720436379600373 0 0 0.71999999025059 202.15474875042 6.54514009713171)" fill="#6b8528" stroke="#000000" stroke-opacity="0" stroke-width="0" stroke-linecap="square" stroke-linejoin="bevel" d="M3 0C6.3 0.33 9.6 0.66 13 1C13.99 2.32 14.98 3.64 16 5C14.35 5.33 12.7 5.66 11 6C10.01 6.495 10.01 6.495 9 7C7.02 6.34 5.04 5.68 3 5C3 4.34 3 3.68 3 3C2.01 2.67 1.02 2.34 0 2C0.99 1.34 1.98 0.68 3 0Z"/><path id="shape32" transform="matrix(0.720436379600373 0 0 0.71999999025059 393.790825724119 5.82514010688114)" fill="#808d3a" stroke="#000000" stroke-opacity="0" stroke-width="0" stroke-linecap="square" stroke-linejoin="bevel" d="M4 0C7.3 0 10.6 0 14 0C14.99 0.66 15.98 1.32 17 2C19.475 2.495 19.475 2.495 22 3C21.01 4.98 20.02 6.96 19 9C17.02 7.35 15.04 5.7 13 4C12.34 3.67 11.68 3.34 11 3C7.37 2.67 3.74 2.34 0 2C1.32 1.34 2.64 0.68 4 0Z"/><path id="shape33" transform="matrix(0.720436379600373 0 0 0.71999999025059 382.984280030113 8.70514006788348)" fill="#6c7c20" stroke="#000000" stroke-opacity="0" stroke-width="0" stroke-linecap="square" stroke-linejoin="bevel" d="M10 0C11.98 0 13.96 0 16 0C14.02 0.99 14.02 0.99 12 2C12.66 2.33 13.32 2.66 14 3C14 3.66 14 4.32 14 5C12.35 5.33 10.7 5.66 9 6C9 6.66 9 7.32 9 8C7.68 8 6.36 8 5 8C5 7.01 5 6.02 5 5C4.34 5 3.68 5 3 5C3 4.01 3 3.02 3 2C2.01 1.67 1.02 1.34 0 1C0.928125 1 1.85625 1 2.8125 1C3.86437 1 4.91625 1 6 1C6.99 1 7.98 1 9 1C9.33 0.67 9.66 0.34 10 0Z"/><path id="shape34" transform="matrix(0.720436379600373 0 0 0.71999999025059 45.820054377139 4.38514012637993)" fill="#e9ecde" stroke="#000000" stroke-opacity="0" stroke-width="0" stroke-linecap="square" stroke-linejoin="bevel" d="M8 0C11.3 0.99 14.6 1.98 18 3C18.33 3.66 18.66 4.32 19 5C18.175 5.165 17.35 5.33 16.5 5.5C15.345 5.665 14.19 5.83 13 6C10.8344 6.03094 10.8344 6.03094 8.625 6.0625C7.42875 6.04188 6.2325 6.02125 5 6C5.66 5.34 6.32 4.68 7 4C4.69 4.33 2.38 4.66 0 5C0.66 3.68 1.32 2.36 2 1C4.97 1.495 4.97 1.495 8 2C8 1.34 8 0.68 8 0Z"/><path id="shape35" transform="matrix(0.720436379600373 0 0 0.71999999025059 237.456131350838 7.98514007763281)" fill="#6c7b21" stroke="#000000" stroke-opacity="0" stroke-width="0" stroke-linecap="square" stroke-linejoin="bevel" d="M9 0C9.99 0.33 10.98 0.66 12 1C11.01 1.495 11.01 1.495 10 2C12.475 2.99 12.475 2.99 15 4C13.02 4.99 13.02 4.99 11 6C10.01 6 9.02 6 8 6C8 6.66 8 7.32 8 8C6.68 8 5.36 8 4 8C4 7.01 4 6.02 4 5C2.68 4.34 1.36 3.68 0 3C2.97 2.01 5.94 1.02 9 0Z"/><path id="shape36" transform="matrix(0.720436379600373 0 0 0.71999999025059 379.382098132112 4.38514012637993)" fill="#6e7c21" stroke="#000000" stroke-opacity="0" stroke-width="0" stroke-linecap="square" stroke-linejoin="bevel" d="M3 0C5.97 0.33 8.94 0.66 12 1C12.66 1.66 13.32 2.32 14 3C11.69 3 9.38 3 7 3C7.99 3.66 8.98 4.32 10 5C7.36 5.99 4.72 6.98 2 8C2 7.34 2 6.68 2 6C1.34 6 0.68 6 0 6C0.66 4.35 1.32 2.7 2 1C2.33 0.67 2.66 0.34 3 0Z"/><path id="shape37" transform="matrix(0.720436379600373 0 0 0.71999999025059 159.649002353998 8.70514006788348)" fill="#58701b" stroke="#000000" stroke-opacity="0" stroke-width="0" stroke-linecap="square" stroke-linejoin="bevel" d="M16 0C18.97 0.99 21.94 1.98 25 3C25 3.33 25 3.66 25 4C16.75 4 8.5 4 0 4C0.99 3.01 1.98 2.02 3 1C6.96 1 10.92 1 15 1C15.33 0.67 15.66 0.34 16 0Z"/><path id="shape38" transform="matrix(0.720436379600373 0 0 0.71999999025059 3.31430798071705 2.94514014587875)" fill="#819f43" stroke="#000000" stroke-opacity="0" stroke-width="0" stroke-linecap="square" stroke-linejoin="bevel" d="M0 0C2.97 0 5.94 0 9 0C10.65 0.99 12.3 1.98 14 3C14 3.66 14 4.32 14 5C14.66 5.33 15.32 5.66 16 6C15.01 7.485 15.01 7.485 14 9C13.01 8.34 12.02 7.68 11 7C8.03 6.505 8.03 6.505 5 6C6.32 5.34 7.64 4.68 9 4C6.03 3.01 3.06 2.02 0 1C0 0.67 0 0.34 0 0Z"/><path id="shape39" transform="matrix(0.720436379600373 0 0 0.71999999025059 418.285662630532 9.42514005813407)" fill="#88512b" stroke="#000000" stroke-opacity="0" stroke-width="0" stroke-linecap="square" stroke-linejoin="bevel" d="M12 0C12.99 0.33 13.98 0.66 15 1C14.01 2.485 14.01 2.485 13 4C13.66 4.33 14.32 4.66 15 5C15 5.66 15 6.32 15 7C12.03 6.505 12.03 6.505 9 6C8.01 5.34 7.02 4.68 6 4C3.03 3.505 3.03 3.505 0 3C0.33 2.34 0.66 1.68 1 1C6.445 0.505 6.445 0.505 12 0Z"/><path id="shape40" transform="matrix(0.720436379600373 0 0 0.71999999025059 272.037077571656 7.26514008738225)" fill="#8c4c2b" stroke="#000000" stroke-opacity="0" stroke-width="0" stroke-linecap="square" stroke-linejoin="bevel" d="M2 0C4.97 0.33 7.94 0.66 11 1C11.66 1.66 12.32 2.32 13 3C11.02 3.99 11.02 3.99 9 5C9.66 5.66 10.32 6.32 11 7C7.37 6.34 3.74 5.68 0 5C0.66 3.35 1.32 1.7 2 0Z"/><path id="shape41" transform="matrix(0.720436379600373 0 0 0.71999999025059 411.081298834528 6.54514009713171)" fill="#a8a674" stroke="#000000" stroke-opacity="0" stroke-width="0" stroke-linecap="square" stroke-linejoin="bevel" d="M1 0C2.46373 0.216563 2.46373 0.216563 3.95703 0.4375C5.86549 0.715938 5.86549 0.715938 7.8125 1C9.07707 1.18562 10.3416 1.37125 11.6445 1.5625C12.7518 1.70688 13.8591 1.85125 15 2C15.99 2 16.98 2 18 2C18.8869 2 19.7737 2 20.6875 2C21.4506 2 22.2138 2 23 2C22.67 2.99 22.34 3.98 22 5C18.7 5 15.4 5 12 5C11.67 4.67 11.34 4.34 11 4C9.35 4 7.7 4 6 4C6 3.34 6 2.68 6 2C4.02 2.33 2.04 2.66 0 3C0.33 2.01 0.66 1.02 1 0Z"/><path id="shape42" transform="matrix(0.720436379600373 0 0 0.71999999025059 502.576719043775 8.70514006788348)" fill="#6a7f20" stroke="#000000" stroke-opacity="0" stroke-width="0" stroke-linecap="square" stroke-linejoin="bevel" d="M3 0C4.32 0.33 5.64 0.66 7 1C8.32 0.67 9.64 0.34 11 0C10.34 0.66 9.68 1.32 9 2C9.99 2.66 10.98 3.32 12 4C10.35 4.33 8.7 4.66 7 5C7 5.99 7 6.98 7 8C6.01 8 5.02 8 4 8C3.67 7.01 3.34 6.02 3 5C2.01 4.34 1.02 3.68 0 3C0.99 2.01 1.98 1.02 3 0Z"/><path id="shape43" transform="matrix(0.720436379600373 0 0 0.71999999025059 499.694973525374 3.66514013612933)" fill="#9ba464" stroke="#000000" stroke-opacity="0" stroke-width="0" stroke-linecap="square" stroke-linejoin="bevel" d="M2 0C4.97 0.33 7.94 0.66 11 1C11.33 2.32 11.66 3.64 12 5C7.545 5.495 7.545 5.495 3 6C2.01 5.01 1.02 4.02 0 3C0.66 2.01 1.32 1.02 2 0Z"/><path id="shape44" transform="matrix(0.720436379600373 0 0 0.71999999025059 16.2821628135238 6.54514009713171)" fill="#9f9668" stroke="#000000" stroke-opacity="0" stroke-width="0" stroke-linecap="square" stroke-linejoin="bevel" d="M4 0C6.31 0.66 8.62 1.32 11 2C11 2.33 11 2.66 11 3C15.29 3.33 19.58 3.66 24 4C24 4.33 24 4.66 24 5C17.07 5 10.14 5 3 5C2.01 4.34 1.02 3.68 0 3C1.32 2.01 2.64 1.02 4 0Z"/><path id="shape45" transform="matrix(0.720436379600373 0 0 0.71999999025059 285.004932404463 4.38514012637992)" fill="#738b2a" stroke="#000000" stroke-opacity="0" stroke-width="0" stroke-linecap="square" stroke-linejoin="bevel" d="M0 0C2.64 0 5.28 0 8 0C8.99 0.66 9.98 1.32 11 2C14.465 1.505 14.465 1.505 18 1C18.66 1.66 19.32 2.32 20 3C18.02 4.32 16.04 5.64 14 7C14 6.01 14 5.02 14 4C13.01 4.33 12.02 4.66 11 5C9.02 4.01 7.04 3.02 5 2C3.35 1.67 1.7 1.34 0 1C0 0.67 0 0.34 0 0Z"/><path id="shape46" transform="matrix(0.720436379600373 0 0 0.71999999025059 464.393590924955 2.94514014587875)" fill="#829f43" stroke="#000000" stroke-opacity="0" stroke-width="0" stroke-linecap="square" stroke-linejoin="bevel" d="M2 0C5.3 0 8.6 0 12 0C13.32 0.66 14.64 1.32 16 2C16 2.66 16 3.32 16 4C15.01 4.33 14.02 4.66 13 5C10.525 4.01 10.525 4.01 8 3C5.36 2.67 2.72 2.34 0 2C0.66 1.34 1.32 0.68 2 0Z"/><path id="shape47" transform="matrix(0.720436379600373 0 0 0.71999999025059 527.791992329788 6.54514009713171)" fill="#82903e" stroke="#000000" stroke-opacity="0" stroke-width="0" stroke-linecap="square" stroke-linejoin="bevel" d="M3 0C3.99 0.33 4.98 0.66 6 1C8.31 1 10.62 1 13 1C13 1.99 13 2.98 13 4C10.69 4 8.38 4 6 4C3.03 5.98 3.03 5.98 0 8C0.33 6.35 0.66 4.7 1 3C1.66 2.01 2.32 1.02 3 0Z"/><path id="shape48" transform="matrix(0.720436379600373 0 0 0.71999999025059 448.543990573747 9.38014005874338)" fill="#834f27" stroke="#000000" stroke-opacity="0" stroke-width="0" stroke-linecap="square" stroke-linejoin="bevel" d="M5 0.0625C6.25812 0.041875 7.51625 0.02125 8.8125 0C9.86437 0.020625 10.9162 0.04125 12 0.0625C12.33 1.0525 12.66 2.0425 13 3.0625C10.69 3.3925 8.38 3.7225 6 4.0625C5.01 4.5575 5.01 4.5575 4 5.0625C2.68 3.7425 1.36 2.4225 0 1.0625C0.680625 0.8975 1.36125 0.7325 2.0625 0.5625C3.03187 0.3975 4.00125 0.2325 5 0.0625Z"/><path id="shape49" transform="matrix(0.720436379600373 0 0 0.71999999025059 469.436645582158 12.3051400191363)" fill="#87552a" stroke="#000000" stroke-opacity="0" stroke-width="0" stroke-linecap="square" stroke-linejoin="bevel" d="M4 0C6.64 0 9.28 0 12 0C11.01 0.66 10.02 1.32 9 2C8.34 2 7.68 2 7 2C7 2.66 7 3.32 7 4C5.02 4.66 3.04 5.32 1 6C0.67 4.68 0.34 3.36 0 2C1.32 1.34 2.64 0.68 4 0Z"/><path id="shape50" transform="matrix(0.720436379600373 0 0 0.71999999025059 410.360862454928 9.42514005813407)" fill="#7d6226" stroke="#000000" stroke-opacity="0" stroke-width="0" stroke-linecap="square" stroke-linejoin="bevel" d="M4 0C5.98 0 7.96 0 10 0C10 1.32 10 2.64 10 4C7.36 4.33 4.72 4.66 2 5C1.34 4.67 0.68 4.34 0 4C0 3.34 0 2.68 0 2C1.32 1.34 2.64 0.68 4 0Z"/><path id="shape51" transform="matrix(0.720436379600373 0 0 0.71999999025059 483.124936794565 3.66514013612933)" fill="#e4ebd8" stroke="#000000" stroke-opacity="0" stroke-width="0" stroke-linecap="square" stroke-linejoin="bevel" d="M1 0C5.29 0.33 9.58 0.66 14 1C14.99 1.99 15.98 2.98 17 4C13.7 4 10.4 4 7 4C7 3.67 7 3.34 7 3C4.69 3 2.38 3 0 3C0.33 2.01 0.66 1.02 1 0Z"/><path id="shape52" transform="matrix(0.720436379600373 0 0 0.71999999025059 445.662245055346 9.42514005813407)" fill="#7d742e" stroke="#000000" stroke-opacity="0" stroke-width="0" stroke-linecap="square" stroke-linejoin="bevel" d="M3 0C4.98 0 6.96 0 9 0C7.02 0.99 7.02 0.99 5 2C5.99 2.99 6.98 3.98 8 5C7.67 5.33 7.34 5.66 7 6C5.02 6 3.04 6 1 6C0.67 5.01 0.34 4.02 0 3C0.99 2.01 1.98 1.02 3 0Z"/><path id="shape53" transform="matrix(0.720436379600373 0 0 0.71999999025059 18.4434719523249 13.0251400093871)" fill="#66761e" stroke="#000000" stroke-opacity="0" stroke-width="0" stroke-linecap="square" stroke-linejoin="bevel" d="M0 0C2.64 0 5.28 0 8 0C8 0.99 8 1.98 8 3C8.66 3 9.32 3 10 3C10 3.66 10 4.32 10 5C8.35 5 6.7 5 5 5C5 4.34 5 3.68 5 3C3.35 3.33 1.7 3.66 0 4C0 2.68 0 1.36 0 0Z"/><path id="shape54" transform="matrix(0.720436379600373 0 0 0.71999999025059 220.165658240429 6.54514009713171)" fill="#a3a870" stroke="#000000" stroke-opacity="0" stroke-width="0" stroke-linecap="square" stroke-linejoin="bevel" d="M6 0C8.475 0.99 8.475 0.99 11 2C11 2.66 11 3.32 11 4C10.01 4.495 10.01 4.495 9 5C6.36 5 3.72 5 1 5C0.67 3.68 0.34 2.36 0 1C0.99 1 1.98 1 3 1C3 1.99 3 2.98 3 4C3.99 2.68 4.98 1.36 6 0Z"/><path id="shape55" transform="matrix(0.720436379600373 0 0 0.71999999025059 481.684064035365 5.10514011663061)" fill="#95a25c" stroke="#000000" stroke-opacity="0" stroke-width="0" stroke-linecap="square" stroke-linejoin="bevel" d="M4 0C6.97 0 9.94 0 13 0C13.33 0.99 13.66 1.98 14 3C9.38 3 4.76 3 0 3C0 2.34 0 1.68 0 1C1.32 0.67 2.64 0.34 4 0Z"/><path id="shape56" transform="matrix(0.720436379600373 0 0 0.71999999025059 488.167991451768 2.94514014587875)" fill="#89a44d" stroke="#000000" stroke-opacity="0" stroke-width="0" stroke-linecap="square" stroke-linejoin="bevel" d="M1 0C3.31 0 5.62 0 8 0C9.65 0.99 11.3 1.98 13 3C12.01 4.485 12.01 4.485 11 6C10.34 5.67 9.68 5.34 9 5C8.34 4.34 7.68 3.68 7 3C4.69 2.67 2.38 2.34 0 2C0.33 1.34 0.66 0.68 1 0Z"/><path id="shape57" transform="matrix(0.720436379600373 0 0 0.71999999025059 442.060063157344 5.82514010688114)" fill="#8ea75a" stroke="#000000" stroke-opacity="0" stroke-width="0" stroke-linecap="square" stroke-linejoin="bevel" d="M1 0C3.64 0.33 6.28 0.66 9 1C7.02 1.99 7.02 1.99 5 3C5.66 3.66 6.32 4.32 7 5C5.68 5 4.36 5 3 5C2.67 5.66 2.34 6.32 2 7C1.34 6.01 0.68 5.02 0 4C0.33 2.68 0.66 1.36 1 0Z"/><path id="shape58" transform="matrix(0.720436379600373 0 0 0.71999999025059 492.49060972937 12.3051400191363)" fill="#706522" stroke="#000000" stroke-opacity="0" stroke-width="0" stroke-linecap="square" stroke-linejoin="bevel" d="M1 0C3.64 0.66 6.28 1.32 9 2C9.33 2.66 9.66 3.32 10 4C9.01 4.99 8.02 5.98 7 7C5.68 6.67 4.36 6.34 3 6C3 5.01 3 4.02 3 3C2.01 2.34 1.02 1.68 0 1C0.33 0.67 0.66 0.34 1 0Z"/><path id="shape59" transform="matrix(0.720436379600373 0 0 0.71999999025059 162.530747872399 4.38514012637993)" fill="#b5c792" stroke="#000000" stroke-opacity="0" stroke-width="0" stroke-linecap="square" stroke-linejoin="bevel" d="M0 0C3.96 0.33 7.92 0.66 12 1C10.68 2.32 9.36 3.64 8 5C6.35 4.67 4.7 4.34 3 4C3 3.34 3 2.68 3 2C2.01 1.67 1.02 1.34 0 1C0 0.67 0 0.34 0 0Z"/><path id="shape60" transform="matrix(0.720436379600373 0 0 0.71999999025059 151.003765798793 3.66514013612933)" fill="#919b55" stroke="#000000" stroke-opacity="0" stroke-width="0" stroke-linecap="square" stroke-linejoin="bevel" d="M3 0C5.31 0.33 7.62 0.66 10 1C10.66 1.66 11.32 2.32 12 3C11.67 3.66 11.34 4.32 11 5C7.37 5 3.74 5 0 5C0 4.67 0 4.34 0 4C2.64 3.67 5.28 3.34 8 3C5.525 2.01 5.525 2.01 3 1C3 0.67 3 0.34 3 0Z"/><path id="shape61" transform="matrix(0.720436379600373 0 0 0.71999999025059 367.855116058506 9.42514005813407)" fill="#89492b" stroke="#000000" stroke-opacity="0" stroke-width="0" stroke-linecap="square" stroke-linejoin="bevel" d="M6 0C6.99 0.33 7.98 0.66 9 1C9 1.99 9 2.98 9 4C8.34 4 7.68 4 7 4C6.67 4.66 6.34 5.32 6 6C5.01 5.01 4.02 4.02 3 3C2.01 2.34 1.02 1.68 0 1C1.98 0.67 3.96 0.34 6 0Z"/><path id="shape62" transform="matrix(0.720436379600373 0 0 0.71999999025059 357.0485703645 4.38514012637993)" fill="#8c4328" stroke="#000000" stroke-opacity="0" stroke-width="0" stroke-linecap="square" stroke-linejoin="bevel" d="M0 0C3.3 0 6.6 0 10 0C8.35 1.65 6.7 3.3 5 5C3.35 3.35 1.7 1.7 0 0Z"/><path id="shape63" transform="matrix(0.720436379600373 0 0 0.71999999025059 284.284496024862 4.38514012637993)" fill="#dfd3c6" stroke="#000000" stroke-opacity="0" stroke-width="0" stroke-linecap="square" stroke-linejoin="bevel" d="M0 0C4.455 0.99 4.455 0.99 9 2C9 2.66 9 3.32 9 4C6.03 4 3.06 4 0 4C0 2.68 0 1.36 0 0Z"/><path id="shape64" transform="matrix(0.720436379600373 0 0 0.71999999025059 263.391841016452 5.82514010688114)" fill="#9eaf6e" stroke="#000000" stroke-opacity="0" stroke-width="0" stroke-linecap="square" stroke-linejoin="bevel" d="M2 0C7.94 0.99 7.94 0.99 14 2C14 2.33 14 2.66 14 3C10.7 3 7.4 3 4 3C3.01 3.33 2.02 3.66 1 4C0.67 3.01 0.34 2.02 0 1C0.66 0.67 1.32 0.34 2 0Z"/><path id="shape65" transform="matrix(0.720436379600373 0 0 0.71999999025059 431.973953842939 5.10514011663061)" fill="#88a34e" stroke="#000000" stroke-opacity="0" stroke-width="0" stroke-linecap="square" stroke-linejoin="bevel" d="M0 0C2.31 0 4.62 0 7 0C7.99 0.99 8.98 1.98 10 3C9.67 3.99 9.34 4.98 9 6C7.35 5.67 5.7 5.34 4 5C4.66 4.34 5.32 3.68 6 3C4.02 2.34 2.04 1.68 0 1C0 0.67 0 0.34 0 0Z"/><path id="shape66" transform="matrix(0.720436379600373 0 0 0.71999999025059 202.15474875042 6.54514009713171)" fill="#abbc84" stroke="#000000" stroke-opacity="0" stroke-width="0" stroke-linecap="square" stroke-linejoin="bevel" d="M3 0C4.65 0.33 6.3 0.66 8 1C7.34 2.32 6.68 3.64 6 5C5.01 5 4.02 5 3 5C3 4.34 3 3.68 3 3C2.01 2.67 1.02 2.34 0 2C0.99 1.34 1.98 0.68 3 0Z"/><path id="shape67" transform="matrix(0.720436379600373 0 0 0.71999999025059 45.820054377139 4.38514012637993)" fill="#c9d5b0" stroke="#000000" stroke-opacity="0" stroke-width="0" stroke-linecap="square" stroke-linejoin="bevel" d="M8 0C9.65 0.33 11.3 0.66 13 1C12.01 1.66 11.02 2.32 10 3C8.36031 3.2475 8.36031 3.2475 6.6875 3.5C5.47063 3.665 4.25375 3.83 3 4C2.01 4 1.02 4 0 4C0.66 3.01 1.32 2.02 2 1C4.97 1.495 4.97 1.495 8 2C8 1.34 8 0.68 8 0Z"/><path id="shape68" transform="matrix(0.720436379600373 0 0 0.71999999025059 3.31430798071705 7.26514008738225)" fill="#9ea66f" stroke="#000000" stroke-opacity="0" stroke-width="0" stroke-linecap="square" stroke-linejoin="bevel" d="M3 0C4.98 0.66 6.96 1.32 9 2C9 2.66 9 3.32 9 4C6.03 4 3.06 4 0 4C0.33 3.01 0.66 2.02 1 1C1.66 0.67 2.32 0.34 3 0Z"/><path id="shape69" transform="matrix(0.720436379600373 0 0 0.71999999025059 370.736861576907 3.66514013612933)" fill="#6e8d24" stroke="#000000" stroke-opacity="0" stroke-width="0" stroke-linecap="square" stroke-linejoin="bevel" d="M0 0C2.31 0 4.62 0 7 0C8.32 0.99 9.64 1.98 11 3C10.67 3.66 10.34 4.32 10 5C5.05 3.02 5.05 3.02 0 1C0 0.67 0 0.34 0 0Z"/><path id="shape70" transform="matrix(0.720436379600373 0 0 0.71999999025059 514.824137496982 5.82514010688114)" fill="#869544" stroke="#000000" stroke-opacity="0" stroke-width="0" stroke-linecap="square" stroke-linejoin="bevel" d="M0 0C3.63 0 7.26 0 11 0C10.01 1.485 10.01 1.485 9 3C7.35 3 5.7 3 4 3C2.68 2.01 1.36 1.02 0 0Z"/><path id="shape71" transform="matrix(0.720436379600373 0 0 0.71999999025059 381.543407270913 4.38514012637993)" fill="#8f9a52" stroke="#000000" stroke-opacity="0" stroke-width="0" stroke-linecap="square" stroke-linejoin="bevel" d="M0 0C2.97 0.33 5.94 0.66 9 1C9.66 1.66 10.32 2.32 11 3C8.69 3 6.38 3 4 3C3.01 3.33 2.02 3.66 1 4C0.67 2.68 0.34 1.36 0 0Z"/><path id="shape72" transform="matrix(0.720436379600373 0 0 0.71999999025059 222.32696737923 2.22514015562827)" fill="#9bb269" stroke="#000000" stroke-opacity="0" stroke-width="0" stroke-linecap="square" stroke-linejoin="bevel" d="M3 0C5.64 0.33 8.28 0.66 11 1C10.34 1.66 9.68 2.32 9 3C6.03 2.67 3.06 2.34 0 2C0.99 1.34 1.98 0.68 3 0Z"/><path id="shape73" transform="matrix(0.720436379600373 0 0 0.71999999025059 259.78965911845 13.0251400093871)" fill="#53671a" stroke="#000000" stroke-opacity="0" stroke-width="0" stroke-linecap="square" stroke-linejoin="bevel" d="M5 0C6.65 0.33 8.3 0.66 10 1C8.68 1.99 7.36 2.98 6 4C4.35 4 2.7 4 1 4C0.67 3.34 0.34 2.68 0 2C1.65 2 3.3 2 5 2C5 1.34 5 0.68 5 0Z"/><path id="shape74" transform="matrix(0.720436379600373 0 0 0.71999999025059 178.380348223608 5.82514010688114)" fill="#a5b376" stroke="#000000" stroke-opacity="0" stroke-width="0" stroke-linecap="square" stroke-linejoin="bevel" d="M0 0C1.65 0 3.3 0 5 0C5 1.32 5 2.64 5 4C3.35 4 1.7 4 0 4C0 2.68 0 1.36 0 0Z"/><path id="shape75" transform="matrix(0.720436379600373 0 0 0.71999999025059 469.436645582158 13.0251400093871)" fill="#69771f" stroke="#000000" stroke-opacity="0" stroke-width="0" stroke-linecap="square" stroke-linejoin="bevel" d="M1 0C2.98 0.66 4.96 1.32 7 2C5.68 2.99 4.36 3.98 3 5C2.34 5 1.68 5 1 5C0.67 3.68 0.34 2.36 0 1C0.33 0.67 0.66 0.34 1 0Z"/><path id="shape76" transform="matrix(0.720436379600373 0 0 0.71999999025059 208.638676166823 7.26514008738225)" fill="#9ead6e" stroke="#000000" stroke-opacity="0" stroke-width="0" stroke-linecap="square" stroke-linejoin="bevel" d="M0 0C1.32 0 2.64 0 4 0C4.99 1.32 5.98 2.64 7 4C6.01 4.33 5.02 4.66 4 5C3.01 4.67 2.02 4.34 1 4C0.67 2.68 0.34 1.36 0 0Z"/><path id="shape77" transform="matrix(0.720436379600373 0 0 0.71999999025059 542.921156301396 9.42514005813407)" fill="#706d21" stroke="#000000" stroke-opacity="0" stroke-width="0" stroke-linecap="square" stroke-linejoin="bevel" d="M5 0C5.66 0.66 6.32 1.32 7 2C6.34 2 5.68 2 5 2C5 2.99 5 3.98 5 5C2.525 4.01 2.525 4.01 0 3C0.33 2.34 0.66 1.68 1 1C2.32 0.67 3.64 0.34 5 0Z"/><path id="shape78" transform="matrix(0.720436379600373 0 0 0.71999999025059 321.747187764082 2.94514014587875)" fill="#dfdcce" stroke="#000000" stroke-opacity="0" stroke-width="0" stroke-linecap="square" stroke-linejoin="bevel" d="M1 0C3.97 0.495 3.97 0.495 7 1C7.33 1.66 7.66 2.32 8 3C5.36 3 2.72 3 0 3C0.33 2.01 0.66 1.02 1 0Z"/><path id="shape79" transform="matrix(0.720436379600373 0 0 0.71999999025059 319.585878625281 1.50514016537758)" fill="#95ac62" stroke="#000000" stroke-opacity="0" stroke-width="0" stroke-linecap="square" stroke-linejoin="bevel" d="M3 0C4.98 0 6.96 0 9 0C8.67 0.99 8.34 1.98 8 3C5.36 2.67 2.72 2.34 0 2C0.99 1.34 1.98 0.68 3 0Z"/><path id="shape80" transform="matrix(0.720436379600373 0 0 0.71999999025059 515.544573876582 10.8651400386353)" fill="#806227" stroke="#000000" stroke-opacity="0" stroke-width="0" stroke-linecap="square" stroke-linejoin="bevel" d="M3 0C5.97 0.495 5.97 0.495 9 1C8.34 1.66 7.68 2.32 7 3C4.69 2.67 2.38 2.34 0 2C0.99 1.34 1.98 0.68 3 0Z"/><path id="shape81" transform="matrix(0.720436379600373 0 0 0.71999999025059 31.4113267851316 9.42514005813407)" fill="#5e7715" stroke="#000000" stroke-opacity="0" stroke-width="0" stroke-linecap="square" stroke-linejoin="bevel" d="M3 0C5.31 0 7.62 0 10 0C10 0.33 10 0.66 10 1C8.35 1.33 6.7 1.66 5 2C4.67 2.66 4.34 3.32 4 4C2.68 3.34 1.36 2.68 0 2C0.99 1.34 1.98 0.68 3 0Z"/><path id="shape82" transform="matrix(0.720436379600373 0 0 0.71999999025059 442.780499536944 7.26514008738225)" fill="#809f41" stroke="#000000" stroke-opacity="0" stroke-width="0" stroke-linecap="square" stroke-linejoin="bevel" d="M1 0C1.66 0 2.32 0 3 0C3 0.66 3 1.32 3 2C3.99 2.33 4.98 2.66 6 3C4.68 3 3.36 3 2 3C1.67 3.66 1.34 4.32 1 5C0.67 3.68 0.34 2.36 0 1C0.33 0.67 0.66 0.34 1 0Z"/><path id="shape83" transform="matrix(0.720436379600373 0 0 0.71999999025059 266.994022914453 7.9851400776328)" fill="#914a31" stroke="#000000" stroke-opacity="0" stroke-width="0" stroke-linecap="square" stroke-linejoin="bevel" d="M0 0C2.31 0 4.62 0 7 0C5.515 1.485 5.515 1.485 4 3C2.68 2.67 1.36 2.34 0 2C0 1.34 0 0.68 0 0Z"/><path id="shape84" transform="matrix(0.720436379600373 0 0 0.71999999025059 420.446971769333 7.26514008738225)" fill="#dfe7d0" stroke="#000000" stroke-opacity="0" stroke-width="0" stroke-linecap="square" stroke-linejoin="bevel" d="M1 0C2.98 0.495 2.98 0.495 5 1C5.66 1.66 6.32 2.32 7 3C4.69 3 2.38 3 0 3C0.33 2.01 0.66 1.02 1 0Z"/><path id="shape85" transform="matrix(0.720436379600373 0 0 0.71999999025059 281.402750506461 7.26514008738225)" fill="#8e4229" stroke="#000000" stroke-opacity="0" stroke-width="0" stroke-linecap="square" stroke-linejoin="bevel" d="M0 0C2.97 0 5.94 0 9 0C7.02 0.99 7.02 0.99 5 2C4.01 2 3.02 2 2 2C1.34 1.34 0.68 0.68 0 0Z"/><path id="shape86" transform="matrix(0.720436379600373 0 0 0.71999999025059 153.165074937595 8.70514006788348)" fill="#7d5c27" stroke="#000000" stroke-opacity="0" stroke-width="0" stroke-linecap="square" stroke-linejoin="bevel" d="M2 0C3.65 0.33 5.3 0.66 7 1C5.02 1.99 5.02 1.99 3 3C2.01 2.67 1.02 2.34 0 2C0.66 1.34 1.32 0.68 2 0Z"/><path id="shape87" transform="matrix(0.720436379600373 0 0 0.71999999025059 415.40391711213 7.26514008738225)" fill="#c3c29e" stroke="#000000" stroke-opacity="0" stroke-width="0" stroke-linecap="square" stroke-linejoin="bevel" d="M2 0C3.32 0.66 4.64 1.32 6 2C5.67 2.33 5.34 2.66 5 3C3.35 3 1.7 3 0 3C0.66 2.67 1.32 2.34 2 2C2 1.34 2 0.68 2 0Z"/><path id="shape88" transform="matrix(0.720436379600373 0 0 0.71999999025059 489.608864210969 50.4651395024177)" fill="#29180b" stroke="#000000" stroke-opacity="0" stroke-width="0" stroke-linecap="square" stroke-linejoin="bevel" d="M0 0C0.99 0.33 1.98 0.66 3 1C2.01 1.99 1.02 2.98 0 4C0 2.68 0 1.36 0 0Z"/><path id="shape89" transform="matrix(0.720436379600373 0 0 0.71999999025059 273.477950330857 50.4651395024177)" fill="#2f1c0b" stroke="#000000" stroke-opacity="0" stroke-width="0" stroke-linecap="square" stroke-linejoin="bevel" d="M0 0C0.99 0.33 1.98 0.66 3 1C2.01 1.99 1.02 2.98 0 4C0 2.68 0 1.36 0 0Z"/><path id="shape90" transform="matrix(0.720436379600373 0 0 0.71999999025059 109.218455781972 13.7451399996377)" fill="#744b23" stroke="#000000" stroke-opacity="0" stroke-width="0" stroke-linecap="square" stroke-linejoin="bevel" d="M1 0C1.99 0 2.98 0 4 0C4 0.99 4 1.98 4 3C2.68 2.67 1.36 2.34 0 2C0.33 1.34 0.66 0.68 1 0Z"/><path id="shape91" transform="matrix(0.720436379600373 0 0 0.71999999025059 296.531914478069 5.1051401166306)" fill="#7f9c41" stroke="#000000" stroke-opacity="0" stroke-width="0" stroke-linecap="square" stroke-linejoin="bevel" d="M0 0C1.98 0.99 1.98 0.99 4 2C2.02 2.99 2.02 2.99 0 4C0 2.68 0 1.36 0 0Z"/><path id="shape92" transform="matrix(0.720436379600373 0 0 0.71999999025059 223.047403758831 6.54514009713171)" fill="#bfcea4" stroke="#000000" stroke-opacity="0" stroke-width="0" stroke-linecap="square" stroke-linejoin="bevel" d="M2 0C2.99 0.66 3.98 1.32 5 2C3.515 2.99 3.515 2.99 2 4C1.34 3.34 0.68 2.68 0 2C0.66 1.34 1.32 0.68 2 0Z"/><path id="shape93" transform="matrix(0.720436379600373 0 0 0.71999999025059 175.498602705206 7.26514008738225)" fill="#63801d" stroke="#000000" stroke-opacity="0" stroke-width="0" stroke-linecap="square" stroke-linejoin="bevel" d="M3 0C3.66 1.32 4.32 2.64 5 4C2.525 3.01 2.525 3.01 0 2C0.99 1.34 1.98 0.68 3 0Z"/><path id="shape94" transform="matrix(0.720436379600373 0 0 0.71999999025059 63.8309638671484 5.1051401166306)" fill="#a0b476" stroke="#000000" stroke-opacity="0" stroke-width="0" stroke-linecap="square" stroke-linejoin="bevel" d="M1 0C1.99 0 2.98 0 4 0C4 0.66 4 1.32 4 2C2.02 2.99 2.02 2.99 0 4C0.33 2.68 0.66 1.36 1 0Z"/><path id="shape95" transform="matrix(0.720436379600373 0 0 0.71999999025059 234.574385832437 3.66514013612933)" fill="#8da65a" stroke="#000000" stroke-opacity="0" stroke-width="0" stroke-linecap="square" stroke-linejoin="bevel" d="M1 0C1.99 0.33 2.98 0.66 4 1C2.68 1.99 1.36 2.98 0 4C0.33 2.68 0.66 1.36 1 0Z"/><path id="shape96" transform="matrix(0.720436379600373 0 0 0.71999999025059 483.845373174166 55.5051394341719)" fill="#402509" stroke="#000000" stroke-opacity="0" stroke-width="0" stroke-linecap="square" stroke-linejoin="bevel" d="M1 0C1.66 0 2.32 0 3 0C2.67 0.99 2.34 1.98 2 3C1.34 3 0.68 3 0 3C0.33 2.01 0.66 1.02 1 0Z"/><path id="shape97" transform="matrix(0.720436379600373 0 0 0.71999999025059 51.583545413942 55.5051394341719)" fill="#402509" stroke="#000000" stroke-opacity="0" stroke-width="0" stroke-linecap="square" stroke-linejoin="bevel" d="M1 0C1.66 0 2.32 0 3 0C2.67 0.99 2.34 1.98 2 3C1.34 3 0.68 3 0 3C0.33 2.01 0.66 1.02 1 0Z"/>
</svg>
