<?xml version="1.0" standalone="no"?>
<!DOCTYPE svg PUBLIC "-//W3C//DTD SVG 20010904//EN" "http://www.w3.org/TR/2001/REC-SVG-20010904/DTD/svg10.dtd">
<!-- Created using Krita: https://krita.org -->
<svg xmlns="http://www.w3.org/2000/svg" 
    xmlns:xlink="http://www.w3.org/1999/xlink"
    xmlns:krita="http://krita.org/namespaces/svg/krita"
    xmlns:sodipodi="http://sodipodi.sourceforge.net/DTD/sodipodi-0.dtd"
    width="576pt"
    height="77.76pt"
    viewBox="0 0 576 77.76">
<defs/>
<path id="shape0" transform="matrix(0.72 0 0 0.72 -5.61772850460329e-14 27.4092240073718)" fill="#3c2b13" stroke="#000000" stroke-opacity="0" stroke-width="0" stroke-linecap="square" stroke-linejoin="bevel" d="M397 0C399.97 0 402.94 0 406 0C407.578 0.835312 407.578 0.835312 409.188 1.6875C409.909 2.04844 410.631 2.40937 411.375 2.78125C412.241 3.18344 413.108 3.58563 414 4C415.609 4.66516 415.609 4.66516 417.25 5.34375C418.384 5.78719 419.519 6.23062 420.688 6.6875C421.764 7.10387 422.84 7.52023 423.949 7.94922C424.956 8.29598 425.963 8.64273 427 9C428.433 9.31904 428.433 9.31904 429.895 9.64453C430.589 9.76184 431.284 9.87914 432 10C432.949 9.73188 433.897 9.46375 434.875 9.1875C436.236 8.79562 437.597 8.40375 439 8C439.888 7.73574 440.776 7.47148 441.691 7.19922C442.598 6.92723 443.504 6.65523 444.438 6.375C445.302 6.11461 446.167 5.85422 447.059 5.58594C447.699 5.39258 448.34 5.19922 449 5C449.99 5 450.98 5 452 5C453.98 5.99 453.98 5.99 456 7C456 7.66 456 8.32 456 9C457.32 8.67 458.64 8.34 460 8C464.29 8 468.58 8 473 8C474.98 9.32 476.96 10.64 479 12C479 12.66 479 13.32 479 14C479.866 13.8556 480.733 13.7112 481.625 13.5625C482.739 13.3769 483.853 13.1913 485 13C486.114 12.8144 487.228 12.6288 488.375 12.4375C489.241 12.2931 490.108 12.1487 491 12C492.98 13.485 492.98 13.485 495 15C497.31 15 499.62 15 502 15C505.96 13.68 509.92 12.36 514 11C517.3 10.67 520.6 10.34 524 10C527.96 10.99 527.96 10.99 532 12C532 12.66 532 13.32 532 14C532.629 13.8556 533.258 13.7112 533.906 13.5625C534.762 13.3769 535.618 13.1913 536.5 13C537.857 12.7254 537.857 12.7254 539.242 12.4453C540.152 12.2984 541.062 12.1514 542 12C542.807 11.9562 543.614 11.9123 544.445 11.8672C545.524 11.8711 545.524 11.8711 546.625 11.875C548.296 11.9369 548.296 11.9369 550 12C552.475 12.99 552.475 12.99 555 14C556.32 13.67 557.64 13.34 559 13C559.66 12.67 560.32 12.34 561 12C563.97 12 566.94 12 570 12C570.887 12.4125 571.774 12.825 572.688 13.25C573.322 13.522 573.956 13.794 574.609 14.0742C575.398 14.3797 576.187 14.6852 577 15C578.016 15.3364 579.032 15.6729 580.078 16.0195C581.187 16.3637 582.295 16.7079 583.438 17.0625C585.112 17.5672 585.112 17.5672 586.82 18.082C588.394 18.5364 588.394 18.5364 590 19C590.864 19.2307 591.727 19.4615 592.617 19.6992C593.342 19.881 594.066 20.0627 594.813 20.25C595.864 20.4975 596.916 20.745 598 21C599.32 19.35 600.64 17.7 602 16C602.895 15.8788 603.789 15.7577 604.711 15.6328C605.92 15.4652 607.129 15.2977 608.375 15.125C609.643 14.9445 610.912 14.7641 612.219 14.5781C614.09 14.292 614.09 14.292 616 14C617.042 13.8092 618.083 13.6184 619.156 13.4219C620.502 13.1512 620.502 13.1512 621.875 12.875C623.236 12.5862 624.597 12.2975 626 12C629.96 12.33 633.92 12.66 638 13C638.33 13.66 638.66 14.32 639 15C640.32 15.33 641.64 15.66 643 16C643.33 15.67 643.66 15.34 644 15C647.3 14.67 650.6 14.34 654 14C655.65 12.68 657.3 11.36 659 10C660.446 9.69256 660.446 9.69256 661.922 9.37891C663.817 8.97479 663.817 8.97479 665.75 8.5625C667.003 8.29566 668.256 8.02883 669.547 7.75391C671.256 7.38072 671.256 7.38072 673 7C674.32 6.67 675.64 6.34 677 6C678.98 6.33 680.96 6.66 683 7C683 7.66 683 8.32 683 9C684.65 8.34 686.3 7.68 688 7C691.3 7 694.6 7 698 7C701.96 9.475 701.96 9.475 706 12C706 12.99 706 13.98 706 15C708.31 13.35 710.62 11.7 713 10C713.99 10.33 714.98 10.66 716 11C717.733 11.7116 717.733 11.7116 719.5 12.4375C721.233 13.2109 721.233 13.2109 723 14C723.99 14.66 724.98 15.32 726 16C727.32 15.34 728.64 14.68 730 14C731.196 13.7525 732.392 13.505 733.625 13.25C734.431 13.0721 735.236 12.8942 736.066 12.7109C737.034 12.4763 738.003 12.2417 739 12C740.226 11.6623 741.452 11.3245 742.715 10.9766C743.985 10.613 745.254 10.2495 746.563 9.875C748.39 9.3452 748.39 9.3452 750.254 8.80469C751.16 8.53914 752.066 8.27359 753 8C755.97 8.33 758.94 8.66 762 9C764.475 10.485 764.475 10.485 767 12C768.485 11.505 768.485 11.505 770 11C773.96 11 777.92 11 782 11C784.97 11.99 787.94 12.98 791 14C791 13.34 791 12.68 791 12C795.455 11.505 795.455 11.505 800 11C800 30.47 800 49.94 800 70C536 70 272 70 0 70C0 50.2 0 30.4 0 10C2.64 9.67 5.28 9.34 8 9C8.99 8.34 9.98 7.68 11 7C16.94 6.505 16.94 6.505 23 6C24.32 6.66 25.64 7.32 27 8C31.95 8 36.9 8 42 8C44.64 9.98 47.28 11.96 50 14C51.65 13.67 53.3 13.34 55 13C55.66 12.67 56.32 12.34 57 12C58.98 12 60.96 12 63 12C63.99 12.99 64.98 13.98 66 15C68.31 15 70.62 15 73 15C76.96 13.68 80.92 12.36 85 11C89.455 10.505 89.455 10.505 94 10C96.64 10.99 99.28 11.98 102 13C103.736 12.9826 103.736 12.9826 105.508 12.9648C106.248 12.9603 106.988 12.9558 107.75 12.9512C108.534 12.9467 109.317 12.9421 110.125 12.9375C111.266 12.9249 111.266 12.9249 112.43 12.9121C113.177 12.9089 113.925 12.9057 114.695 12.9023C116.116 12.9346 117.536 12.9668 119 13C120.76 13.2494 120.76 13.2494 122.555 13.5039C123.362 13.6676 124.169 13.8313 125 14C125 14.66 125 15.32 125 16C127.97 14.68 130.94 13.36 134 12C136.31 12 138.62 12 141 12C142.98 12.99 142.98 12.99 145 14C147.64 14.66 150.28 15.32 153 16C154.98 16.99 156.96 17.98 159 19C159.99 19.99 160.98 20.98 162 22C168.93 22.495 168.93 22.495 176 23C174.02 22.01 172.04 21.02 170 20C170.66 18.68 171.32 17.36 172 16C172.978 15.8788 173.957 15.7577 174.965 15.6328C176.931 15.3814 176.931 15.3814 178.938 15.125C180.299 14.9445 181.66 14.7641 183.063 14.5781C184.362 14.3873 185.661 14.1966 187 14C188.485 13.7138 188.485 13.7138 190 13.4219C191.207 13.1512 191.207 13.1512 192.438 12.875C193.613 12.5862 194.789 12.2975 196 12C201.94 12.495 201.94 12.495 208 13C208.33 13.66 208.66 14.32 209 15C210.32 14.67 211.64 14.34 213 14C213.851 13.8956 214.702 13.7912 215.578 13.6836C216.901 13.5618 216.901 13.5618 218.25 13.4375C219.142 13.3537 220.034 13.2699 220.953 13.1836C221.629 13.123 222.304 13.0624 223 13C224.32 12.01 225.64 11.02 227 10C228.763 9.81438 228.763 9.81438 230.563 9.625C232.027 9.41875 233.491 9.2125 235 9C236.32 8.64938 237.64 8.29875 239 7.9375C239.99 7.62812 240.98 7.31875 242 7C243.98 7.495 243.98 7.495 246 8C246.99 9.32 247.98 10.64 249 12C248.34 14.97 247.68 17.94 247 21C247.33 21.66 247.66 22.32 248 23C249.32 23.33 250.64 23.66 252 24C252.66 22.35 253.32 20.7 254 19C254.99 18.67 255.98 18.34 257 18C257.33 15.03 257.66 12.06 258 9C261.63 9 265.26 9 269 9C269.887 9.61875 270.774 10.2375 271.688 10.875C273.327 11.9269 273.327 11.9269 275 13C275.949 13.4125 276.897 13.825 277.875 14.25C278.576 14.4975 279.278 14.745 280 15C281.65 14.01 283.3 13.02 285 12C286.98 12 288.96 12 291 12C292.98 13.485 292.98 13.485 295 15C295.715 14.902 296.431 14.8041 297.168 14.7031C298.164 14.5536 299.161 14.4041 300.188 14.25C301.278 14.0708 302.369 13.8916 303.492 13.707C304.65 13.4737 305.807 13.2404 307 13C308.705 12.5108 308.705 12.5108 310.445 12.0117C311.556 11.6572 312.668 11.3027 313.813 10.9375C314.885 10.5907 315.957 10.244 317.063 9.88672C318.032 9.5941 319.001 9.30148 320 9C321.423 8.7525 322.846 8.505 324.313 8.25C325.199 8.1675 326.086 8.085 327 8C330.96 8.99 330.96 8.99 335 10C335.66 10.66 336.32 11.32 337 12C337.99 11.835 338.98 11.67 340 11.5C341.98 11.2525 341.98 11.2525 344 11C345.856 10.9381 345.856 10.9381 347.75 10.875C349.854 10.9369 349.854 10.9369 352 11C352.893 11.0748 353.787 11.1495 354.707 11.2266C355.649 11.3168 356.592 11.407 357.563 11.5C358.951 11.6373 358.951 11.6373 360.367 11.7773C361.236 11.8508 362.105 11.9243 363 12C365.073 12.0309 365.073 12.0309 367.188 12.0625C368.58 12.0316 368.58 12.0316 370 12C371.65 12.66 373.3 13.32 375 14C377.97 14 380.94 14 384 14C385.65 12.68 387.3 11.36 389 10C389.615 9.16855 389.615 9.16855 390.242 8.32031C391.05 7.23363 391.05 7.23363 391.875 6.125C392.409 5.4057 392.942 4.68641 393.492 3.94531C393.99 3.30336 394.487 2.66141 395 2C395.66 1.34 396.32 0.68 397 0Z"/><path id="shape1" transform="matrix(0.72 0 0 0.72 -5.61772850460329e-14 7.96922400737182)" fill="#9d6e38" stroke="#000000" stroke-opacity="0" stroke-width="0" stroke-linecap="square" stroke-linejoin="bevel" d="M513 0C516.3 0 519.6 0 523 0C521.68 0.66 520.36 1.32 519 2C517.832 2.42152 517.832 2.42152 516.641 2.85156C515.852 3.1068 515.063 3.36203 514.25 3.625C512.847 4.07875 511.445 4.5325 510 5C510.99 5 511.98 5 513 5C514.32 5.14438 515.64 5.28875 517 5.4375C518.32 5.62312 519.64 5.80875 521 6C521.99 6.33 522.98 6.66 524 7C526.97 5.515 526.97 5.515 530 4C531.088 3.92781 574.98 6.32 576 7C576 7.66 576 8.32 576 9C580.95 8.67 585.9 8.34 591 8C591.66 7.67 592.32 7.34 593 7C598.28 7 603.56 7 609 7C610.32 7.33 674.065 7.83 675 8C676.485 7.505 676.485 7.505 678 7C684.6 7 691.2 7 698 7C698.66 6.67 699.32 6.34 700 6C705.61 6 711.22 6 717 6C717.66 6.33 718.32 6.66 719 7C720.188 6.99214 750.286 7.83208 751 8C752.32 7.01 753.64 6.02 755 5C756.485 4.505 756.485 4.505 758 4C759.076 3.92781 783.183 2.79123 784.582 2.76953C785.71 2.84559 786.838 2.92164 788 3C791.96 3.66 795.92 4.32 800 5C800 15.89 800 26.78 800 38C799.67 38.33 799.34 38.66 799 39C796.36 39 793.72 39 791 39C791 39.66 791 40.32 791 41C788.03 40.34 785.06 39.68 782 39C778.04 39 774.08 39 770 39C768.68 39.33 767.36 39.66 766 40C764.68 39.01 763.36 38.02 762 37C759.03 36.67 756.06 36.34 753 36C751.949 36.3377 726.515 43.495 725 44C722.525 42.02 722.525 42.02 720 40C719.051 39.835 718.102 39.67 717.125 39.5C716.094 39.335 715.063 39.17 714 39C713.34 39 712.68 39 712 39C710.68 39.99 709.36 40.98 708 42C707.34 42 706.68 42 706 42C705.34 40.68 704.68 39.36 704 38C701.03 36.515 673.34 34.66 673 35C671.546 35.1547 647.4 42.66 644 43C643.34 43.33 642.68 43.66 642 44C640.68 43.34 639.36 42.68 638 42C638 41.34 638 40.68 638 40C634.04 40 599.36 47.3 598 49C596.618 48.5875 571.067 40.4438 570 40C567.03 40 564.06 40 561 40C560.01 40.66 559.02 41.32 558 42C556.02 41.67 534.788 40.6856 533.906 40.7813C533.277 40.8534 532.648 40.9256 532 41C532 40.34 532 39.68 532 39C528.37 38.67 524.74 38.34 521 38C519.721 38.2681 502.636 42.8008 502 43C499.69 43 497.38 43 495 43C493.68 42.01 492.36 41.02 491 40C490.092 40.1444 489.185 40.2888 488.25 40.4375C487.178 40.6231 486.105 40.8088 485 41C483.68 41.33 482.36 41.66 481 42C479.02 40.35 477.04 38.7 475 37C474.34 36.67 473.68 36.34 473 36C467.39 36 432.978 37.7238 432 38C431.051 37.8627 410.279 30.5087 409 30C408.01 29.34 407.02 28.68 406 28C403.03 28 400.06 28 397 28C396.113 29.0313 384.68 41.66 384 42C381.03 42 378.06 42 375 42C373.35 41.34 371.7 40.68 370 40C369.203 40.0116 368.407 40.0232 367.586 40.0352C366.526 40.0442 365.467 40.0532 364.375 40.0625C363.274 40.0638 362.173 40.0651 361.039 40.0664C360.036 40.0445 359.033 40.0226 358 40C356.391 39.7525 356.391 39.7525 354.75 39.5C353.842 39.335 352.935 39.17 352 39C350.721 38.9588 349.442 38.9175 348.125 38.875C346.764 38.9162 345.403 38.9575 344 39C343.245 39.0748 342.489 39.1495 341.711 39.2266C340.981 39.3168 340.252 39.407 339.5 39.5C338.345 39.665 337.19 39.83 336 40C335.67 39.01 335.34 38.02 335 37C331.37 36.67 327.74 36.34 324 36C322.55 36.3983 322.55 36.3983 321.07 36.8047C319.117 37.3345 319.117 37.3345 317.125 37.875C315.76 38.2398 314.395 38.6046 312.988 38.9805C311.672 39.3169 310.356 39.6534 309 40C307.983 40.223 306.966 40.446 305.918 40.6758C304.628 40.9291 304.628 40.9291 303.313 41.1875C301.889 41.4556 300.466 41.7238 299 42C297.68 42.33 296.36 42.66 295 43C293.68 42.01 292.36 41.02 291 40C289.02 40 287.04 40 285 40C283.02 40.99 281.04 41.98 279 43C278.278 42.5669 277.556 42.1337 276.813 41.6875C275.884 41.1306 274.956 40.5737 274 40C273.072 39.4431 272.144 38.8862 271.188 38.3125C270.466 37.8794 269.744 37.4462 269 37C265.37 36.67 261.74 36.34 258 36C258 38.97 258 41.94 258 45C256.68 45.66 255.36 46.32 254 47C253.34 48.32 252.68 49.64 252 51C250.35 50.67 248.7 50.34 247 50C246.67 48.35 246.34 46.7 246 45C246.99 42.03 246.99 42.03 248 39C247.01 37.68 246.02 36.36 245 35C240.545 35.495 240.545 35.495 236 36C235.67 36.33 235.34 36.66 235 37C232.36 37.33 229.72 37.66 227 38C225.68 38.99 224.36 39.98 223 41C222.325 41.0606 221.649 41.1212 220.953 41.1836C220.061 41.2674 219.169 41.3512 218.25 41.4375C217.368 41.5187 216.487 41.5999 215.578 41.6836C214.727 41.788 213.877 41.8924 213 42C211.68 42.33 210.36 42.66 209 43C208.67 42.01 208.34 41.02 208 40C204.04 40 200.08 40 196 40C195.105 40.205 194.211 40.4099 193.289 40.6211C192.08 40.8905 190.871 41.1599 189.625 41.4375C188.357 41.7108 187.088 41.9841 185.781 42.2656C184.533 42.508 183.286 42.7503 182 43C180.958 43.1392 179.917 43.2784 178.844 43.4219C177.947 43.5095 177.049 43.5972 176.125 43.6875C174.764 43.7906 173.402 43.8937 172 44C171.34 44.99 170.68 45.98 170 47C172.97 47.99 172.97 47.99 176 49C176.33 49.66 176.66 50.32 177 51C172.05 50.67 167.1 50.34 162 50C160.02 48.02 160.02 48.02 158 46C157.01 45.5463 156.02 45.0925 155 44.625C153.68 44.0887 152.36 43.5525 151 43C150.259 42.7873 149.518 42.5746 148.754 42.3555C148.031 42.1763 147.308 41.9971 146.563 41.8125C145.387 41.5444 144.211 41.2762 143 41C142.34 40.67 141.68 40.34 141 40C138.69 40 136.38 40 134 40C132.02 40.99 130.04 41.98 128 43C127.01 43 126.02 43 125 43C125 42.34 125 41.68 125 41C117.41 41 109.82 41 102 41C99.36 40.01 96.72 39.02 94 38C93.2382 38.1096 92.4763 38.2191 91.6914 38.332C90.6589 38.4906 89.6263 38.6491 88.5625 38.8125C87.4758 38.9917 86.3891 39.1709 85.2695 39.3555C84.1906 39.5682 83.1116 39.7809 82 40C80.6136 40.3964 80.6136 40.3964 79.1992 40.8008C78.391 41.0728 77.5827 41.3448 76.75 41.625C75.5125 42.0787 74.275 42.5325 73 43C70.69 43 68.38 43 66 43C65.01 42.01 64.02 41.02 63 40C61.02 40 59.04 40 57 40C55.68 40.66 54.36 41.32 53 42C51.68 41.67 50.36 41.34 49 41C46.69 39.35 44.38 37.7 42 36C37.05 36 32.1 36 27 36C25.68 35.34 24.36 34.68 23 34C17.06 34.495 17.06 34.495 11 35C10.01 35.66 9.02 36.32 8 37C5.36 37 2.72 37 0 37C0 26.77 0 16.54 0 6C3.96 6.33 38.64 4.34 40 4C42.97 4 45.94 4 49 4C50.1137 4.28875 92.1712 7.83 93 8C95.31 6.68 97.62 5.36 100 4C101.172 3.92781 143.23 4.65708 144.25 5.33708C144.25 5.99708 146 8.32 146 9C153.92 8.505 153.92 8.505 162 8C162.33 7.67 162.66 7.34 163 7C164.116 6.9652 164.116 6.9652 165.254 6.92969C166.892 6.90262 194.464 8.46937 195.461 8.5625C196.773 8.68818 196.773 8.68818 198.111 8.81641C198.734 8.87699 199.358 8.93758 200 9C200.66 8.67 201.32 8.34 202 8C204.64 8 207.28 8 210 8C207.69 6.68 205.38 5.36 203 4C201.35 3.67 199.7 3.34 198 3C198 2.67 198 2.34 198 2C201.3 2 204.6 2 208 2C209.98 3.32 211.96 4.64 214 6C214 6.66 214 7.32 214 8C214.66 8 215.32 8 216 8C216.33 7.01 216.66 6.02 217 5C218.32 4.67 219.64 4.34 221 4C221 4.66 221 5.32 221 6C221.33 5.67 221.66 5.34 222 5C223.98 5 225.96 5 228 5C227.01 5.66 226.02 6.32 225 7C229.62 7 234.24 7 239 7C237.02 6.01 235.04 5.02 233 4C231.35 3.67 229.7 3.34 228 3C228 2.67 228 2.34 228 2C230.97 2 233.94 2 237 2C238.98 3.485 238.98 3.485 241 5C242.98 4.34 244.96 3.68 247 3C248.98 3.33 250.96 3.66 253 4C251.68 4.66 250.36 5.32 249 6C255.27 6.33 261.54 6.66 268 7C268.66 6.67 269.32 6.34 270 6C270.883 5.9768 301.874 8.0425 303 8C304.485 7.505 304.485 7.505 306 7C309.3 7 312.6 7 316 7C317.98 7.495 317.98 7.495 320 8C322.64 6.68 325.28 5.36 328 4C329.1 3.92781 366.773 4.37125 368.105 4.5625C369.538 4.77906 369.538 4.77906 371 5C371.66 5.66 372.32 6.32 373 7C373 7.99 373 8.98 373 10C377.29 8.68 381.58 7.36 386 6C395.57 5.67 405.14 5.34 415 5C416.65 5.99 418.3 6.98 420 8C421.226 7.75443 458.52 5.34 466 5C466.66 4.67 488.485 4.01 490 3C491.32 3 492.64 3 494 3C494 2.67 494 2.34 494 2C497.3 1.67 500.6 1.34 504 1C504.66 1.66 505.32 2.32 506 3C507.32 2.67 508.64 2.34 510 2C511.485 1.01 511.485 1.01 513 0Z"/><path id="shape2" transform="matrix(0.72 0 0 0.72 182.88 9.99422400737191)" fill="#a58054" stroke="#000000" stroke-opacity="0" stroke-width="0" stroke-linecap="square" stroke-linejoin="bevel" d="M91 0.1875C92.5101 0.119824 92.5101 0.119824 94.0508 0.0507813C95.325 0.0256445 95.325 0.0256445 96.625 0C97.459 0.00644531 98.293 0.0128906 99.1523 0.0195312C100.092 0.0749609 101.032 0.130391 102 0.1875C103.321 0.335742 104.643 0.483984 106.004 0.636719C107.384 0.818477 108.765 1.00023 110.188 1.1875C111.48 1.37312 112.773 1.55875 114.105 1.75C115.061 1.89438 116.016 2.03875 117 2.1875C117.99 3.1775 117.99 3.1775 119 4.1875C119 5.1775 119 6.1675 119 7.1875C117.68 8.5075 116.36 9.8275 115 11.1875C113.02 10.5275 111.04 9.8675 109 9.1875C111.31 11.1675 113.62 13.1475 116 15.1875C118.31 16.1775 120.62 17.1675 123 18.1875C124.98 21.4875 126.96 24.7875 129 28.1875C129.33 30.4975 129.66 32.8075 130 35.1875C132.475 33.7025 132.475 33.7025 135 32.1875C134.67 33.5075 134.34 34.8275 134 36.1875C132.68 37.1775 131.36 38.1675 130 39.1875C127.03 39.1875 124.06 39.1875 121 39.1875C119.35 38.5275 117.7 37.8675 116 37.1875C115.203 37.1991 114.407 37.2107 113.586 37.2227C112.526 37.2317 111.467 37.2407 110.375 37.25C109.274 37.2513 108.173 37.2526 107.039 37.2539C105.535 37.221 105.535 37.221 104 37.1875C102.927 37.0225 101.855 36.8575 100.75 36.6875C99.8425 36.5225 98.935 36.3575 98 36.1875C96.7212 36.1463 95.4425 36.105 94.125 36.0625C92.7638 36.1037 91.4025 36.145 90 36.1875C89.2446 36.2623 88.4892 36.337 87.7109 36.4141C86.9813 36.5043 86.2517 36.5945 85.5 36.6875C83.7675 36.935 83.7675 36.935 82 37.1875C81.67 36.1975 81.34 35.2075 81 34.1875C75.555 33.6925 75.555 33.6925 70 33.1875C68.5498 33.5858 68.5498 33.5858 67.0703 33.9922C65.7684 34.3454 64.4664 34.6986 63.125 35.0625C61.7599 35.4273 60.3948 35.7921 58.9883 36.168C57.6721 36.5044 56.356 36.8409 55 37.1875C53.9829 37.4105 52.9659 37.6335 51.918 37.8633C51.0582 38.0321 50.1984 38.201 49.3125 38.375C47.8894 38.6431 46.4663 38.9113 45 39.1875C43.02 39.6825 43.02 39.6825 41 40.1875C39.68 39.1975 38.36 38.2075 37 37.1875C35.02 37.1875 33.04 37.1875 31 37.1875C29.02 38.1775 27.04 39.1675 25 40.1875C24.2781 39.7544 23.5563 39.3212 22.8125 38.875C21.8844 38.3181 20.9562 37.7612 20 37.1875C18.35 36.1975 16.7 35.2075 15 34.1875C10.05 33.8575 5.1 33.5275 0 33.1875C0 32.1975 0 31.2075 0 30.1875C6.6 28.8675 13.2 27.5475 20 26.1875C22.64 26.5175 25.28 26.8475 28 27.1875C29.32 24.5475 30.64 21.9075 32 19.1875C34.97 18.1975 37.94 17.2075 41 16.1875C43.31 16.1875 45.62 16.1875 48 16.1875C51.3 18.1675 54.6 20.1475 58 22.1875C56.68 20.8675 55.36 19.5475 54 18.1875C52.02 17.1975 50.04 16.2075 48 15.1875C45.69 15.1875 43.38 15.1875 41 15.1875C41.9487 14.0944 42.8975 13.0013 43.875 11.875C44.4087 11.2601 44.9423 10.6452 45.4922 10.0117C45.9898 9.40973 46.4873 8.80773 47 8.1875C47.66 7.1975 48.32 6.2075 49 5.1875C49.99 4.8575 50.98 4.5275 52 4.1875C55.3 4.1875 58.6 4.1875 62 4.1875C63.32 4.5175 64.64 4.8475 66 5.1875C68.64 3.8675 71.28 2.5475 74 1.1875C75.6494 1.07922 75.6494 1.07922 77.332 0.96875C78.8106 0.875938 80.2891 0.783125 81.8125 0.6875C82.5935 0.64198 83.3745 0.59646 84.1792 0.549561C84.9592 0.506135 85.7393 0.46271 86.543 0.417969C88.0138 0.341914 89.4846 0.265859 91 0.1875Z"/><path id="shape3" transform="matrix(0.72 0 0 0.72 504.72 9.96328650737193)" fill="#9b7133" stroke="#000000" stroke-opacity="0" stroke-width="0" stroke-linecap="square" stroke-linejoin="bevel" d="M74 0.230469C75.7828 0.162793 75.7828 0.162793 77.6016 0.09375C78.6612 0.0769922 79.7208 0.0602344 80.8125 0.0429688C82.1834 0.0216992 82.1834 0.0216992 83.582 0C84.71 0.0760547 85.8379 0.152109 87 0.230469C90.96 0.890469 94.92 1.55047 99 2.23047C99 13.1205 99 24.0105 99 35.2305C98.67 35.5605 98.34 35.8905 98 36.2305C95.36 36.2305 92.72 36.2305 90 36.2305C90 36.8905 90 37.5505 90 38.2305C87.03 37.5705 84.06 36.9105 81 36.2305C77.04 36.2305 73.08 36.2305 69 36.2305C67.68 36.5605 66.36 36.8905 65 37.2305C63.68 36.2405 62.36 35.2505 61 34.2305C58.03 33.9005 55.06 33.5705 52 33.2305C49.36 33.8905 46.72 34.5505 44 35.2305C40.7 35.2305 37.4 35.2305 34 35.2305C34.99 34.5705 35.98 33.9105 37 33.2305C40.3 32.2405 43.6 31.2505 47 30.2305C46.34 28.5805 45.68 26.9305 45 25.2305C42.525 24.2405 42.525 24.2405 40 23.2305C37.69 21.5805 35.38 19.9305 33 18.2305C32.01 17.9005 31.02 17.5705 30 17.2305C29.0306 17.2098 28.0613 17.1892 27.0625 17.168C25.7219 17.1886 24.3813 17.2092 23 17.2305C22.1853 17.3039 21.3706 17.3774 20.5313 17.4531C19.7166 17.5446 18.9019 17.6362 18.0625 17.7305C16.0516 17.978 16.0516 17.978 14 18.2305C11.525 17.2405 11.525 17.2405 9 16.2305C6.69 15.9005 4.38 15.5705 2 15.2305C2.99 14.5705 3.98 13.9105 5 13.2305C6.98 13.2305 8.96 13.2305 11 13.2305C11 12.5705 11 11.9105 11 11.2305C7.37 10.5705 3.74 9.91047 0 9.23047C0 8.90047 0 8.57047 0 8.23047C3.63 8.23047 7.26 8.23047 11 8.23047C13.475 10.2105 13.475 10.2105 16 12.2305C14.68 10.5805 13.36 8.93047 12 7.23047C13.65 7.56047 15.3 7.89047 17 8.23047C17.99 9.22047 18.98 10.2105 20 11.2305C21.98 9.58047 23.96 7.93047 26 6.23047C26.6175 6.08609 27.2349 5.94172 27.8711 5.79297C28.718 5.60734 29.5649 5.42172 30.4375 5.23047C31.3476 5.04871 32.2577 4.86695 33.1953 4.67969C34.5836 4.45732 34.5836 4.45732 36 4.23047C36.8224 4.17504 37.6448 4.11961 38.4922 4.0625C39.2579 4.05605 40.0236 4.04961 40.8125 4.04297C42.1944 4.10484 43.5763 4.16672 45 4.23047C46.5159 4.47797 46.5159 4.47797 48.0625 4.73047C48.7019 4.89547 49.3413 5.06047 50 5.23047C51.32 4.24047 52.64 3.25047 54 2.23047C54.99 1.90047 55.98 1.57047 57 1.23047C58.0764 1.15828 59.1527 1.08609 60.2617 1.01172C62.4525 0.8725 62.4525 0.8725 64.6875 0.730469C65.848 0.662189 65.848 0.662189 67.032 0.592529C67.8129 0.549104 68.5938 0.505679 69.3984 0.460938C70.1806 0.420171 70.9627 0.379404 71.7686 0.337402C72.5049 0.302114 73.2413 0.266826 74 0.230469Z"/><path id="shape4" transform="matrix(0.72 0 0 0.72 -1.95399252334027e-14 10.849224007372)" fill="#9e753f" stroke="#000000" stroke-opacity="0" stroke-width="0" stroke-linecap="square" stroke-linejoin="bevel" d="M40 0C42.97 0 45.94 0 49 0C50.1962 0.28875 51.3925 0.5775 52.625 0.875C53.8335 1.1457 53.8335 1.1457 55.0664 1.42188C56.0345 1.61266 57.0026 1.80344 58 2C59.2259 2.19078 60.4518 2.38156 61.7148 2.57813C62.9846 2.75859 64.2543 2.93906 65.5625 3.125C66.7807 3.29258 67.9988 3.46016 69.2539 3.63281C70.1601 3.75398 71.0663 3.87516 72 4C72.99 4.66 73.98 5.32 75 6C72.03 8.64 69.06 11.28 66 14C63.69 14.99 61.38 15.98 59 17C57.02 19.97 57.02 19.97 55 23C54.01 27.29 53.02 31.58 52 36C50.68 36 49.36 36 48 36C46.02 34.68 44.04 33.36 42 32C37.05 32 32.1 32 27 32C25.68 31.34 24.36 30.68 23 30C19.04 30.33 15.08 30.66 11 31C10.01 31.66 9.02 32.32 8 33C5.36 33 2.72 33 0 33C0 22.77 0 12.54 0 2C3.96 2.33 7.92 2.66 12 3C12.66 2.67 13.32 2.34 14 2C14.9682 1.96242 14.9682 1.96242 15.9561 1.92407C16.8523 1.88854 17.7485 1.85301 18.6719 1.81641C19.6464 1.7758 20.6209 1.7352 21.625 1.69336C22.6563 1.65018 23.6875 1.60699 24.75 1.5625C25.7658 1.52318 26.7816 1.48387 27.8281 1.44336C28.8078 1.40146 29.7875 1.35957 30.7969 1.31641C32.148 1.26142 32.148 1.26142 33.5264 1.20532C34.3427 1.13757 35.159 1.06981 36 1C37.32 0.67 38.64 0.34 40 0Z"/><path id="shape5" transform="matrix(0.72 0 0 0.72 372.96 9.99422400737191)" fill="#a68555" stroke="#000000" stroke-opacity="0" stroke-width="0" stroke-linecap="square" stroke-linejoin="bevel" d="M29 0.1875C30.0918 0.142383 31.1837 0.0972656 32.3086 0.0507813C33.2586 0.0340234 34.2087 0.0172656 35.1875 0C36.1143 0.00644531 37.0412 0.0128906 37.9961 0.0195312C38.9874 0.0749609 39.9787 0.130391 41 0.1875C42.9046 0.409863 42.9046 0.409863 44.8477 0.636719C46.1354 0.818477 47.4232 1.00023 48.75 1.1875C49.9411 1.37312 51.1322 1.55875 52.3594 1.75C53.6665 1.96656 53.6665 1.96656 55 2.1875C55.99 2.8475 56.98 3.5075 58 4.1875C57.67 7.4875 57.34 10.7875 57 14.1875C56.01 14.1875 55.02 14.1875 54 14.1875C54.66 14.8475 55.32 15.5075 56 16.1875C55.505 18.6625 55.505 18.6625 55 21.1875C52.03 22.5075 49.06 23.8275 46 25.1875C46.99 25.5175 47.98 25.8475 49 26.1875C49.495 27.1775 49.495 27.1775 50 28.1875C53.63 29.1775 57.26 30.1675 61 31.1875C61.99 31.8475 62.98 32.5075 64 33.1875C63.67 34.1775 63.34 35.1675 63 36.1875C57.06 35.1975 51.12 34.2075 45 33.1875C44.34 31.5375 43.68 29.8875 43 28.1875C42.505 26.7025 42.505 26.7025 42 25.1875C37.05 24.1975 37.05 24.1975 32 23.1875C30.35 23.5175 28.7 23.8475 27 24.1875C23.04 26.1675 23.04 26.1675 19 28.1875C19 27.5275 19 26.8675 19 26.1875C14.05 27.6725 14.05 27.6725 9 29.1875C7.35 29.1875 5.7 29.1875 4 29.1875C3.67 27.8675 3.34 26.5475 3 25.1875C4.98 23.8675 6.96 22.5475 9 21.1875C9.99 20.8575 10.98 20.5275 12 20.1875C16.62 19.8575 21.24 19.5275 26 19.1875C26 16.8775 26 14.5675 26 12.1875C25.34 11.5275 24.68 10.8675 24 10.1875C23.67 7.8775 23.34 5.5675 23 3.1875C22.01 2.8575 21.02 2.5275 20 2.1875C20.33 4.8275 20.66 7.4675 21 10.1875C20.34 10.1875 19.68 10.1875 19 10.1875C19 11.1775 19 12.1675 19 13.1875C16.69 13.1875 14.38 13.1875 12 13.1875C12 12.1975 12 11.2075 12 10.1875C9.03 9.6925 9.03 9.6925 6 9.1875C4.02 7.8675 2.04 6.5475 0 5.1875C0.99 4.5275 1.98 3.8675 3 3.1875C3.99 3.5175 4.98 3.8475 6 4.1875C7.98 3.1975 9.96 2.2075 12 1.1875C13.088 1.11531 14.1759 1.04313 15.2969 0.96875C17.5012 0.829531 17.5012 0.829531 19.75 0.6875C20.5277 0.64198 21.3054 0.59646 22.1067 0.549561C22.8875 0.506135 23.6682 0.46271 24.4727 0.417969C25.6369 0.356819 25.6369 0.356819 26.8247 0.294434C27.5426 0.259146 28.2604 0.223857 29 0.1875Z"/><path id="shape6" transform="matrix(0.72 0 0 0.72 504.72 11.5692240073719)" fill="#946627" stroke="#000000" stroke-opacity="0" stroke-width="0" stroke-linecap="square" stroke-linejoin="bevel" d="M54 0C58.62 0 63.24 0 68 0C68.495 3.465 68.495 3.465 69 7C70.65 7.99 72.3 8.98 74 10C74.495 11.485 74.495 11.485 75 13C74.67 13.66 74.34 14.32 74 15C73.01 14.505 73.01 14.505 72 14C71.01 14 70.02 14 69 14C65.7 17.3 62.4 20.6 59 24C56.03 23.01 53.06 22.02 50 21C50 22.65 50 24.3 50 26C50.495 26.99 50.495 26.99 51 28C49.68 28 48.36 28 47 28C46.34 26.35 45.68 24.7 45 23C42.525 22.01 42.525 22.01 40 21C37.69 19.35 35.38 17.7 33 16C32.01 15.67 31.02 15.34 30 15C29.0306 14.9794 28.0613 14.9588 27.0625 14.9375C25.7219 14.9581 24.3813 14.9787 23 15C21.778 15.1102 21.778 15.1102 20.5313 15.2227C19.7166 15.3142 18.9019 15.4057 18.0625 15.5C16.7219 15.665 15.3813 15.83 14 16C11.525 15.01 11.525 15.01 9 14C6.69 13.67 4.38 13.34 2 13C2.99 12.34 3.98 11.68 5 11C6.98 11 8.96 11 11 11C11 10.34 11 9.68 11 9C7.37 8.34 3.74 7.68 0 7C0 6.67 0 6.34 0 6C3.63 6 7.26 6 11 6C13.475 7.98 13.475 7.98 16 10C14.68 8.35 13.36 6.7 12 5C13.65 5.33 15.3 5.66 17 6C17.99 6.99 18.98 7.98 20 9C21.98 7.35 23.96 5.7 26 4C26.6175 3.85563 27.2349 3.71125 27.8711 3.5625C28.718 3.37688 29.5649 3.19125 30.4375 3C31.3476 2.81824 32.2577 2.63648 33.1953 2.44922C34.1209 2.30098 35.0464 2.15273 36 2C36.8224 1.94457 37.6448 1.88914 38.4922 1.83203C39.2579 1.82559 40.0236 1.81914 40.8125 1.8125C42.1944 1.87438 43.5763 1.93625 45 2C46.5159 2.2475 46.5159 2.2475 48.0625 2.5C48.7019 2.665 49.3413 2.83 50 3C51.32 2.01 52.64 1.02 54 0Z"/><path id="shape7" transform="matrix(0.72 0 0 0.72 259.92 11.5467240073719)" fill="#9d6c34" stroke="#000000" stroke-opacity="0" stroke-width="0" stroke-linecap="square" stroke-linejoin="bevel" d="M46 0.03125C47.224 0.0157813 47.224 0.0157813 48.4727 0C49.2036 0 49.9345 0 50.6875 0C52.3272 0.0154688 52.3272 0.0154688 54 0.03125C56.475 1.51625 56.475 1.51625 59 3.03125C61.475 3.52625 61.475 3.52625 64 4.03125C63.4483 4.47082 62.8966 4.91039 62.3281 5.36328C61.1757 6.18893 61.1757 6.18893 60 7.03125C59.1492 7.48887 58.2984 7.94648 57.4219 8.41797C56.5402 8.84723 55.6584 9.27648 54.75 9.71875C53.858 10.1557 52.9659 10.5927 52.0469 11.043C51.3714 11.3691 50.6959 11.6952 50 12.0313C49.34 12.0313 48.68 12.0313 48 12.0313C48.495 14.0113 48.495 14.0113 49 16.0313C58.405 17.5162 58.405 17.5162 68 19.0313C70.31 18.7013 72.62 18.3712 75 18.0313C74.01 19.0212 73.02 20.0113 72 21.0313C69.03 22.3513 66.06 23.6713 63 25.0313C62.01 24.7013 61.02 24.3712 60 24.0313C59.505 23.0413 59.505 23.0413 59 22.0313C54.38 20.7112 49.76 19.3912 45 18.0313C39.06 18.0313 33.12 18.0313 27 18.0313C24.03 18.6913 21.06 19.3513 18 20.0313C17.34 18.7112 16.68 17.3912 16 16.0313C13.03 15.0412 10.06 14.0512 7 13.0313C4.69 11.0512 2.38 9.07125 0 7.03125C0.99 6.70125 1.98 6.37125 3 6.03125C5.475 7.02125 5.475 7.02125 8 8.03125C8 7.04125 8 6.05125 8 5.03125C8.64066 4.91008 9.28133 4.78891 9.94141 4.66406C10.8064 4.49648 11.6713 4.32891 12.5625 4.15625C13.4094 3.99383 14.2563 3.83141 15.1289 3.66406C16.0764 3.45523 17.0238 3.24641 18 3.03125C19.9007 2.50145 19.9007 2.50145 21.8398 1.96094C22.8827 1.65414 23.9255 1.34734 25 1.03125C26.4231 0.959062 27.8463 0.886875 29.3125 0.8125C30.2239 0.767383 31.1352 0.722266 32.0742 0.675781C33.5225 0.604238 33.5225 0.604238 35 0.53125C35.9346 0.483555 36.8691 0.435859 37.832 0.386719C39.2146 0.319043 39.2146 0.319043 40.625 0.25C41.9843 0.188125 41.9843 0.188125 43.3711 0.125C44.2386 0.0940625 45.1062 0.063125 46 0.03125Z"/><path id="shape8" transform="matrix(0.72 0 0 0.72 43.92 23.0892240073719)" fill="#a47c53" stroke="#000000" stroke-opacity="0" stroke-width="0" stroke-linecap="square" stroke-linejoin="bevel" d="M32 0C34.31 0 36.62 0 39 0C39.5801 0.470508 40.1602 0.941016 40.7578 1.42578C41.9296 2.35971 41.9296 2.35971 43.125 3.3125C43.941 3.9493 44.757 4.58609 45.5977 5.24219C46.3904 5.82227 47.1832 6.40234 48 7C49.1756 7.63938 50.3513 8.27875 51.5625 8.9375C52.3669 9.28813 53.1713 9.63875 54 10C56.475 11.98 56.475 11.98 59 14C59 14.66 59 15.32 59 16C61.475 16.99 61.475 16.99 64 18C65.32 17.67 66.64 17.34 68 17C68.7786 16.7512 69.5572 16.5024 70.3594 16.2461C71.1483 15.9793 71.9372 15.7124 72.75 15.4375C74.1525 14.9631 75.555 14.4887 77 14C77.7013 14.2539 78.4025 14.5079 79.125 14.7695C80.0737 15.1137 81.0225 15.4579 82 15.8125C83.0106 16.1786 84.0213 16.5447 85.0625 16.9219C86.5166 17.4555 86.5166 17.4555 88 18C89.32 18.5156 90.64 19.0313 92 19.5625C93.32 20.0369 94.64 20.5113 96 21C96.9694 21.281 97.9387 21.562 98.9375 21.8516C99.9481 22.1274 100.959 22.4033 102 22.6875C103.423 23.0646 103.423 23.0646 104.875 23.4492C105.576 23.631 106.278 23.8127 107 24C107.495 25.485 107.495 25.485 108 27C105.36 26.67 102.72 26.34 100 26C99.3709 25.7345 98.7419 25.4689 98.0938 25.1953C97.2378 24.8421 96.3819 24.4889 95.5 24.125C94.5951 23.7615 93.6902 23.398 92.7578 23.0234C91.3927 22.5168 91.3927 22.5168 90 22C89.193 21.7654 88.3861 21.5308 87.5547 21.2891C86.4757 21.0222 86.4757 21.0222 85.375 20.75C84.2612 20.5025 83.1475 20.255 82 20C81.34 19.67 80.68 19.34 80 19C77.69 19 75.38 19 73 19C71.02 19.99 69.04 20.98 67 22C66.01 22 65.02 22 64 22C64 21.34 64 20.68 64 20C56.41 20 48.82 20 41 20C38.69 18.68 36.38 17.36 34 16C31.36 16 28.72 16 26 16C21.05 17.485 21.05 17.485 16 19C13.69 19 11.38 19 9 19C9 18.67 9 18.34 9 18C10.65 17.67 12.3 17.34 14 17C13.01 16.01 12.02 15.02 11 14C9.02 14 7.04 14 5 14C3.35 14.66 1.7 15.32 0 16C0 15.34 0 14.68 0 14C3.3 12.35 6.6 10.7 10 9C11.65 7.68 13.3 6.36 15 5C20.61 3.35 26.22 1.7 32 0Z"/><path id="shape9" transform="matrix(0.72 0 0 0.72 318.24 10.705786507372)" fill="#a07a51" stroke="#000000" stroke-opacity="0" stroke-width="0" stroke-linecap="square" stroke-linejoin="bevel" d="M26 0.199219C26.9301 0.147012 26.9301 0.147012 27.8789 0.09375C28.7645 0.0666797 29.6501 0.0396094 30.5625 0.0117188C31.5538 0.00785156 32.5451 0.00398437 33.5664 0C35.266 0.0986133 35.266 0.0986133 37 0.199219C38.3084 0.419648 39.6168 0.640078 40.9648 0.867188C42.2964 1.14176 43.628 1.41633 45 1.69922C46.2581 1.97766 47.5162 2.25609 48.8125 2.54297C49.8644 2.75953 50.9163 2.97609 52 3.19922C52.99 3.19922 53.98 3.19922 55 3.19922C55 2.53922 55 1.87922 55 1.19922C56.32 0.869219 57.64 0.539219 59 0.199219C59.495 1.18922 59.495 1.18922 60 2.19922C59.34 2.52922 58.68 2.85922 58 3.19922C59.32 4.51922 60.64 5.83922 62 7.19922C59.36 9.50922 56.72 11.8192 54 14.1992C51.03 15.1892 48.06 16.1792 45 17.1992C45 18.1892 45 19.1792 45 20.1992C44.2755 20.4042 43.5511 20.6091 42.8047 20.8203C41.8379 21.0897 40.8711 21.3591 39.875 21.6367C38.876 21.91 37.877 22.1833 36.8477 22.4648C35.9079 22.7072 34.9682 22.9495 34 23.1992C32.7831 23.4261 31.5663 23.653 30.3125 23.8867C29.5494 23.9898 28.7862 24.093 28 24.1992C27.01 22.5492 26.02 20.8992 25 19.1992C24.34 18.8692 23.68 18.5392 23 18.1992C22.67 17.2092 22.34 16.2192 22 15.1992C19.525 14.7042 19.525 14.7042 17 14.1992C17 10.8992 17 7.59922 17 4.19922C11.39 4.19922 5.78 4.19922 0 4.19922C0.66 3.53922 1.32 2.87922 2 2.19922C9.26 1.86922 16.52 1.53922 24 1.19922C24.66 0.869219 25.32 0.539219 26 0.199219Z"/><path id="shape10" transform="matrix(0.72 0 0 0.72 468 21.6492240073718)" fill="#a78659" stroke="#000000" stroke-opacity="0" stroke-width="0" stroke-linecap="square" stroke-linejoin="bevel" d="M25 0C27.97 0 30.94 0 34 0C35.0119 0.144375 36.0238 0.28875 37.0664 0.4375C37.8901 0.623125 38.7138 0.80875 39.5625 1C40.4094 1.18562 41.2563 1.37125 42.1289 1.5625C43.0551 1.77906 43.0551 1.77906 44 2C44 2.66 44 3.32 44 4C46.475 4.495 46.475 4.495 49 5C49.495 5.99 49.495 5.99 50 7C49.67 7.66 49.34 8.32 49 9C52.63 7.68 56.26 6.36 60 5C61.32 5 62.64 5 64 5C63.795 5.74766 63.5901 6.49531 63.3789 7.26563C63.1095 8.25047 62.8401 9.23531 62.5625 10.25C62.2957 11.2245 62.0288 12.1991 61.7539 13.2031C61.5051 14.1261 61.2563 15.0491 61 16C60.67 17.32 60.34 18.64 60 20C58.68 19.67 57.36 19.34 56 19C54.68 18.67 53.36 18.34 52 18C52 17.01 52 16.02 52 15C50.7212 14.835 49.4425 14.67 48.125 14.5C47.3142 14.4085 46.5034 14.317 45.668 14.2227C44.7875 14.1492 43.9071 14.0757 43 14C42.068 13.9781 41.136 13.9562 40.1758 13.9336C39.2721 13.9349 38.3685 13.9362 37.4375 13.9375C35.9731 13.9581 34.5087 13.9787 33 14C32.34 13.67 31.68 13.34 31 13C27.37 13 23.74 13 20 13C15.05 14.32 10.1 15.64 5 17C4.67 17.99 4.34 18.98 4 20C2.68 20 1.36 20 0 20C0.66 18.02 1.32 16.04 2 14C3.32 12.35 4.64 10.7 6 9C12.27 6.03 18.54 3.06 25 0Z"/><path id="shape11" transform="matrix(0.72 0 0 0.72 74.88 20.9292240073719)" fill="#6b9605" stroke="#000000" stroke-opacity="0" stroke-width="0" stroke-linecap="square" stroke-linejoin="bevel" d="M39 0C41.31 0 43.62 0 46 0C46.66 0.66 47.32 1.32 48 2C44.04 2.99 40.08 3.98 36 5C36 5.66 36 6.32 36 7C35.01 7.66 34.02 8.32 33 9C37.455 8.505 37.455 8.505 42 8C43.98 8.99 45.96 9.98 48 11C46.68 11.33 45.36 11.66 44 12C44.495 12.99 44.495 12.99 45 14C43.35 14 41.7 14 40 14C40.66 14.99 41.32 15.98 42 17C39.36 16.67 36.72 16.34 34 16C33.34 16.66 32.68 17.32 32 18C28.04 19.98 28.04 19.98 24 22C22.68 21.67 21.36 21.34 20 21C18.68 20.34 17.36 19.68 16 19C16 18.34 16 17.68 16 17C14.68 16.34 13.36 15.68 12 15C11.4019 14.5463 10.8038 14.0925 10.1875 13.625C9.46562 13.0887 8.74375 12.5525 8 12C6.7625 11.2781 5.525 10.5563 4.25 9.8125C3.1775 9.21438 2.105 8.61625 1 8C0.67 7.34 0.34 6.68 0 6C1.65 5.67 3.3 5.34 5 5C5.66 5.66 6.32 6.32 7 7C8.65 7 10.3 7 12 7C12 6.34 12 5.68 12 5C10.68 4.67 9.36 4.34 8 4C12.95 3.67 17.9 3.34 23 3C23.99 3.66 24.98 4.32 26 5C27.65 4.67 29.3 4.34 31 4C33.64 2.68 36.28 1.36 39 0Z"/><path id="shape12" transform="matrix(0.72 0 0 0.72 486.72 32.449224007372)" fill="#583a11" stroke="#000000" stroke-opacity="0" stroke-width="0" stroke-linecap="square" stroke-linejoin="bevel" d="M12 0C15.3 0 18.6 0 22 0C25.96 2.475 25.96 2.475 30 5C30 5.99 30 6.98 30 8C33.465 5.525 33.465 5.525 37 3C37.99 3.33 38.98 3.66 40 4C38.68 5.32 37.36 6.64 36 8C33.03 9.32 30.06 10.64 27 12C25.35 13.32 23.7 14.64 22 16C17.05 16.495 17.05 16.495 12 17C11.01 17.99 10.02 18.98 9 20C8.34 20 7.68 20 7 20C6.67 19.01 6.34 18.02 6 17C4.35 16.67 2.7 16.34 1 16C0.67 14.68 0.34 13.36 0 12C0.66 9.69 1.32 7.38 2 5C3.32 4.01 4.64 3.02 6 2C7.98 1.34 9.96 0.68 12 0Z"/><path id="shape13" transform="matrix(0.72 0 0 0.72 259.92 13.0092240073719)" fill="#6d9507" stroke="#000000" stroke-opacity="0" stroke-width="0" stroke-linecap="square" stroke-linejoin="bevel" d="M31 0C33.64 0 36.28 0 39 0C40.32 0.66 41.64 1.32 43 2C39.7 2.66 36.4 3.32 33 4C33.99 5.32 34.98 6.64 36 8C33.36 9.98 30.72 11.96 28 14C27.67 14.66 27.34 15.32 27 16C24.03 16.66 21.06 17.32 18 18C17.34 16.68 16.68 15.36 16 14C13.03 13.01 10.06 12.02 7 11C4.69 9.02 2.38 7.04 0 5C0.99 4.67 1.98 4.34 3 4C5.475 4.99 5.475 4.99 8 6C8 5.01 8 4.02 8 3C12.455 2.505 12.455 2.505 17 2C18.65 2.66 20.3 3.32 22 4C23.32 3.67 24.64 3.34 26 3C27.65 2.01 29.3 1.02 31 0Z"/><path id="shape14" transform="matrix(0.72 0 0 0.72 8.63999999999998 10.849224007372)" fill="#ac8963" stroke="#000000" stroke-opacity="0" stroke-width="0" stroke-linecap="square" stroke-linejoin="bevel" d="M28 0C30.97 0 33.94 0 37 0C37 0.33 37 0.66 37 1C35.35 1.33 33.7 1.66 32 2C32.99 2.99 33.98 3.98 35 5C34.34 5.66 33.68 6.32 33 7C32.01 7 31.02 7 30 7C30.99 9.97 31.98 12.94 33 16C32.01 17.32 31.02 18.64 30 20C28.35 19.67 26.7 19.34 25 19C24.01 17.68 23.02 16.36 22 15C20.68 14.67 19.36 14.34 18 14C17.7525 12.3603 17.7525 12.3603 17.5 10.6875C17.335 9.47063 17.17 8.25375 17 7C17 6.01 17 5.02 17 4C11.39 4 5.78 4 0 4C0.66 3.34 1.32 2.68 2 2C2.96825 1.96242 2.96825 1.96242 3.95605 1.92407C4.85228 1.88854 5.7485 1.85301 6.67188 1.81641C8.13367 1.7555 8.13367 1.7555 9.625 1.69336C10.6563 1.65018 11.6875 1.60699 12.75 1.5625C13.7658 1.52318 14.7816 1.48387 15.8281 1.44336C16.8078 1.40146 17.7875 1.35957 18.7969 1.31641C20.148 1.26142 20.148 1.26142 21.5264 1.20532C22.3427 1.13757 23.159 1.06981 24 1C25.32 0.67 26.64 0.34 28 0Z"/><path id="shape15" transform="matrix(0.72 0 0 0.72 153.36 33.1692240073719)" fill="#644e2a" stroke="#000000" stroke-opacity="0" stroke-width="0" stroke-linecap="square" stroke-linejoin="bevel" d="M23 0C25.64 0.33 28.28 0.66 31 1C31.66 2.65 32.32 4.3 33 6C32.01 7.98 31.02 9.96 30 12C29.67 12.33 29.34 12.66 29 13C24.38 13.33 19.76 13.66 15 14C14.01 14.495 14.01 14.495 13 15C12.34 13.35 11.68 11.7 11 10C11 9.01 11 8.02 11 7C7.37 7 3.74 7 0 7C1.32 6.34 2.64 5.68 4 5C6.31 5 8.62 5 11 5C11.99 4.01 12.98 3.02 14 2C16.64 1.67 19.28 1.34 22 1C22.33 0.67 22.66 0.34 23 0Z"/><path id="shape16" transform="matrix(0.72 0 0 0.72 33.12 13.729224007372)" fill="#a67e57" stroke="#000000" stroke-opacity="0" stroke-width="0" stroke-linecap="square" stroke-linejoin="bevel" d="M23 0C25.97 0.495 25.97 0.495 29 1C27.02 3.31 25.04 5.62 23 8C18.05 10.475 18.05 10.475 13 13C10.36 13 7.72 13 5 13C3.68 11.35 2.36 9.7 1 8C0.67 6.68 0.34 5.36 0 4C0.66 3.34 1.32 2.68 2 2C3.57781 1.78344 3.57781 1.78344 5.1875 1.5625C5.90293 1.47227 6.61836 1.38203 7.35547 1.28906C8.22816 1.19367 9.10086 1.09828 10 1C11.1305 0.904609 12.261 0.809219 13.4258 0.710938C15.195 0.575586 15.195 0.575586 17 0.4375C18.1344 0.353711 19.2688 0.269922 20.4375 0.183594C21.2831 0.123008 22.1288 0.0624219 23 0Z"/><path id="shape17" transform="matrix(0.72 0 0 0.72 408.96 23.0892240073719)" fill="#a68658" stroke="#000000" stroke-opacity="0" stroke-width="0" stroke-linecap="square" stroke-linejoin="bevel" d="M10 0C12.97 0 15.94 0 19 0C22.63 1.98 26.26 3.96 30 6C30 6.33 30 6.66 30 7C27.69 7.66 25.38 8.32 23 9C21.68 9.99 20.36 10.98 19 12C16.36 12 13.72 12 11 12C6.545 11.01 6.545 11.01 2 10C1.34 9.01 0.68 8.02 0 7C3.3 4.69 6.6 2.38 10 0Z"/><path id="shape18" transform="matrix(0.72 0 0 0.72 418.32 18.7692240073719)" fill="#6d9506" stroke="#000000" stroke-opacity="0" stroke-width="0" stroke-linecap="square" stroke-linejoin="bevel" d="M30 0C32.31 0 34.62 0 37 0C36.67 0.66 36.34 1.32 36 2C34.02 2.33 32.04 2.66 30 3C30 3.66 30 4.32 30 5C29.01 5.495 29.01 5.495 28 6C29.98 6 31.96 6 34 6C32.68 7.32 31.36 8.64 30 10C27.36 10.99 24.72 11.98 22 13C19.69 12.67 17.38 12.34 15 12C14.1686 11.5901 13.3371 11.1802 12.4805 10.7578C11.3938 10.219 10.3071 9.68016 9.1875 9.125C8.10855 8.59133 7.02961 8.05766 5.91797 7.50781C4.95504 7.01023 3.99211 6.51266 3 6C2.01 5.34 1.02 4.68 0 4C2.64 3.67 5.28 3.34 8 3C10.475 3.99 10.475 3.99 13 5C13 4.34 13 3.68 13 3C15.64 2.67 18.28 2.34 21 2C23.475 2.495 23.475 2.495 26 3C27.32 2.01 28.64 1.02 30 0Z"/><path id="shape19" transform="matrix(0.72 0 0 0.72 240.48 10.0842240073718)" fill="#9d753a" stroke="#000000" stroke-opacity="0" stroke-width="0" stroke-linecap="square" stroke-linejoin="bevel" d="M15 0.0625C16.4869 0.0315625 16.4869 0.0315625 18.0039 0C19.982 0.0309375 19.982 0.0309375 22 0.0625C23.3084 0.206875 24.6168 0.35125 25.9648 0.5C27.9313 0.778438 27.9313 0.778438 29.9375 1.0625C31.931 1.34094 31.931 1.34094 33.9648 1.625C34.9664 1.76938 35.968 1.91375 37 2.0625C37.66 2.7225 38.32 3.3825 39 4.0625C39 5.0525 39 6.0425 39 7.0625C37.68 8.3825 36.36 9.7025 35 11.0625C34.3735 10.8575 33.747 10.6526 33.1016 10.4414C32.2843 10.172 31.467 9.90258 30.625 9.625C29.8129 9.35816 29.0008 9.09133 28.1641 8.81641C27.4499 8.56762 26.7358 8.31883 26 8.0625C25.34 7.7325 24.68 7.4025 24 7.0625C20.7 6.7325 17.4 6.4025 14 6.0625C13.67 7.0525 13.34 8.0425 13 9.0625C12.01 8.7325 11.02 8.4025 10 8.0625C8.68 7.4025 7.36 6.7425 6 6.0625C6 5.0725 6 4.0825 6 3.0625C8.31 3.0625 10.62 3.0625 13 3.0625C13.99 3.3925 14.98 3.7225 16 4.0625C15.67 2.7425 15.34 1.4225 15 0.0625ZM8 9.0625C8.66 9.3925 9.32 9.7225 10 10.0625C5.05 13.0325 5.05 13.0325 0 16.0625C0.33 14.7425 0.66 13.4225 1 12.0625C3.31 11.0725 5.62 10.0825 8 9.0625Z"/><path id="shape20" transform="matrix(0.72 0 0 0.72 318.24 12.289224007372)" fill="#af8d67" stroke="#000000" stroke-opacity="0" stroke-width="0" stroke-linecap="square" stroke-linejoin="bevel" d="M2 0C8.93 0 15.86 0 23 0C23.33 0.99 23.66 1.98 24 3C25.98 4.32 27.96 5.64 30 7C30.99 9.31 31.98 11.62 33 14C32.34 14.99 31.68 15.98 31 17C29.35 17.33 27.7 17.66 26 18C25.01 17.34 24.02 16.68 23 16C22.67 15.01 22.34 14.02 22 13C19.525 12.505 19.525 12.505 17 12C17 8.7 17 5.4 17 2C11.39 2 5.78 2 0 2C0.66 1.34 1.32 0.68 2 0Z"/><path id="shape21" transform="matrix(0.72 0 0 0.72 529.2 26.689224007372)" fill="#ad844b" stroke="#000000" stroke-opacity="0" stroke-width="0" stroke-linecap="square" stroke-linejoin="bevel" d="M16 0C17.1447 0.216563 17.1447 0.216563 18.3125 0.4375C19.6428 0.715938 19.6428 0.715938 21 1C21.99 1.33 22.98 1.66 24 2C24 3.32 24 4.64 24 6C25.98 6.99 27.96 7.98 30 9C36.27 9 42.54 9 49 9C51.475 10.485 51.475 10.485 54 12C54 12.33 54 12.66 54 13C47.73 13 41.46 13 35 13C33.68 13.33 32.36 13.66 31 14C29.68 13.01 28.36 12.02 27 11C24.03 10.67 21.06 10.34 18 10C15.36 10.66 12.72 11.32 10 12C6.7 12 3.4 12 0 12C0.99 11.34 1.98 10.68 3 10C6.96 9.01 10.92 8.02 15 7C15 6.34 15 5.68 15 5C15.165 4.13375 15.33 3.2675 15.5 2.375C15.665 1.59125 15.83 0.8075 16 0Z"/><path id="shape22" transform="matrix(0.72 0 0 0.72 328.32 33.1692240073719)" fill="#573e0e" stroke="#000000" stroke-opacity="0" stroke-width="0" stroke-linecap="square" stroke-linejoin="bevel" d="M4 0C8.29 0 12.58 0 17 0C18.98 1.32 20.96 2.64 23 4C23 4.66 23 5.32 23 6C23.66 6.33 24.32 6.66 25 7C21.04 8.98 21.04 8.98 17 11C16.67 10.34 16.34 9.68 16 9C12.535 10.485 12.535 10.485 9 12C9 11.34 9 10.68 9 10C8.01 10 7.02 10 6 10C5.67 10.66 5.34 11.32 5 12C3.35 11.01 1.7 10.02 0 9C0.66 7.68 1.32 6.36 2 5C2.66 5.33 3.32 5.66 4 6C4 4.02 4 2.04 4 0Z"/><path id="shape23" transform="matrix(0.72 0 0 0.72 74.16 33.1692240073719)" fill="#b79c5c" stroke="#000000" stroke-opacity="0" stroke-width="0" stroke-linecap="square" stroke-linejoin="bevel" d="M33 0C37.455 0.99 37.455 0.99 42 2C43.0106 2.5775 44.0213 3.155 45.0625 3.75C45.7754 4.11094 46.4882 4.47187 47.2227 4.84375C48.1392 5.22531 49.0557 5.60688 50 6C51.2775 6.38156 52.5549 6.76313 53.8711 7.15625C55.2336 7.51719 56.5962 7.87812 58 8.25C59.32 8.58516 60.64 8.92031 62 9.26563C62.99 9.50797 63.98 9.75031 65 10C65.495 11.485 65.495 11.485 66 13C63.36 12.67 60.72 12.34 58 12C57.3709 11.7345 56.7419 11.4689 56.0938 11.1953C55.2378 10.8421 54.3819 10.4889 53.5 10.125C52.5951 9.76148 51.6902 9.39797 50.7578 9.02344C49.3927 8.51684 49.3927 8.51684 48 8C47.193 7.76539 46.3861 7.53078 45.5547 7.28906C44.8354 7.11117 44.1161 6.93328 43.375 6.75C42.2613 6.5025 41.1475 6.255 40 6C39.34 5.67 38.68 5.34 38 5C35.69 5 33.38 5 31 5C29.02 5.99 27.04 6.98 25 8C24.01 8 23.02 8 22 8C22 7.34 22 6.68 22 6C21.0351 5.75443 21.0351 5.75443 20.0508 5.50391C19.044 5.33762 18.0373 5.17133 17 5C14.9175 4.95166 14.9175 4.95166 12.793 4.90234C12.0421 4.90557 11.2912 4.90879 10.5176 4.91211C9.74865 4.92049 8.97973 4.92887 8.1875 4.9375C7.39924 4.94201 6.61098 4.94652 5.79883 4.95117C4.68218 4.95794 4.68218 4.95794 3.54297 4.96484C1.7892 4.98225 1.7892 4.98225 0 5C0 4.34 0 3.68 0 3C0.66 2.67 1.32 2.34 2 2C7.61 2 13.22 2 19 2C19.99 2.66 20.98 3.32 22 4C23.32 3.67 24.64 3.34 26 3C27.2375 2.48438 28.475 1.96875 29.75 1.4375C30.8225 0.963125 31.895 0.48875 33 0Z"/><path id="shape24" transform="matrix(0.72 0 0 0.72 174.96 10.1292240073719)" fill="#a4733b" stroke="#000000" stroke-opacity="0" stroke-width="0" stroke-linecap="square" stroke-linejoin="bevel" d="M2 0C4.64 0.33 7.28 0.66 10 1C8.02 1.99 8.02 1.99 6 3C7.42893 3.09088 7.42893 3.09088 8.88672 3.18359C10.141 3.26738 11.3952 3.35117 12.6875 3.4375C13.9289 3.51871 15.1702 3.59992 16.4492 3.68359C17.621 3.78801 18.7927 3.89242 20 4C20.9758 4.1766 21.9516 4.3532 22.957 4.53516C23.6312 4.68855 24.3054 4.84195 25 5C25.99 5.99 26.98 6.98 28 8C29.65 8.99 31.3 9.98 33 11C33.66 13.64 34.32 16.28 35 19C30.38 18.34 25.76 17.68 21 17C20.67 16.67 20.34 16.34 20 16C20 12.7 20 9.4 20 6C13.4 6 6.8 6 0 6C0.66 4.02 1.32 2.04 2 0Z"/><path id="shape25" transform="matrix(0.72 0 0 0.72 504.72 13.729224007372)" fill="#6c9a09" stroke="#000000" stroke-opacity="0" stroke-width="0" stroke-linecap="square" stroke-linejoin="bevel" d="M28 0C29.98 0 31.96 0 34 0C33.4431 0.5775 32.8863 1.155 32.3125 1.75C31.5494 2.4925 30.7862 3.235 30 4C29.0925 4.7425 28.185 5.485 27.25 6.25C26.1363 7.11625 26.1363 7.11625 25 8C26.65 8.66 28.3 9.32 30 10C30 10.33 30 10.66 30 11C24.555 11.99 24.555 11.99 19 13C18.0512 12.8763 17.1025 12.7525 16.125 12.625C14.7637 12.4187 13.4025 12.2125 12 12C10.6678 11.7467 10.6678 11.7467 9.30859 11.4883C8.40238 11.3065 7.49617 11.1248 6.5625 10.9375C5.69754 10.7609 4.83258 10.5843 3.94141 10.4023C3.30074 10.2696 2.66008 10.1368 2 10C2.99 9.34 3.98 8.68 5 8C6.98 8 8.96 8 11 8C11 7.34 11 6.68 11 6C7.37 5.34 3.74 4.68 0 4C0 3.67 0 3.34 0 3C3.63 3 7.26 3 11 3C13.475 4.98 13.475 4.98 16 7C14.68 5.35 13.36 3.7 12 2C13.65 2.33 15.3 2.66 17 3C17.99 3.99 18.98 4.98 20 6C21.98 4.35 23.96 2.7 26 1C26.66 0.67 27.32 0.34 28 0Z"/><path id="shape26" transform="matrix(0.72 0 0 0.72 501.84 12.289224007372)" fill="#9a7c49" stroke="#000000" stroke-opacity="0" stroke-width="0" stroke-linecap="square" stroke-linejoin="bevel" d="M3 0C8.61 0 14.22 0 20 0C20.66 0.33 21.32 0.66 22 1C25.3 1.33 28.6 1.66 32 2C31.2575 2.59813 30.515 3.19625 29.75 3.8125C28.8425 4.53437 27.935 5.25625 27 6C26.2369 6.5775 25.4737 7.155 24.6875 7.75C24.1306 8.1625 23.5738 8.575 23 9C21.68 7.68 20.36 6.36 19 5C19.99 6.485 19.99 6.485 21 8C20.67 8.66 20.34 9.32 20 10C18.35 8.68 16.7 7.36 15 6C13.35 6 11.7 6 10 6C12.475 6.99 12.475 6.99 15 8C15 8.66 15 9.32 15 10C15.66 10.33 16.32 10.66 17 11C14.36 10.67 11.72 10.34 9 10C8.67 9.34 8.34 8.68 8 8C6.35 7.67 4.7 7.34 3 7C2.01 5.35 1.02 3.7 0 2C0.99 1.34 1.98 0.68 3 0Z"/><path id="shape27" transform="matrix(0.72 0 0 0.72 111.6 13.0092240073719)" fill="#a6743f" stroke="#000000" stroke-opacity="0" stroke-width="0" stroke-linecap="square" stroke-linejoin="bevel" d="M8 0C12.62 0 17.24 0 22 0C22 0.33 22 0.66 22 1C20.02 1.33 18.04 1.66 16 2C16.66 2.66 17.32 3.32 18 4C17.01 5.485 17.01 5.485 16 7C16.66 7 17.32 7 18 7C18 7.66 18 8.32 18 9C18.99 9.33 19.98 9.66 21 10C21 11.32 21 12.64 21 14C18.03 13.67 15.06 13.34 12 13C11.67 12.34 11.34 11.68 11 11C9.35 10.67 7.7 10.34 6 10C5.38125 9.05125 4.7625 8.1025 4.125 7.125C3.42375 6.09375 2.7225 5.0625 2 4C1.34 3.34 0.68 2.68 0 2C3.465 1.505 3.465 1.505 7 1C7.33 0.67 7.66 0.34 8 0Z"/><path id="shape28" transform="matrix(0.72 0 0 0.72 285.12 14.4492240073719)" fill="#8a6124" stroke="#000000" stroke-opacity="0" stroke-width="0" stroke-linecap="square" stroke-linejoin="bevel" d="M26 0C26.99 0.33 27.98 0.66 29 1C22.07 4.465 22.07 4.465 15 8C14.34 8 13.68 8 13 8C13.33 9.32 13.66 10.64 14 12C23.405 13.485 23.405 13.485 33 15C36.465 14.505 36.465 14.505 40 14C39.01 14.99 38.02 15.98 37 17C34.03 18.32 31.06 19.64 28 21C27.01 20.67 26.02 20.34 25 20C24.67 19.34 24.34 18.68 24 18C23.0358 17.7345 22.0716 17.4689 21.0781 17.1953C19.1832 16.6655 19.1832 16.6655 17.25 16.125C15.997 15.777 14.7441 15.4289 13.4531 15.0703C11.7438 14.5405 11.7438 14.5405 10 14C8.68 13.34 7.36 12.68 6 12C7.32 12 8.64 12 10 12C10 11.01 10 10.02 10 9C6.7 9 3.4 9 0 9C0.33 8.34 0.66 7.68 1 7C6.94 6.505 6.94 6.505 13 6C14.4025 5.38125 15.805 4.7625 17.25 4.125C18.0389 3.77695 18.8278 3.42891 19.6406 3.07031C20.4192 2.71711 21.1978 2.36391 22 2C23.32 1.34 24.64 0.68 26 0Z"/><path id="shape29" transform="matrix(0.72 0 0 0.72 545.76 10.0814115073718)" fill="#a78144" stroke="#000000" stroke-opacity="0" stroke-width="0" stroke-linecap="square" stroke-linejoin="bevel" d="M17 0.0664063C18.3277 0.0444922 19.6555 0.0225781 21.0234 0C22.7753 0.00193359 22.7753 0.00193359 24.5625 0.00390625C25.6157 0.0129297 26.6688 0.0219531 27.7539 0.03125C28.4951 0.0428516 29.2363 0.0544531 30 0.0664063C31.32 0.726406 32.64 1.38641 34 2.06641C30.7 2.06641 27.4 2.06641 24 2.06641C23.67 3.05641 23.34 4.04641 23 5.06641C22.34 5.06641 21.68 5.06641 21 5.06641C21.66 7.37641 22.32 9.68641 23 12.0664C22.34 12.7264 21.68 13.3864 21 14.0664C19.68 14.0664 18.36 14.0664 17 14.0664C16.34 13.0764 15.68 12.0864 15 11.0664C13.68 10.4064 12.36 9.74641 11 9.06641C11 6.75641 11 4.44641 11 2.06641C7.37 2.06641 3.74 2.06641 0 2.06641C0 1.73641 0 1.40641 0 1.06641C1.07637 0.994219 2.15273 0.922031 3.26172 0.847656C5.45248 0.708438 5.45248 0.708438 7.6875 0.566406C8.45248 0.519436 9.21746 0.472466 10.0056 0.424072C10.7798 0.379519 11.5539 0.334966 12.3516 0.289063C13.1318 0.247974 13.912 0.206885 14.7158 0.164551C15.4696 0.132163 16.2234 0.0997754 17 0.0664063Z"/><path id="shape30" transform="matrix(0.72 0 0 0.72 460.08 30.2892240073719)" fill="#a46f2e" stroke="#000000" stroke-opacity="0" stroke-width="0" stroke-linecap="square" stroke-linejoin="bevel" d="M31 0C34.63 0 38.26 0 42 0C42.66 0.33 43.32 0.66 44 1C48.95 1 53.9 1 59 1C60.32 1.66 61.64 2.32 63 3C63 3.66 63 4.32 63 5C61.68 4.67 60.36 4.34 59 4C58.3361 3.9884 57.6723 3.9768 56.9883 3.96484C56.1053 3.95582 55.2223 3.9468 54.3125 3.9375C53.4037 3.93621 52.4949 3.93492 51.5586 3.93359C50.2921 3.96646 50.2921 3.96646 49 4C47.4531 4.2475 47.4531 4.2475 45.875 4.5C45.2563 4.665 44.6375 4.83 44 5C44 4.34 44 3.68 44 3C41.03 3 38.06 3 35 3C34.67 3.33 34.34 3.66 34 4C32.5459 4.15469 32.5459 4.15469 31.0625 4.3125C29.7219 4.53937 28.3813 4.76625 27 5C26.1853 5.24234 25.3706 5.48469 24.5313 5.73438C23.3092 6.1443 23.3092 6.1443 22.0625 6.5625C20.7219 7.03688 19.3813 7.51125 18 8C17.01 8.99 16.02 9.98 15 11C11.7 11.33 8.4 11.66 5 12C4.01 12.495 4.01 12.495 3 13C2.01 12.34 1.02 11.68 0 11C1.65 10.34 3.3 9.68 5 9C8.3 9 11.6 9 15 9C15.33 7.35 15.66 5.7 16 4C20.95 2.68 25.9 1.36 31 0Z"/><path id="shape31" transform="matrix(0.72 0 0 0.72 175.68 31.7292240073719)" fill="#645230" stroke="#000000" stroke-opacity="0" stroke-width="0" stroke-linecap="square" stroke-linejoin="bevel" d="M0 0C2.07281 0.464063 2.07281 0.464063 4.1875 0.9375C5.00477 1.11926 5.82203 1.30102 6.66406 1.48828C7.82035 1.74158 7.82035 1.74158 9 2C10.5159 2.30938 10.5159 2.30938 12.0625 2.625C12.7019 2.74875 13.3413 2.8725 14 3C14 5.97 14 8.94 14 12C12.02 12.99 12.02 12.99 10 14C9.34 15.32 8.68 16.64 8 18C6.35 17.67 4.7 17.34 3 17C2.67 15.35 2.34 13.7 2 12C2.66 10.02 3.32 8.04 4 6C2.68 4.35 1.36 2.7 0 1C0 0.67 0 0.34 0 0Z"/><path id="shape32" transform="matrix(0.72 0 0 0.72 13.68 33.1692240073719)" fill="#624a1b" stroke="#000000" stroke-opacity="0" stroke-width="0" stroke-linecap="square" stroke-linejoin="bevel" d="M7 0C12.28 0 17.56 0 23 0C23 0.33 23 0.66 23 1C19.37 1 15.74 1 12 1C12 3.64 12 6.28 12 9C11.34 9.66 10.68 10.32 10 11C9.01 11.99 8.02 12.98 7 14C6.67 14.66 6.34 15.32 6 16C4.35 15.67 2.7 15.34 1 15C0.67 13.02 0.34 11.04 0 9C0.99 7.02 1.98 5.04 3 3C4.32 2.01 5.64 1.02 7 0Z"/><path id="shape33" transform="matrix(0.72 0 0 0.72 142.56 9.40922400737201)" fill="#738c2f" stroke="#000000" stroke-opacity="0" stroke-width="0" stroke-linecap="square" stroke-linejoin="bevel" d="M0 0C3.3 0 6.6 0 10 0C11.98 1.32 13.96 2.64 16 4C16 4.66 16 5.32 16 6C16.66 6 17.32 6 18 6C18.33 5.01 18.66 4.02 19 3C20.32 2.67 21.64 2.34 23 2C22.34 3.65 21.68 5.3 21 7C21.33 7.66 21.66 8.32 22 9C20.35 9.66 18.7 10.32 17 11C9.08 11.495 9.08 11.495 1 12C1.33 10.35 1.66 8.7 2 7C2.66 6.67 3.32 6.34 4 6C6.64 6 9.28 6 12 6C9.69 4.68 7.38 3.36 5 2C3.35 1.67 1.7 1.34 0 1C0 0.67 0 0.34 0 0Z"/><path id="shape34" transform="matrix(0.72 0 0 0.72 372.96 11.5692240073719)" fill="#9e7841" stroke="#000000" stroke-opacity="0" stroke-width="0" stroke-linecap="square" stroke-linejoin="bevel" d="M14 0C15.98 0 17.96 0 20 0C20.33 2.64 20.66 5.28 21 8C20.34 8 19.68 8 19 8C19 8.99 19 9.98 19 11C16.69 11 14.38 11 12 11C12 10.01 12 9.02 12 8C9.03 7.505 9.03 7.505 6 7C4.02 5.68 2.04 4.36 0 3C0.99 2.34 1.98 1.68 3 1C3.99 1.33 4.98 1.66 6 2C8.64 1.34 11.28 0.68 14 0Z"/><path id="shape35" transform="matrix(0.72 0 0 0.72 -2.02060590481778e-14 30.2892240073719)" fill="#c29d35" stroke="#000000" stroke-opacity="0" stroke-width="0" stroke-linecap="square" stroke-linejoin="bevel" d="M13 0C16.96 0 20.92 0 25 0C25.66 0.33 26.32 0.66 27 1C31.62 1 36.24 1 41 1C43.97 2.98 46.94 4.96 50 7C50.495 8.485 50.495 8.485 51 10C49.68 9.34 48.36 8.68 47 8C45.35 7.01 43.7 6.02 42 5C37.05 5 32.1 5 27 5C25.68 4.34 24.36 3.68 23 3C17.06 3.495 17.06 3.495 11 4C10.01 4.66 9.02 5.32 8 6C5.36 6 2.72 6 0 6C0.33 5.01 0.66 4.02 1 3C4.96 2.01 8.92 1.02 13 0Z"/><path id="shape36" transform="matrix(0.72 0 0 0.72 43.92 31.0092240073719)" fill="#aa865c" stroke="#000000" stroke-opacity="0" stroke-width="0" stroke-linecap="square" stroke-linejoin="bevel" d="M6 0C11.28 0 16.56 0 22 0C23.65 0.66 25.3 1.32 27 2C32.445 2.495 32.445 2.495 38 3C38.99 3.66 39.98 4.32 41 5C41 5.66 41 6.32 41 7C39.02 6.67 37.04 6.34 35 6C34.505 5.505 34.505 5.505 34 5C31.36 5 28.72 5 26 5C21.05 6.485 21.05 6.485 16 8C13.69 8 11.38 8 9 8C9 7.67 9 7.34 9 7C10.65 6.67 12.3 6.34 14 6C13.01 5.01 12.02 4.02 11 3C9.02 3 7.04 3 5 3C3.35 3.66 1.7 4.32 0 5C0 4.34 0 3.68 0 3C1.98 2.01 3.96 1.02 6 0Z"/><path id="shape37" transform="matrix(0.72 0 0 0.72 72 10.1292240073719)" fill="#a87844" stroke="#000000" stroke-opacity="0" stroke-width="0" stroke-linecap="square" stroke-linejoin="bevel" d="M18 0C19.32 0.33 20.64 0.66 22 1C22.66 1.33 23.32 1.66 24 2C23.67 3.32 23.34 4.64 23 6C23.33 7.98 23.66 9.96 24 12C23.34 12.66 22.68 13.32 22 14C20.68 14 19.36 14 18 14C17.01 13.01 16.02 12.02 15 11C14.34 11 13.68 11 13 11C12.67 8.69 12.34 6.38 12 4C13.65 3.67 15.3 3.34 17 3C11.39 2.67 5.78 2.34 0 2C0 1.67 0 1.34 0 1C5.94 0.67 11.88 0.34 18 0Z"/><path id="shape38" transform="matrix(0.72 0 0 0.72 350.64 7.96922400737182)" fill="#76a31d" stroke="#000000" stroke-opacity="0" stroke-width="0" stroke-linecap="square" stroke-linejoin="bevel" d="M26 0C29.3 0 32.6 0 36 0C34.02 0.99 34.02 0.99 32 2C31.2214 2.28102 30.4428 2.56203 29.6406 2.85156C28.8517 3.1068 28.0628 3.36203 27.25 3.625C25.8475 4.07875 24.445 4.5325 23 5C23 5.66 23 6.32 23 7C21.02 7.99 21.02 7.99 19 9C16.03 8.505 16.03 8.505 13 8C12.67 7.34 12.34 6.68 12 6C12 5.67 12 5.34 12 5C11.34 5 10.68 5 10 5C10.33 5.99 10.66 6.98 11 8C8.36 7.67 5.72 7.34 3 7C2.01 6.01 1.02 5.02 0 4C0.78375 3.835 1.5675 3.67 2.375 3.5C3.24125 3.335 4.1075 3.17 5 3C5.66 3 6.32 3 7 3C7 2.67 7 2.34 7 2C10.3 1.67 13.6 1.34 17 1C17.66 1.66 18.32 2.32 19 3C20.32 2.67 21.64 2.34 23 2C23.99 1.34 24.98 0.68 26 0Z"/><path id="shape39" transform="matrix(0.72 0 0 0.72 231.12 11.5692240073719)" fill="#99702b" stroke="#000000" stroke-opacity="0" stroke-width="0" stroke-linecap="square" stroke-linejoin="bevel" d="M4 0C8.62 0 13.24 0 18 0C18 2.31 18 4.62 18 7C17.67 7.33 17.34 7.66 17 8C14.69 8 12.38 8 10 8C6.7 7.01 3.4 6.02 0 5C0.33 4.01 0.66 3.02 1 2C1.99 1.34 2.98 0.68 4 0Z"/><path id="shape40" transform="matrix(0.72 0 0 0.72 190.8 22.369224007372)" fill="#6e8421" stroke="#000000" stroke-opacity="0" stroke-width="0" stroke-linecap="square" stroke-linejoin="bevel" d="M0 0C2.97 0 5.94 0 9 0C10.98 1.32 12.96 2.64 15 4C15.99 3.01 16.98 2.02 18 1C19.32 1.33 20.64 1.66 22 2C20.35 4.97 18.7 7.94 17 11C15.7625 10.8556 14.525 10.7112 13.25 10.5625C11.8475 10.3769 10.445 10.1913 9 10C7.68 9.67 6.36 9.34 5 9C4.67 7.68 4.34 6.36 4 5C5.32 4.67 6.64 4.34 8 4C7.01 3.34 6.02 2.68 5 2C3.35 1.67 1.7 1.34 0 1C0 0.67 0 0.34 0 0Z"/><path id="shape41" transform="matrix(0.72 0 0 0.72 274.32 25.9692240073719)" fill="#966c25" stroke="#000000" stroke-opacity="0" stroke-width="0" stroke-linecap="square" stroke-linejoin="bevel" d="M2 0C3.98 0 5.96 0 8 0C9.32 1.32 10.64 2.64 12 4C11.34 5.98 10.68 7.96 10 10C9.34 10.66 8.68 11.32 8 12C7.34 12 6.68 12 6 12C5.01 12.33 4.02 12.66 3 13C2.01 10.03 1.02 7.06 0 4C0 3.01 0 2.02 0 1C0.66 0.67 1.32 0.34 2 0Z"/><path id="shape42" transform="matrix(0.72 0 0 0.72 257.76 33.1692240073719)" fill="#b38534" stroke="#000000" stroke-opacity="0" stroke-width="0" stroke-linecap="square" stroke-linejoin="bevel" d="M30 0C30.33 0.99 30.66 1.98 31 3C29.35 4.32 27.7 5.64 26 7C23.03 7 20.06 7 17 7C14.525 6.01 14.525 6.01 12 5C8.04 5 4.08 5 0 5C1.32 3.68 2.64 2.36 4 1C7.3 1 10.6 1 14 1C16.97 1.99 19.94 2.98 23 4C24.98 3.01 26.96 2.02 29 1C29.33 0.67 29.66 0.34 30 0Z"/><path id="shape43" transform="matrix(0.72 0 0 0.72 223.92 33.1692240073719)" fill="#5b4125" stroke="#000000" stroke-opacity="0" stroke-width="0" stroke-linecap="square" stroke-linejoin="bevel" d="M13 0C18.445 0.99 18.445 0.99 24 2C23.34 3.32 22.68 4.64 22 6C20.68 6.99 19.36 7.98 18 9C15.525 7.515 15.525 7.515 13 6C12.67 5.01 12.34 4.02 12 3C11.34 3.66 10.68 4.32 10 5C6.7 5 3.4 5 0 5C1.32 4.01 2.64 3.02 4 2C6.97 1.34 9.94 0.68 13 0Z"/><path id="shape44" transform="matrix(0.72 0 0 0.72 559.44 10.849224007372)" fill="#8c6326" stroke="#000000" stroke-opacity="0" stroke-width="0" stroke-linecap="square" stroke-linejoin="bevel" d="M7 0C10.3 0.33 13.6 0.66 17 1C17.33 1.66 17.66 2.32 18 3C12.06 3.495 12.06 3.495 6 4C6.33 5.65 6.66 7.3 7 9C7.33 9.33 7.66 9.66 8 10C12.95 10.33 17.9 10.66 23 11C22.67 11.99 22.34 12.98 22 14C21.1621 13.8363 20.3242 13.6726 19.4609 13.5039C18.3188 13.3376 17.1767 13.1713 16 13C14.194 12.9517 14.194 12.9517 12.3516 12.9023C11.1218 12.9139 9.89203 12.9255 8.625 12.9375C7.37977 12.9465 6.13453 12.9555 4.85156 12.9648C3.91055 12.9764 2.96953 12.988 2 13C2.33 11.68 2.66 10.36 3 9C2.67 7.35 2.34 5.7 2 4C3.65 2.68 5.3 1.36 7 0ZM0 13C2 14 2 14 2 14Z"/><path id="shape45" transform="matrix(0.72 0 0 0.72 563.04 31.0092240073719)" fill="#a9833c" stroke="#000000" stroke-opacity="0" stroke-width="0" stroke-linecap="square" stroke-linejoin="bevel" d="M0 0C5.28 0 10.56 0 16 0C16.66 0.33 17.32 0.66 18 1C18 2.65 18 4.3 18 6C17.67 6.33 17.34 6.66 17 7C14.36 7 11.72 7 9 7C9 6.01 9 5.02 9 4C6.03 3.505 6.03 3.505 3 3C2.01 2.01 1.02 1.02 0 0Z"/><path id="shape46" transform="matrix(0.72 0 0 0.72 536.4 33.1692240073719)" fill="#63492c" stroke="#000000" stroke-opacity="0" stroke-width="0" stroke-linecap="square" stroke-linejoin="bevel" d="M8 0C10.97 0.33 13.94 0.66 17 1C17.99 1.99 18.98 2.98 20 4C18.02 5.65 16.04 7.3 14 9C14 8.34 14 7.68 14 7C13.01 7.33 12.02 7.66 11 8C9.68 7.01 8.36 6.02 7 5C5.35 5 3.7 5 2 5C2 4.34 2 3.68 2 3C1.34 2.67 0.68 2.34 0 2C2.64 1.34 5.28 0.68 8 0Z"/><path id="shape47" transform="matrix(0.72 0 0 0.72 460.08 32.4492240073719)" fill="#956327" stroke="#000000" stroke-opacity="0" stroke-width="0" stroke-linecap="square" stroke-linejoin="bevel" d="M18 0C23.28 0 28.56 0 34 0C34 0.33 34 0.66 34 1C32.5459 1.15469 32.5459 1.15469 31.0625 1.3125C29.7219 1.53938 28.3813 1.76625 27 2C26.1853 2.24234 25.3706 2.48469 24.5313 2.73438C23.3092 3.1443 23.3092 3.1443 22.0625 3.5625C20.7219 4.03688 19.3813 4.51125 18 5C17.01 5.99 16.02 6.98 15 8C11.7 8.33 8.4 8.66 5 9C4.01 9.495 4.01 9.495 3 10C2.01 9.34 1.02 8.68 0 8C1.65 7.34 3.3 6.68 5 6C8.3 6 11.6 6 15 6C15.33 4.35 15.66 2.7 16 1C16.66 0.67 17.32 0.34 18 0Z"/><path id="shape48" transform="matrix(0.72 0 0 0.72 161.28 29.569224007372)" fill="#a38048" stroke="#000000" stroke-opacity="0" stroke-width="0" stroke-linecap="square" stroke-linejoin="bevel" d="M19 0C20.98 0 22.96 0 25 0C23.35 1.32 21.7 2.64 20 4C18.68 4.47438 17.36 4.94875 16 5.4375C15.1866 5.71078 14.3732 5.98406 13.5352 6.26563C12.2803 6.62914 12.2803 6.62914 11 7C10.215 7.13922 9.42992 7.27844 8.62109 7.42188C7.54021 7.55336 7.54021 7.55336 6.4375 7.6875C5.30312 7.79063 4.16875 7.89375 3 8C1.515 8.99 1.515 8.99 0 10C0.33 8.35 0.66 6.7 1 5C6.94 3.35 12.88 1.7 19 0Z"/><path id="shape49" transform="matrix(0.72 0 0 0.72 509.04 12.2892240073719)" fill="#a7825c" stroke="#000000" stroke-opacity="0" stroke-width="0" stroke-linecap="square" stroke-linejoin="bevel" d="M0 0C3.3 0 6.6 0 10 0C10.66 0.33 11.32 0.66 12 1C15.3 1.33 18.6 1.66 22 2C21.2575 2.59813 20.515 3.19625 19.75 3.8125C18.8425 4.53437 17.935 5.25625 17 6C16.2369 6.5775 15.4738 7.155 14.6875 7.75C14.1306 8.1625 13.5738 8.575 13 9C11.68 7.68 10.36 6.36 9 5C4.545 3.02 4.545 3.02 0 1C0 0.67 0 0.34 0 0Z"/><path id="shape50" transform="matrix(0.72 0 0 0.72 50.4 32.449224007372)" fill="#c3a66b" stroke="#000000" stroke-opacity="0" stroke-width="0" stroke-linecap="square" stroke-linejoin="bevel" d="M15 0C21.93 0.495 21.93 0.495 29 1C29.99 1.66 30.98 2.32 32 3C32 3.66 32 4.32 32 5C29.03 4.505 29.03 4.505 26 4C25.67 3.67 25.34 3.34 25 3C22.36 3 19.72 3 17 3C12.05 4.485 12.05 4.485 7 6C4.69 6 2.38 6 0 6C0 5.67 0 5.34 0 5C1.65 4.67 3.3 4.34 5 4C5 3.01 5 2.02 5 1C6.65 1 8.3 1 10 1C10.66 1.33 11.32 1.66 12 2C12.99 2 13.98 2 15 2C15 1.34 15 0.68 15 0Z"/><path id="shape51" transform="matrix(0.72 0 0 0.72 64.8 34.609224007372)" fill="#5e4527" stroke="#000000" stroke-opacity="0" stroke-width="0" stroke-linecap="square" stroke-linejoin="bevel" d="M1 0C5.455 0.99 5.455 0.99 10 2C10.66 2.66 11.32 3.32 12 4C9.69 5.98 7.38 7.96 5 10C3.35 8.02 1.7 6.04 0 4C0.33 2.68 0.66 1.36 1 0Z"/><path id="shape52" transform="matrix(0.72 0 0 0.72 58.32 25.9692240073719)" fill="#926941" stroke="#000000" stroke-opacity="0" stroke-width="0" stroke-linecap="square" stroke-linejoin="bevel" d="M4 0C4.99 0.33 5.98 0.66 7 1C5.02 1.99 5.02 1.99 3 3C2.67 3.99 2.34 4.98 2 6C6.29 6.33 10.58 6.66 15 7C17.31 5.68 19.62 4.36 22 3C23.65 2.67 25.3 2.34 27 2C28.32 2.99 29.64 3.98 31 5C27.7 5.33 24.4 5.66 21 6C19.35 6.99 17.7 7.98 16 9C12.7 9 9.4 9 6 9C4.02 8.34 2.04 7.68 0 7C0.33 5.35 0.66 3.7 1 2C1.99 1.34 2.98 0.68 4 0Z"/><path id="shape53" transform="matrix(0.72 0 0 0.72 142.56 9.40922400737201)" fill="#6d8e27" stroke="#000000" stroke-opacity="0" stroke-width="0" stroke-linecap="square" stroke-linejoin="bevel" d="M0 0C3.3 0 6.6 0 10 0C11.98 1.32 13.96 2.64 16 4C16 4.66 16 5.32 16 6C16.66 6 17.32 6 18 6C18.33 5.01 18.66 4.02 19 3C20.32 2.67 21.64 2.34 23 2C21.35 4.31 19.7 6.62 18 9C16.68 8.34 15.36 7.68 14 7C13.2214 6.57461 12.4428 6.14922 11.6406 5.71094C10.8517 5.27008 10.0628 4.82922 9.25 4.375C8.05117 3.70598 8.05117 3.70598 6.82813 3.02344C6.22484 2.6857 5.62156 2.34797 5 2C3.35 1.67 1.7 1.34 0 1C0 0.67 0 0.34 0 0Z"/><path id="shape54" transform="matrix(0.72 0 0 0.72 506.16 19.489224007372)" fill="#886926" stroke="#000000" stroke-opacity="0" stroke-width="0" stroke-linecap="square" stroke-linejoin="bevel" d="M3 0C6.3 0.33 9.6 0.66 13 1C13.99 1.66 14.98 2.32 16 3C17.65 2.01 19.3 1.02 21 0C23.31 0.66 25.62 1.32 28 2C28 2.33 28 2.66 28 3C22.555 3.99 22.555 3.99 17 5C15.5769 4.81438 15.5769 4.81438 14.125 4.625C12.7637 4.41875 11.4025 4.2125 10 4C8.66775 3.7467 8.66775 3.7467 7.30859 3.48828C6.40238 3.30652 5.49617 3.12477 4.5625 2.9375C3.69754 2.7609 2.83258 2.5843 1.94141 2.40234C0.98041 2.20318 0.98041 2.20318 0 2C0.99 1.34 1.98 0.68 3 0Z"/><path id="shape55" transform="matrix(0.72 0 0 0.72 105.84 21.6492240073719)" fill="#7b7c1f" stroke="#000000" stroke-opacity="0" stroke-width="0" stroke-linecap="square" stroke-linejoin="bevel" d="M5 0C8.3 0.33 11.6 0.66 15 1C15.66 1.66 16.32 2.32 17 3C17.33 2.67 17.66 2.34 18 2C19.98 2 21.96 2 24 2C23.01 3.65 22.02 5.3 21 7C18.525 6.505 18.525 6.505 16 6C14.02 5.01 12.04 4.02 10 3C6.7 2.67 3.4 2.34 0 2C0 1.67 0 1.34 0 1C1.65 0.67 3.3 0.34 5 0Z"/><path id="shape56" transform="matrix(0.72 0 0 0.72 98.64 31.7292240073719)" fill="#9c7e38" stroke="#000000" stroke-opacity="0" stroke-width="0" stroke-linecap="square" stroke-linejoin="bevel" d="M0 0C3.96 0.33 7.92 0.66 12 1C13.32 1.99 14.64 2.98 16 4C16 5.32 16 6.64 16 8C15.01 7.73188 14.02 7.46375 13 7.1875C11.68 6.79563 10.36 6.40375 9 6C7.88818 5.60361 7.88818 5.60361 6.75391 5.19922C6.03074 4.92723 5.30758 4.65523 4.5625 4.375C3.38687 3.92125 2.21125 3.4675 1 3C0.67 2.01 0.34 1.02 0 0Z"/><path id="shape57" transform="matrix(0.72 0 0 0.72 200.88 33.8892240073719)" fill="#9f6b2c" stroke="#000000" stroke-opacity="0" stroke-width="0" stroke-linecap="square" stroke-linejoin="bevel" d="M6 0C7.98 0 9.96 0 12 0C13.65 1.32 15.3 2.64 17 4C17 4.66 17 5.32 17 6C17.66 6.33 18.32 6.66 19 7C17.68 6.67 16.36 6.34 15 6C14.01 5.34 13.02 4.68 12 4C10.02 4 8.04 4 6 4C4.02 4.99 2.04 5.98 0 7C0 6.01 0 5.02 0 4C1.98 2.68 3.96 1.36 6 0Z"/><path id="shape58" transform="matrix(0.72 0 0 0.72 252.72 20.9292240073719)" fill="#916b41" stroke="#000000" stroke-opacity="0" stroke-width="0" stroke-linecap="square" stroke-linejoin="bevel" d="M11 0C13.64 0 16.28 0 19 0C22.465 1.485 22.465 1.485 26 3C25.67 3.66 25.34 4.32 25 5C22.69 4.34 20.38 3.68 18 3C15.69 3 13.38 3 11 3C8.03 4.65 5.06 6.3 2 8C1.34 7.67 0.68 7.34 0 7C1.65 5.68 3.3 4.36 5 3C6.98 2.01 8.96 1.02 11 0Z"/><path id="shape59" transform="matrix(0.72 0 0 0.72 74.16 34.609224007372)" fill="#cab16f" stroke="#000000" stroke-opacity="0" stroke-width="0" stroke-linecap="square" stroke-linejoin="bevel" d="M2 0C7.61 0 13.22 0 19 0C21.475 1.485 21.475 1.485 24 3C23.67 3.66 23.34 4.32 23 5C21.02 4.34 19.04 3.68 17 3C11.39 3 5.78 3 0 3C0 2.34 0 1.68 0 1C0.66 0.67 1.32 0.34 2 0Z"/><path id="shape60" transform="matrix(0.72 0 0 0.72 133.92 33.799224007372)" fill="#b48131" stroke="#000000" stroke-opacity="0" stroke-width="0" stroke-linecap="square" stroke-linejoin="bevel" d="M10 0.125C11.3613 0.08375 12.7225 0.0425 14.125 0C15.0738 0.04125 16.0225 0.0825 17 0.125C18.65 0.785 20.3 1.445 22 2.125C22.33 2.785 22.66 3.445 23 4.125C11.615 3.63 11.615 3.63 0 3.125C0 2.795 0 2.465 0 2.125C0.640664 1.98063 1.28133 1.83625 1.94141 1.6875C3.23885 1.40906 3.23885 1.40906 4.5625 1.125C5.46871 0.941953 6.37492 0.758906 7.30859 0.570313C8.19676 0.423359 9.08492 0.276406 10 0.125Z"/><path id="shape61" transform="matrix(0.72 0 0 0.72 529.2 31.7292240073719)" fill="#b48d59" stroke="#000000" stroke-opacity="0" stroke-width="0" stroke-linecap="square" stroke-linejoin="bevel" d="M15 0C17.64 0 20.28 0 23 0C22.34 0.66 21.68 1.32 21 2C17.37 2.99 13.74 3.98 10 5C6.7 5 3.4 5 0 5C0.99 4.34 1.98 3.68 3 3C6.96 2.01 10.92 1.02 15 0Z"/><path id="shape62" transform="matrix(0.72 0 0 0.72 336.96 10.705786507372)" fill="#ab8a62" stroke="#000000" stroke-opacity="0" stroke-width="0" stroke-linecap="square" stroke-linejoin="bevel" d="M0 0.199219C0.930059 0.147012 0.930059 0.147012 1.87891 0.09375C2.76449 0.0666797 3.65008 0.0396094 4.5625 0.0117188C5.54992 0.00785156 6.53734 0.00398437 7.55469 0C9.26012 0.0986133 9.26012 0.0986133 11 0.199219C13.0148 0.529863 13.0148 0.529863 15.0703 0.867188C16.429 1.14176 17.7877 1.41633 19.1875 1.69922C20.4804 1.97766 21.7734 2.25609 23.1055 2.54297C24.0607 2.75953 25.0159 2.97609 26 3.19922C26 3.52922 26 3.85922 26 4.19922C20.72 4.19922 15.44 4.19922 10 4.19922C8.68 3.53922 7.36 2.87922 6 2.19922C3.03 1.70422 3.03 1.70422 0 1.19922C0 0.869219 0 0.539219 0 0.199219Z"/><path id="shape63" transform="matrix(0.72 0 0 0.72 272.88 37.489224007372)" fill="#79561e" stroke="#000000" stroke-opacity="0" stroke-width="0" stroke-linecap="square" stroke-linejoin="bevel" d="M5 0C10.94 1.98 16.88 3.96 23 6C23.99 6.99 24.98 7.98 26 9C24.9197 8.79613 24.9197 8.79613 23.8176 8.58813C22.8878 8.39405 21.958 8.19997 21 8C20.1765 7.78078 19.3531 7.56156 18.5046 7.33569C17.651 7.08956 16.7974 6.84343 15.918 6.58984C14.9866 6.32236 14.0553 6.05488 13.0957 5.7793C11.6561 5.36261 11.6561 5.36261 10.1875 4.9375C9.20846 4.65584 8.22941 4.37418 7.2207 4.08398C6.2958 3.81779 5.3709 3.5516 4.41797 3.27734C3.57001 3.03234 2.72205 2.78734 1.84839 2.53491C1.23842 2.35839 0.628452 2.18187 0 2C0 1.67 0 1.34 0 1C1.65 0.67 3.3 0.34 5 0Z"/><path id="shape64" transform="matrix(0.72 0 0 0.72 444.96 36.049224007372)" fill="#593712" stroke="#000000" stroke-opacity="0" stroke-width="0" stroke-linecap="square" stroke-linejoin="bevel" d="M8 0C11.96 0.33 15.92 0.66 20 1C18.02 1.99 18.02 1.99 16 3C15.34 3.66 14.68 4.32 14 5C13.01 5.495 13.01 5.495 12 6C10.35 5.01 8.7 4.02 7 3C4.69 3 2.38 3 0 3C0.33 2.34 0.66 1.68 1 1C4.465 0.505 4.465 0.505 8 0Z"/><path id="shape65" transform="matrix(0.72 0 0 0.72 374.4 34.609224007372)" fill="#5d3a14" stroke="#000000" stroke-opacity="0" stroke-width="0" stroke-linecap="square" stroke-linejoin="bevel" d="M1 0C6.445 0.99 6.445 0.99 12 2C11.67 2.66 11.34 3.32 11 4C9.02 4.99 9.02 4.99 7 6C5.02 6.99 5.02 6.99 3 8C2.01 7.01 1.02 6.02 0 5C0.33 3.35 0.66 1.7 1 0Z"/><path id="shape66" transform="matrix(0.72 0 0 0.72 321.84 30.2892240073719)" fill="#664b20" stroke="#000000" stroke-opacity="0" stroke-width="0" stroke-linecap="square" stroke-linejoin="bevel" d="M3 0C3.66 0.33 4.32 0.66 5 1C6.32 1.66 7.64 2.32 9 3C8.67 4.32 8.34 5.64 8 7C7.01 7.99 6.02 8.98 5 10C4.67 9.01 4.34 8.02 4 7C2.68 6.34 1.36 5.68 0 5C0 4.01 0 3.02 0 2C0.99 1.34 1.98 0.68 3 0Z"/><path id="shape67" transform="matrix(0.72 0 0 0.72 123.84 36.7692240073719)" fill="#89571f" stroke="#000000" stroke-opacity="0" stroke-width="0" stroke-linecap="square" stroke-linejoin="bevel" d="M0 0C5.94 0 11.88 0 18 0C17.01 0.66 16.02 1.32 15 2C14.3812 2.165 13.7625 2.33 13.125 2.5C11.5781 2.7475 11.5781 2.7475 10 3C8.7335 3.03287 8.7335 3.03287 7.44141 3.06641C6.53262 3.06512 5.62383 3.06383 4.6875 3.0625C3.80449 3.05348 2.92148 3.04445 2.01172 3.03516C1.34785 3.02355 0.683984 3.01195 0 3C0 2.01 0 1.02 0 0Z"/><path id="shape68" transform="matrix(0.72 0 0 0.72 157.68 9.40922400737201)" fill="#c4c9a1" stroke="#000000" stroke-opacity="0" stroke-width="0" stroke-linecap="square" stroke-linejoin="bevel" d="M4 0C4.66 0 5.32 0 6 0C6 0.66 6 1.32 6 2C10.29 2.33 14.58 2.66 19 3C19.99 4.485 19.99 4.485 21 6C15.72 6 10.44 6 5 6C5.33 5.34 5.66 4.68 6 4C4.02 4.33 2.04 4.66 0 5C0.66 3.68 1.32 2.36 2 1C2.66 0.67 3.32 0.34 4 0Z"/><path id="shape69" transform="matrix(0.72 0 0 0.72 174.96 10.1292240073719)" fill="#9aa861" stroke="#000000" stroke-opacity="0" stroke-width="0" stroke-linecap="square" stroke-linejoin="bevel" d="M2 0C4.64 0.33 7.28 0.66 10 1C8.02 1.99 8.02 1.99 6 3C12.93 3.495 12.93 3.495 20 4C20 4.33 20 4.66 20 5C13.4 5.33 6.8 5.66 0 6C0.66 4.02 1.32 2.04 2 0Z"/><path id="shape70" transform="matrix(0.72 0 0 0.72 414.72 41.0892240073719)" fill="#553a1c" stroke="#000000" stroke-opacity="0" stroke-width="0" stroke-linecap="square" stroke-linejoin="bevel" d="M13 0C15.97 0.99 18.94 1.98 22 3C22 3.33 22 3.66 22 4C21.0719 4 20.1438 4 19.1875 4C18.1356 4 17.0838 4 16 4C15.01 4 14.02 4 13 4C9.37 7.63 5.74 11.26 2 15C1.34 14.67 0.68 14.34 0 14C3.96 10.04 7.92 6.08 12 2C12.33 1.34 12.66 0.68 13 0Z"/><path id="shape71" transform="matrix(0.72 0 0 0.72 178.56 15.8892240073719)" fill="#6e821f" stroke="#000000" stroke-opacity="0" stroke-width="0" stroke-linecap="square" stroke-linejoin="bevel" d="M9 0C10.65 0 12.3 0 14 0C13.01 0.66 12.02 1.32 11 2C11.33 2.99 11.66 3.98 12 5C9.69 5.33 7.38 5.66 5 6C3.35 4.35 1.7 2.7 0 1C2.31 1.33 4.62 1.66 7 2C7.66 1.34 8.32 0.68 9 0Z"/><path id="shape72" transform="matrix(0.72 0 0 0.72 114.48 41.0892240073719)" fill="#6d5630" stroke="#000000" stroke-opacity="0" stroke-width="0" stroke-linecap="square" stroke-linejoin="bevel" d="M0 0C4.95 0.99 4.95 0.99 10 2C10.33 1.34 10.66 0.68 11 0C14.465 1.98 14.465 1.98 18 4C17.01 4.495 17.01 4.495 16 5C11.71 4.67 7.42 4.34 3 4C2.01 2.68 1.02 1.36 0 0Z"/><path id="shape73" transform="matrix(0.72 0 0 0.72 433.44 36.7692240073719)" fill="#89571f" stroke="#000000" stroke-opacity="0" stroke-width="0" stroke-linecap="square" stroke-linejoin="bevel" d="M1 0C6.28 0 11.56 0 17 0C16.01 0.66 15.02 1.32 14 2C12.68 2.33 11.36 2.66 10 3C6.7 3 3.4 3 0 3C0.33 2.01 0.66 1.02 1 0Z"/><path id="shape74" transform="matrix(0.72 0 0 0.72 308.16 32.4492240073719)" fill="#8b6422" stroke="#000000" stroke-opacity="0" stroke-width="0" stroke-linecap="square" stroke-linejoin="bevel" d="M2 0C5.96 0 9.92 0 14 0C12.68 0.99 11.36 1.98 10 3C6.7 3.33 3.4 3.66 0 4C0 3.01 0 2.02 0 1C0.66 0.67 1.32 0.34 2 0Z"/><path id="shape75" transform="matrix(0.72 0 0 0.72 144.72 13.0092240073719)" fill="#ab9863" stroke="#000000" stroke-opacity="0" stroke-width="0" stroke-linecap="square" stroke-linejoin="bevel" d="M17 0C17.66 1.32 18.32 2.64 19 4C17.35 4.66 15.7 5.32 14 6C7.565 6.495 7.565 6.495 1 7C0.67 6.01 0.34 5.02 0 4C0.99 4 1.98 4 3 4C4.21687 4 5.43375 4 6.6875 4C7.78063 4 8.87375 4 10 4C10.33 3.01 10.66 2.02 11 1C12.32 1.66 13.64 2.32 15 3C15.66 2.01 16.32 1.02 17 0Z"/><path id="shape76" transform="matrix(0.72 0 0 0.72 213.84 35.3292240073719)" fill="#936d41" stroke="#000000" stroke-opacity="0" stroke-width="0" stroke-linecap="square" stroke-linejoin="bevel" d="M3 0C7.29 0 11.58 0 16 0C14.02 0.99 14.02 0.99 12 2C8.7 2.66 5.4 3.32 2 4C1.34 3.34 0.68 2.68 0 2C0.99 1.34 1.98 0.68 3 0Z"/><path id="shape77" transform="matrix(0.72 0 0 0.72 460.08 35.3292240073719)" fill="#7d5112" stroke="#000000" stroke-opacity="0" stroke-width="0" stroke-linecap="square" stroke-linejoin="bevel" d="M16 0C16.66 0.33 17.32 0.66 18 1C17.01 1.99 16.02 2.98 15 4C11.7 4.33 8.4 4.66 5 5C4.01 5.495 4.01 5.495 3 6C2.01 5.34 1.02 4.68 0 4C1.65 3.34 3.3 2.68 5 2C8.3 1.67 11.6 1.34 15 1C15.33 0.67 15.66 0.34 16 0Z"/><path id="shape78" transform="matrix(0.72 0 0 0.72 164.16 9.40922400737201)" fill="#73932f" stroke="#000000" stroke-opacity="0" stroke-width="0" stroke-linecap="square" stroke-linejoin="bevel" d="M0 0C2.97 0 5.94 0 9 0C10.32 0.99 11.64 1.98 13 3C13.99 3 14.98 3 16 3C15.67 4.32 15.34 5.64 15 7C13.68 6.34 12.36 5.68 11 5C9.9275 4.46375 8.855 3.9275 7.75 3.375C6.8425 2.92125 5.935 2.4675 5 2C3.35 1.67 1.7 1.34 0 1C0 0.67 0 0.34 0 0Z"/><path id="shape79" transform="matrix(0.72 0 0 0.72 505.44 34.609224007372)" fill="#7b4f17" stroke="#000000" stroke-opacity="0" stroke-width="0" stroke-linecap="square" stroke-linejoin="bevel" d="M0 0C1.98 0.99 1.98 0.99 4 2C4 2.99 4 3.98 4 5C6.31 3.35 8.62 1.7 11 0C11.99 0.33 12.98 0.66 14 1C12.68 2.32 11.36 3.64 10 5C9.01 5.495 9.01 5.495 8 6C6.02 6 4.04 6 2 6C1.67 4.68 1.34 3.36 1 2C0.67 1.34 0.34 0.68 0 0Z"/><path id="shape80" transform="matrix(0.72 0 0 0.72 493.92 72.7692240073721)" fill="#4c4133" stroke="#000000" stroke-opacity="0" stroke-width="0" stroke-linecap="square" stroke-linejoin="bevel" d="M5 0C5.66 0 6.32 0 7 0C7 1.32 7 2.64 7 4C8.32 4 9.64 4 11 4C11 4.66 11 5.32 11 6C7.37 6 3.74 6 0 6C0 5.34 0 4.68 0 4C1.65 4 3.3 4 5 4C5 2.68 5 1.36 5 0Z"/><path id="shape81" transform="matrix(0.72 0 0 0.72 282.96 70.6092240073719)" fill="#443b2b" stroke="#000000" stroke-opacity="0" stroke-width="0" stroke-linecap="square" stroke-linejoin="bevel" d="M0 0C1.32 0.33 2.64 0.66 4 1C4.99 1.66 5.98 2.32 7 3C8.32 2.01 9.64 1.02 11 0C10.34 1.32 9.68 2.64 9 4C8.34 4.66 7.68 5.32 7 6C5.68 5.67 4.36 5.34 3 5C3 4.34 3 3.68 3 3C2.01 2.67 1.02 2.34 0 2C0 1.34 0 0.68 0 0Z"/><path id="shape82" transform="matrix(0.72 0 0 0.72 -2.08721928629529e-14 31.7292240073719)" fill="#ac832d" stroke="#000000" stroke-opacity="0" stroke-width="0" stroke-linecap="square" stroke-linejoin="bevel" d="M6 0C7.65 0.33 9.3 0.66 11 1C9.515 2.485 9.515 2.485 8 4C5.36 4 2.72 4 0 4C0.33 3.01 0.66 2.02 1 1C2.65 0.67 4.3 0.34 6 0Z"/><path id="shape83" transform="matrix(0.72 0 0 0.72 278.64 72.7692240073721)" fill="#473d2f" stroke="#000000" stroke-opacity="0" stroke-width="0" stroke-linecap="square" stroke-linejoin="bevel" d="M4 0C4.66 0 5.32 0 6 0C6 1.32 6 2.64 6 4C7.32 4 8.64 4 10 4C10 4.66 10 5.32 10 6C6.7 6 3.4 6 0 6C0 5.34 0 4.68 0 4C1.32 4 2.64 4 4 4C4 2.68 4 1.36 4 0Z"/><path id="shape84" transform="matrix(0.72 0 0 0.72 36 33.8892240073719)" fill="#8c5c20" stroke="#000000" stroke-opacity="0" stroke-width="0" stroke-linecap="square" stroke-linejoin="bevel" d="M7 0C7.99 0.33 8.98 0.66 10 1C10.33 1.66 10.66 2.32 11 3C8.36 3.99 5.72 4.98 3 6C2.01 5.67 1.02 5.34 0 5C1.32 3.68 2.64 2.36 4 1C4.99 0.67 5.98 0.34 7 0Z"/><path id="shape85" transform="matrix(0.72 0 0 0.72 452.16 34.609224007372)" fill="#935d22" stroke="#000000" stroke-opacity="0" stroke-width="0" stroke-linecap="square" stroke-linejoin="bevel" d="M2 0C3.98 0 5.96 0 8 0C8.99 0.66 9.98 1.32 11 2C10.67 2.99 10.34 3.98 10 5C10 4.34 10 3.68 10 3C7.36 3 4.72 3 2 3C1.34 2.34 0.68 1.68 0 1C0.66 0.67 1.32 0.34 2 0Z"/><path id="shape86" transform="matrix(0.72 0 0 0.72 46.08 33.8892240073719)" fill="#a57c51" stroke="#000000" stroke-opacity="0" stroke-width="0" stroke-linecap="square" stroke-linejoin="bevel" d="M1 0C2.65 0 4.3 0 6 0C8.475 0.99 8.475 0.99 11 2C11 2.33 11 2.66 11 3C8.36 3.66 5.72 4.32 3 5C3 4.34 3 3.68 3 3C2.01 2.67 1.02 2.34 0 2C0.33 1.34 0.66 0.68 1 0Z"/><path id="shape87" transform="matrix(0.72 0 0 0.72 12.24 31.7292240073719)" fill="#614416" stroke="#000000" stroke-opacity="0" stroke-width="0" stroke-linecap="square" stroke-linejoin="bevel" d="M0 0C2.97 0.33 5.94 0.66 9 1C7.35 2.32 5.7 3.64 4 5C3.01 4.67 2.02 4.34 1 4C0.67 2.68 0.34 1.36 0 0Z"/><path id="shape88" transform="matrix(0.72 0 0 0.72 498.96 70.6092240073719)" fill="#514638" stroke="#000000" stroke-opacity="0" stroke-width="0" stroke-linecap="square" stroke-linejoin="bevel" d="M0 0C1.32 0.33 2.64 0.66 4 1C4.99 1.66 5.98 2.32 7 3C8.32 2.01 9.64 1.02 11 0C10.34 1.32 9.68 2.64 9 4C7.02 4.99 7.02 4.99 5 6C3.35 4.68 1.7 3.36 0 2C0 1.34 0 0.68 0 0Z"/><path id="shape89" transform="matrix(0.72 0 0 0.72 410.4 34.609224007372)" fill="#80521b" stroke="#000000" stroke-opacity="0" stroke-width="0" stroke-linecap="square" stroke-linejoin="bevel" d="M0 0C2.475 0.495 2.475 0.495 5 1C7.97 2.98 7.97 2.98 11 5C9.68 5.33 8.36 5.66 7 6C4.69 5.01 2.38 4.02 0 3C0 2.01 0 1.02 0 0Z"/><path id="shape90" transform="matrix(0.72 0 0 0.72 506.16 19.489224007372)" fill="#729a0e" stroke="#000000" stroke-opacity="0" stroke-width="0" stroke-linecap="square" stroke-linejoin="bevel" d="M3 0C5.64 0.33 8.28 0.66 11 1C11.99 2.32 12.98 3.64 14 5C9.38 4.01 4.76 3.02 0 2C0.99 1.34 1.98 0.68 3 0Z"/><path id="shape91" transform="matrix(0.72 0 0 0.72 227.52 17.3292240073719)" fill="#ae9366" stroke="#000000" stroke-opacity="0" stroke-width="0" stroke-linecap="square" stroke-linejoin="bevel" d="M7 0C7.33 1.32 7.66 2.64 8 4C5.03 5.98 5.03 5.98 2 8C1.34 7.67 0.68 7.34 0 7C1.32 5.35 2.64 3.7 4 2C4.99 1.34 5.98 0.68 7 0Z"/><path id="shape92" transform="matrix(0.72 0 0 0.72 239.04 11.5692240073719)" fill="#906718" stroke="#000000" stroke-opacity="0" stroke-width="0" stroke-linecap="square" stroke-linejoin="bevel" d="M0 0C2.31 0 4.62 0 7 0C7 2.31 7 4.62 7 7C5.68 6.34 4.36 5.68 3 5C3 4.01 3 3.02 3 2C2.01 1.34 1.02 0.68 0 0Z"/><path id="shape93" transform="matrix(0.72 0 0 0.72 129.6 20.9292240073719)" fill="#6f8021" stroke="#000000" stroke-opacity="0" stroke-width="0" stroke-linecap="square" stroke-linejoin="bevel" d="M0 0C3.3 0.33 6.6 0.66 10 1C9.67 1.99 9.34 2.98 9 4C7.02 4.33 5.04 4.66 3 5C2.34 4.34 1.68 3.68 1 3C1.33 2.67 1.66 2.34 2 2C1.34 1.34 0.68 0.68 0 0Z"/><path id="shape94" transform="matrix(0.72 0 0 0.72 340.56 34.609224007372)" fill="#705827" stroke="#000000" stroke-opacity="0" stroke-width="0" stroke-linecap="square" stroke-linejoin="bevel" d="M2 0C3.32 0.66 4.64 1.32 6 2C6 2.66 6 3.32 6 4C6.66 4.33 7.32 4.66 8 5C4.04 6.98 4.04 6.98 0 9C0 7.68 0 6.36 0 5C1.32 4.34 2.64 3.68 4 3C3.34 2.01 2.68 1.02 2 0Z"/><path id="shape95" transform="matrix(0.72 0 0 0.72 506.16 16.609224007372)" fill="#8f753c" stroke="#000000" stroke-opacity="0" stroke-width="0" stroke-linecap="square" stroke-linejoin="bevel" d="M0 0C2.31 0.33 4.62 0.66 7 1C7.66 1.33 8.32 1.66 9 2C9 2.66 9 3.32 9 4C9.66 4.33 10.32 4.66 11 5C8.36 4.67 5.72 4.34 3 4C2.01 2.68 1.02 1.36 0 0Z"/><path id="shape96" transform="matrix(0.72 0 0 0.72 357.84 36.7692240073719)" fill="#81521b" stroke="#000000" stroke-opacity="0" stroke-width="0" stroke-linecap="square" stroke-linejoin="bevel" d="M0 0C3.96 0 7.92 0 12 0C10.02 0.99 10.02 0.99 8 2C5.69 2.33 3.38 2.66 1 3C0.67 2.01 0.34 1.02 0 0Z"/><path id="shape97" transform="matrix(0.72 0 0 0.72 156.96 11.5692240073719)" fill="#748f2a" stroke="#000000" stroke-opacity="0" stroke-width="0" stroke-linecap="square" stroke-linejoin="bevel" d="M4 0C5.98 0 7.96 0 10 0C8.515 1.485 8.515 1.485 7 3C7 3.33 7 3.66 7 4C4.69 4.33 2.38 4.66 0 5C0.33 4.01 0.66 3.02 1 2C1.99 1.34 2.98 0.68 4 0Z"/><path id="shape98" transform="matrix(0.72 0 0 0.72 304.56 28.1292240073719)" fill="#946a43" stroke="#000000" stroke-opacity="0" stroke-width="0" stroke-linecap="square" stroke-linejoin="bevel" d="M10 0C10.66 0.33 11.32 0.66 12 1C10.35 1.66 8.7 2.32 7 3C7 3.99 7 4.98 7 6C6.34 6 5.68 6 5 6C5 5.34 5 4.68 5 4C3.35 4 1.7 4 0 4C0.99 3.34 1.98 2.68 3 2C5.31 1.34 7.62 0.68 10 0Z"/><path id="shape99" transform="matrix(0.72 0 0 0.72 336.96 10.849224007372)" fill="#b79676" stroke="#000000" stroke-opacity="0" stroke-width="0" stroke-linecap="square" stroke-linejoin="bevel" d="M0 0C3.63 0 7.26 0 11 0C11 1.32 11 2.64 11 4C8.525 3.01 8.525 3.01 6 2C3.03 1.505 3.03 1.505 0 1C0 0.67 0 0.34 0 0Z"/><path id="shape100" transform="matrix(0.72 0 0 0.72 248.4 10.1292240073719)" fill="#8e6428" stroke="#000000" stroke-opacity="0" stroke-width="0" stroke-linecap="square" stroke-linejoin="bevel" d="M4 0C6.475 0.99 6.475 0.99 9 2C8.67 2.99 8.34 3.98 8 5C6.35 5.33 4.7 5.66 3 6C2.01 5.01 1.02 4.02 0 3C2.475 3.495 2.475 3.495 5 4C4.67 2.68 4.34 1.36 4 0Z"/><path id="shape101" transform="matrix(0.72 0 0 0.72 257.76 33.8892240073719)" fill="#cf9b38" stroke="#000000" stroke-opacity="0" stroke-width="0" stroke-linecap="square" stroke-linejoin="bevel" d="M4 0C6.31 0.33 8.62 0.66 11 1C11 1.33 11 1.66 11 2C9.02 2 7.04 2 5 2C5 2.66 5 3.32 5 4C3.35 4 1.7 4 0 4C1.32 2.68 2.64 1.36 4 0Z"/><path id="shape102" transform="matrix(0.72 0 0 0.72 550.08 41.0892240073719)" fill="#69583c" stroke="#000000" stroke-opacity="0" stroke-width="0" stroke-linecap="square" stroke-linejoin="bevel" d="M2 0C3.32 0.33 4.64 0.66 6 1C5.01 2.32 4.02 3.64 3 5C2.01 4.67 1.02 4.34 0 4C0.66 2.68 1.32 1.36 2 0Z"/><path id="shape103" transform="matrix(0.72 0 0 0.72 328.32 36.7692240073719)" fill="#67502b" stroke="#000000" stroke-opacity="0" stroke-width="0" stroke-linecap="square" stroke-linejoin="bevel" d="M2 0C2.66 1.32 3.32 2.64 4 4C4.66 4 5.32 4 6 4C5.67 4.99 5.34 5.98 5 7C3.35 6.01 1.7 5.02 0 4C0.66 2.68 1.32 1.36 2 0Z"/><path id="shape104" transform="matrix(0.72 0 0 0.72 200.88 34.609224007372)" fill="#85561d" stroke="#000000" stroke-opacity="0" stroke-width="0" stroke-linecap="square" stroke-linejoin="bevel" d="M4 0C4.99 0.33 5.98 0.66 7 1C5.68 2.32 4.36 3.64 3 5C2.01 5.33 1.02 5.66 0 6C0 5.01 0 4.02 0 3C1.32 2.01 2.64 1.02 4 0Z"/><path id="shape105" transform="matrix(0.72 0 0 0.72 486.72 30.2892240073719)" fill="#925b20" stroke="#000000" stroke-opacity="0" stroke-width="0" stroke-linecap="square" stroke-linejoin="bevel" d="M1 0C3.97 0.495 3.97 0.495 7 1C7 1.99 7 2.98 7 4C4.69 3.34 2.38 2.68 0 2C0.33 1.34 0.66 0.68 1 0Z"/><path id="shape106" transform="matrix(0.72 0 0 0.72 7.19999999999998 20.2092240073719)" fill="#896024" stroke="#000000" stroke-opacity="0" stroke-width="0" stroke-linecap="square" stroke-linejoin="bevel" d="M5 0C6.32 0.33 7.64 0.66 9 1C6.525 2.485 6.525 2.485 4 4C2.68 4 1.36 4 0 4C0 3.34 0 2.68 0 2C1.65 1.34 3.3 0.68 5 0Z"/><path id="shape107" transform="matrix(0.72 0 0 0.72 573.12 25.9692240073719)" fill="#9c7033" stroke="#000000" stroke-opacity="0" stroke-width="0" stroke-linecap="square" stroke-linejoin="bevel" d="M3 0C3.33 0 3.66 0 4 0C4 1.98 4 3.96 4 6C2.68 5.67 1.36 5.34 0 5C0 4.01 0 3.02 0 2C0.99 1.34 1.98 0.68 3 0Z"/><path id="shape108" transform="matrix(0.72 0 0 0.72 253.44 36.049224007372)" fill="#7b5720" stroke="#000000" stroke-opacity="0" stroke-width="0" stroke-linecap="square" stroke-linejoin="bevel" d="M4 0C5.65 0.33 7.3 0.66 9 1C8.01 1.66 7.02 2.32 6 3C4.42219 4.05187 4.42219 4.05187 2.8125 5.125C1.88437 5.74375 0.95625 6.3625 0 7C0.66 5.68 1.32 4.36 2 3C2.66 2.01 3.32 1.02 4 0Z"/><path id="shape109" transform="matrix(0.72 0 0 0.72 266.4 35.3292240073719)" fill="#8f651f" stroke="#000000" stroke-opacity="0" stroke-width="0" stroke-linecap="square" stroke-linejoin="bevel" d="M2 0C3.98 0.66 5.96 1.32 8 2C8.33 2.66 8.66 3.32 9 4C6.03 3.505 6.03 3.505 3 3C2.01 2.34 1.02 1.68 0 1C0.66 0.67 1.32 0.34 2 0Z"/><path id="shape110" transform="matrix(0.72 0 0 0.72 287.28 25.2492240073719)" fill="#bf993c" stroke="#000000" stroke-opacity="0" stroke-width="0" stroke-linecap="square" stroke-linejoin="bevel" d="M1 0C3.31 0.33 5.62 0.66 8 1C8.33 1.66 8.66 2.32 9 3C6.03 2.67 3.06 2.34 0 2C0.33 1.34 0.66 0.68 1 0Z"/><path id="shape111" transform="matrix(0.72 0 0 0.72 384.48 27.4092240073718)" fill="#b1854d" stroke="#000000" stroke-opacity="0" stroke-width="0" stroke-linecap="square" stroke-linejoin="bevel" d="M0 0C1.98 0 3.96 0 6 0C6 0.99 6 1.98 6 3C5.01 3.33 4.02 3.66 3 4C3 3.34 3 2.68 3 2C2.01 2 1.02 2 0 2C0 1.34 0 0.68 0 0Z"/><path id="shape112" transform="matrix(0.72 0 0 0.72 78.48 24.5292240073719)" fill="#9d7833" stroke="#000000" stroke-opacity="0" stroke-width="0" stroke-linecap="square" stroke-linejoin="bevel" d="M0 0C2.31 0 4.62 0 7 0C7 0.66 7 1.32 7 2C5.35 2.33 3.7 2.66 2 3C1.34 2.01 0.68 1.02 0 0Z"/><path id="shape113" transform="matrix(0.72 0 0 0.72 105.12 32.449224007372)" fill="#ab8b52" stroke="#000000" stroke-opacity="0" stroke-width="0" stroke-linecap="square" stroke-linejoin="bevel" d="M0 0C1.32 0.33 2.64 0.66 4 1C4.66 1.33 5.32 1.66 6 2C5.67 2.99 5.34 3.98 5 5C4.01 4.67 3.02 4.34 2 4C1.34 2.68 0.68 1.36 0 0Z"/><path id="shape114" transform="matrix(0.72 0 0 0.72 457.2 41.809224007372)" fill="#523916" stroke="#000000" stroke-opacity="0" stroke-width="0" stroke-linecap="square" stroke-linejoin="bevel" d="M4 0C4.33 0.66 4.66 1.32 5 2C3.68 3.32 2.36 4.64 1 6C0.67 5.01 0.34 4.02 0 3C1.32 2.01 2.64 1.02 4 0Z"/><path id="shape115" transform="matrix(0.72 0 0 0.72 477.36 32.4492240073719)" fill="#7c4e1a" stroke="#000000" stroke-opacity="0" stroke-width="0" stroke-linecap="square" stroke-linejoin="bevel" d="M1 0C3.97 0 6.94 0 10 0C10 0.33 10 0.66 10 1C8.36031 1.21656 8.36031 1.21656 6.6875 1.4375C4.86219 1.71594 4.86219 1.71594 3 2C2.01 2.33 1.02 2.66 0 3C0.33 2.01 0.66 1.02 1 0Z"/><path id="shape116" transform="matrix(0.72 0 0 0.72 331.2 17.3292240073719)" fill="#b99e76" stroke="#000000" stroke-opacity="0" stroke-width="0" stroke-linecap="square" stroke-linejoin="bevel" d="M0 0C1.98 0.66 3.96 1.32 6 2C5.67 2.66 5.34 3.32 5 4C2.525 3.01 2.525 3.01 0 2C0 1.34 0 0.68 0 0Z"/><path id="shape117" transform="matrix(0.72 0 0 0.72 21.6 17.3292240073719)" fill="#b99e76" stroke="#000000" stroke-opacity="0" stroke-width="0" stroke-linecap="square" stroke-linejoin="bevel" d="M1 0C3.475 0.99 3.475 0.99 6 2C5.67 2.66 5.34 3.32 5 4C2.525 3.01 2.525 3.01 0 2C0.33 1.34 0.66 0.68 1 0Z"/><path id="shape118" transform="matrix(0.72 0 0 0.72 115.92 13.729224007372)" fill="#955f2c" stroke="#000000" stroke-opacity="0" stroke-width="0" stroke-linecap="square" stroke-linejoin="bevel" d="M1 0C2.98 0.495 2.98 0.495 5 1C5.66 1.99 6.32 2.98 7 4C4.69 3.34 2.38 2.68 0 2C0.33 1.34 0.66 0.68 1 0Z"/><path id="shape119" transform="matrix(0.72 0 0 0.72 348.48 10.1292240073719)" fill="#d5e1b7" stroke="#000000" stroke-opacity="0" stroke-width="0" stroke-linecap="square" stroke-linejoin="bevel" d="M0 0C1.98 0 3.96 0 6 0C5.67 0.99 5.34 1.98 5 3C3.35 3 1.7 3 0 3C0 2.01 0 1.02 0 0Z"/><path id="shape120" transform="matrix(0.72 0 0 0.72 346.32 35.3292240073719)" fill="#8a6d3b" stroke="#000000" stroke-opacity="0" stroke-width="0" stroke-linecap="square" stroke-linejoin="bevel" d="M2 0C3.32 0.66 4.64 1.32 6 2C4.02 2.66 2.04 3.32 0 4C0.66 2.68 1.32 1.36 2 0Z"/><path id="shape121" transform="matrix(0.72 0 0 0.72 499.68 18.7692240073719)" fill="#b99f77" stroke="#000000" stroke-opacity="0" stroke-width="0" stroke-linecap="square" stroke-linejoin="bevel" d="M0 0C2.475 0.495 2.475 0.495 5 1C5 1.66 5 2.32 5 3C3.35 2.67 1.7 2.34 0 2C0 1.34 0 0.68 0 0Z"/><path id="shape122" transform="matrix(0.72 0 0 0.72 146.16 34.609224007372)" fill="#bc8331" stroke="#000000" stroke-opacity="0" stroke-width="0" stroke-linecap="square" stroke-linejoin="bevel" d="M1 0C2.98 0.495 2.98 0.495 5 1C5.33 1.66 5.66 2.32 6 3C3.03 2.505 3.03 2.505 0 2C0.33 1.34 0.66 0.68 1 0Z"/><path id="shape123" transform="matrix(0.72 0 0 0.72 19.44 31.7292240073719)" fill="#caaf43" stroke="#000000" stroke-opacity="0" stroke-width="0" stroke-linecap="square" stroke-linejoin="bevel" d="M2 0C3.65 0 5.3 0 7 0C5.68 0.99 4.36 1.98 3 3C2.01 3 1.02 3 0 3C0 2.34 0 1.68 0 1C0.66 0.67 1.32 0.34 2 0Z"/><path id="shape124" transform="matrix(0.72 0 0 0.72 85.68 25.9692240073719)" fill="#7e7812" stroke="#000000" stroke-opacity="0" stroke-width="0" stroke-linecap="square" stroke-linejoin="bevel" d="M0 0C1.32 0 2.64 0 4 0C4 0.66 4 1.32 4 2C4.66 2.33 5.32 2.66 6 3C3.03 2.505 3.03 2.505 0 2C0 1.34 0 0.68 0 0Z"/><path id="shape125" transform="matrix(0.72 0 0 0.72 74.88 24.5292240073719)" fill="#818b1c" stroke="#000000" stroke-opacity="0" stroke-width="0" stroke-linecap="square" stroke-linejoin="bevel" d="M2 0C2.99 0.33 3.98 0.66 5 1C5 1.66 5 2.32 5 3C4.01 3.33 3.02 3.66 2 4C1.34 3.01 0.68 2.02 0 1C0.66 0.67 1.32 0.34 2 0Z"/><path id="shape126" transform="matrix(0.72 0 0 0.72 190.08 18.7692240073719)" fill="#b48a52" stroke="#000000" stroke-opacity="0" stroke-width="0" stroke-linecap="square" stroke-linejoin="bevel" d="M0 0C2.475 0.495 2.475 0.495 5 1C5 1.66 5 2.32 5 3C3.35 2.67 1.7 2.34 0 2C0 1.34 0 0.68 0 0Z"/><path id="shape127" transform="matrix(0.72 0 0 0.72 372.96 12.2892240073719)" fill="#c2c295" stroke="#000000" stroke-opacity="0" stroke-width="0" stroke-linecap="square" stroke-linejoin="bevel" d="M2 0C3.32 0.99 4.64 1.98 6 3C5.01 3.33 4.02 3.66 3 4C2.01 3.01 1.02 2.02 0 1C0.66 0.67 1.32 0.34 2 0Z"/><path id="shape128" transform="matrix(0.72 0 0 0.72 107.28 38.2092240073719)" fill="#5e4823" stroke="#000000" stroke-opacity="0" stroke-width="0" stroke-linecap="square" stroke-linejoin="bevel" d="M0 0C1.98 0.66 3.96 1.32 6 2C5.67 2.66 5.34 3.32 5 4C3.68 3.34 2.36 2.68 1 2C0.67 1.34 0.34 0.68 0 0Z"/><path id="shape129" transform="matrix(0.72 0 0 0.72 182.16 36.7692240073719)" fill="#766845" stroke="#000000" stroke-opacity="0" stroke-width="0" stroke-linecap="square" stroke-linejoin="bevel" d="M2 0C2.66 0 3.32 0 4 0C4 0.99 4 1.98 4 3C2.68 3.33 1.36 3.66 0 4C0.66 2.68 1.32 1.36 2 0Z"/><path id="shape130" transform="matrix(0.72 0 0 0.72 102.96 36.049224007372)" fill="#95773e" stroke="#000000" stroke-opacity="0" stroke-width="0" stroke-linecap="square" stroke-linejoin="bevel" d="M1 0C3.475 0.99 3.475 0.99 6 2C4.68 2.33 3.36 2.66 2 3C1.34 2.34 0.68 1.68 0 1C0.33 0.67 0.66 0.34 1 0Z"/><path id="shape131" transform="matrix(0.72 0 0 0.72 226.8 33.8892240073719)" fill="#694c2c" stroke="#000000" stroke-opacity="0" stroke-width="0" stroke-linecap="square" stroke-linejoin="bevel" d="M5 0C5.99 0.33 6.98 0.66 8 1C7.01 1.66 6.02 2.32 5 3C3.35 2.67 1.7 2.34 0 2C0 1.67 0 1.34 0 1C1.65 0.67 3.3 0.34 5 0Z"/><path id="shape132" transform="matrix(0.72 0 0 0.72 118.8 40.369224007372)" fill="#b99c5c" stroke="#000000" stroke-opacity="0" stroke-width="0" stroke-linecap="square" stroke-linejoin="bevel" d="M1 0C1.99 0.33 2.98 0.66 4 1C4 1.66 4 2.32 4 3C2.68 3 1.36 3 0 3C0.33 2.01 0.66 1.02 1 0Z"/><path id="shape133" transform="matrix(0.72 0 0 0.72 200.88 33.8892240073719)" fill="#aa8b58" stroke="#000000" stroke-opacity="0" stroke-width="0" stroke-linecap="square" stroke-linejoin="bevel" d="M2 0C2.99 0.33 3.98 0.66 5 1C2.525 2.485 2.525 2.485 0 4C0.66 2.68 1.32 1.36 2 0Z"/><path id="shape134" transform="matrix(0.72 0 0 0.72 193.68 23.809224007372)" fill="#9f7138" stroke="#000000" stroke-opacity="0" stroke-width="0" stroke-linecap="square" stroke-linejoin="bevel" d="M0 0C1.32 0.33 2.64 0.66 4 1C4.66 1.66 5.32 2.32 6 3C4.35 2.67 2.7 2.34 1 2C0.67 1.34 0.34 0.68 0 0Z"/><path id="shape135" transform="matrix(0.72 0 0 0.72 -2.08721928629529e-14 34.609224007372)" fill="#6a5027" stroke="#000000" stroke-opacity="0" stroke-width="0" stroke-linecap="square" stroke-linejoin="bevel" d="M0 0C0.99 0 1.98 0 3 0C3 0.99 3 1.98 3 3C2.01 3 1.02 3 0 3C0 2.01 0 1.02 0 0Z"/><path id="shape136" transform="matrix(0.72 0 0 0.72 541.44 33.8892240073719)" fill="#50381e" stroke="#000000" stroke-opacity="0" stroke-width="0" stroke-linecap="square" stroke-linejoin="bevel" d="M0 0C1.32 0.33 2.64 0.66 4 1C2.02 1.99 2.02 1.99 0 3C0 2.01 0 1.02 0 0Z"/><path id="shape137" transform="matrix(0.72 0 0 0.72 271.44 23.809224007372)" fill="#6a7a13" stroke="#000000" stroke-opacity="0" stroke-width="0" stroke-linecap="square" stroke-linejoin="bevel" d="M0 0C2.97 0.495 2.97 0.495 6 1C4.02 1.99 4.02 1.99 2 3C1.34 2.01 0.68 1.02 0 0Z"/><path id="shape138" transform="matrix(0.72 0 0 0.72 506.88 21.6492240073718)" fill="#b89d75" stroke="#000000" stroke-opacity="0" stroke-width="0" stroke-linecap="square" stroke-linejoin="bevel" d="M0 0C1.32 0.33 2.64 0.66 4 1C4 1.66 4 2.32 4 3C2.68 2.67 1.36 2.34 0 2C0 1.34 0 0.68 0 0Z"/><path id="shape139" transform="matrix(0.72 0 0 0.72 354.96 9.40922400737201)" fill="#dbe7c3" stroke="#000000" stroke-opacity="0" stroke-width="0" stroke-linecap="square" stroke-linejoin="bevel" d="M0 0C1.32 0.66 2.64 1.32 4 2C2.68 2.33 1.36 2.66 0 3C0 2.01 0 1.02 0 0Z"/><path id="shape140" transform="matrix(0.72 0 0 0.72 491.76 36.7692240073719)" fill="#70552a" stroke="#000000" stroke-opacity="0" stroke-width="0" stroke-linecap="square" stroke-linejoin="bevel" d="M2 0C2.33 0.99 2.66 1.98 3 3C2.01 3.33 1.02 3.66 0 4C0.66 2.68 1.32 1.36 2 0Z"/><path id="shape141" transform="matrix(0.72 0 0 0.72 -2.08721928629529e-14 32.4492240073719)" fill="#c09c46" stroke="#000000" stroke-opacity="0" stroke-width="0" stroke-linecap="square" stroke-linejoin="bevel" d="M1 0C1.66 0 2.32 0 3 0C2.67 0.99 2.34 1.98 2 3C1.34 3 0.68 3 0 3C0.33 2.01 0.66 1.02 1 0Z"/><path id="shape142" transform="matrix(0.72 0 0 0.72 198 21.6492240073718)" fill="#b48a53" stroke="#000000" stroke-opacity="0" stroke-width="0" stroke-linecap="square" stroke-linejoin="bevel" d="M0 0C0.99 0.33 1.98 0.66 3 1C3 1.66 3 2.32 3 3C2.01 2.67 1.02 2.34 0 2C0 1.34 0 0.68 0 0Z"/><path id="shape143" transform="matrix(0.72 0 0 0.72 30.24 20.9292240073719)" fill="#b89d74" stroke="#000000" stroke-opacity="0" stroke-width="0" stroke-linecap="square" stroke-linejoin="bevel" d="M0 0C0.99 0 1.98 0 3 0C2.67 0.99 2.34 1.98 2 3C1.34 2.67 0.68 2.34 0 2C0 1.34 0 0.68 0 0Z"/>
</svg>
