<?xml version="1.0" standalone="no"?>
<!DOCTYPE svg PUBLIC "-//W3C//DTD SVG 20010904//EN" "http://www.w3.org/TR/2001/REC-SVG-20010904/DTD/svg10.dtd">
<!-- Created using Krita: https://krita.org -->
<svg xmlns="http://www.w3.org/2000/svg" 
    xmlns:xlink="http://www.w3.org/1999/xlink"
    xmlns:krita="http://krita.org/namespaces/svg/krita"
    xmlns:sodipodi="http://sodipodi.sourceforge.net/DTD/sodipodi-0.dtd"
    width="1300pt"
    height="433pt"
    viewBox="0 0 1300 433">
<defs/>
<path id="shape0" transform="translate(160.513238884407, 7.77817457149108)" fill="#8698c0" fill-rule="evenodd" stroke="#8698c0" stroke-width="9.9999999999992" stroke-linecap="square" stroke-linejoin="bevel" d="M251.023 0L0 425.222L488.611 425.222C488.611 425.055 409.415 283.314 251.023 0Z"/><path id="shape1" transform="translate(537.401152212111, 49.4974745458523)" fill="#8698c0" fill-rule="evenodd" stroke="#8698c0" stroke-width="9.9999999999992" stroke-linecap="square" stroke-linejoin="bevel" d="M226.274 0L0 383.503L446.891 383.503C446.891 382.393 373.352 254.558 226.274 0Z"/><path id="shape2" transform="translate(-114.000006041664, 87.5000054120602)" fill="#3a5278" fill-rule="evenodd" stroke="#3a5278" stroke-width="9.9999999999992" stroke-linecap="square" stroke-linejoin="bevel" d="M151.5 39.5L236 184.5L342.5 0L543.921 345.5L0 345.5Z"/><path id="shape3" transform="translate(808.223048655846, 14.8492423637557)" fill="#3a5278" fill-rule="evenodd" stroke="#3a5278" stroke-width="9.9999999999992" stroke-linecap="square" stroke-linejoin="bevel" d="M244.659 0L0 418.151L482.954 418.151C482.954 417.984 403.522 278.6 244.659 0Z"/><path id="shape4" transform="translate(475.175755640183, 191.625937170371)" fill="#3a5278" fill-rule="evenodd" stroke="#3a5278" stroke-width="9.9999999999992" stroke-linecap="square" stroke-linejoin="bevel" d="M141.421 0L0 241.374L280.721 241.374C280.721 239.793 234.288 159.335 141.421 0Z"/><path id="shape5" transform="translate(90.5096677409871, 258.801081196885)" fill="#273c59" fill-rule="evenodd" stroke="#273c59" stroke-width="9.9999999999992" stroke-linecap="square" stroke-linejoin="bevel" d="M102.53 0L0 174.199L202.233 174.199C202.233 171.675 168.999 113.608 102.53 0Z"/><path id="shape6" transform="translate(354.260496392457, 247.487372729262)" fill="#273c59" fill-rule="evenodd" stroke="#273c59" stroke-width="9.9999999999992" stroke-linecap="square" stroke-linejoin="bevel" d="M109.602 0L0 185.513L214.96 185.513C214.96 183.931 179.841 122.094 109.602 0Z"/><path id="shape7" transform="translate(731.148409720162, 127.279220260763)" fill="#273c59" fill-rule="evenodd" stroke="#273c59" stroke-width="9.9999999999992" stroke-linecap="square" stroke-linejoin="bevel" d="M177.484 0L0 305.721L352.846 305.721C352.846 304.139 294.392 202.233 177.484 0Z"/><path id="shape8" transform="translate(1094.60129424256, 216.499999999983)" fill="#273c59" fill-rule="evenodd" stroke="#273c59" stroke-width="9.9999999999992" stroke-linecap="square" stroke-linejoin="bevel" d="M123.037 0L0 216.5L244.659 216.5C244.659 214.447 204.118 142.281 123.037 0Z"/><path id="shape0" transform="matrix(-0.999999965659089 0 0 0.999999965659089 1308.14751171601 186.67618545569)" fill="#3a5278" fill-rule="evenodd" stroke="#3a5278" stroke-width="9.9999999999992" stroke-linecap="square" stroke-linejoin="bevel" d="M0 0L142.836 246.324L8.14751 246.324Z"/>
</svg>
