<?xml version="1.0" standalone="no"?>
<!DOCTYPE svg PUBLIC "-//W3C//DTD SVG 20010904//EN" "http://www.w3.org/TR/2001/REC-SVG-20010904/DTD/svg10.dtd">
<!-- Created using Krita: https://krita.org -->
<svg xmlns="http://www.w3.org/2000/svg" 
    xmlns:xlink="http://www.w3.org/1999/xlink"
    xmlns:krita="http://krita.org/namespaces/svg/krita"
    xmlns:sodipodi="http://sodipodi.sourceforge.net/DTD/sodipodi-0.dtd"
    width="1300pt"
    height="433pt"
    viewBox="0 0 1300 433">
<defs/>
<path id="shape0" transform="translate(598.499998692892, 30.4055918327081)" fill="#d2e5e9" fill-rule="evenodd" stroke="#d2e5e9" stroke-width="9.9999999999992" stroke-linecap="square" stroke-linejoin="bevel" d="M0 227.594C29.0596 204.814 71.2068 156.959 89.5149 129.401L112.849 112.43L163.054 66.468C208.972 97.7587 254.675 130.701 304.475 132.229C330.752 151.947 350.426 150.915 367.408 141.421C405.236 147.662 438.835 144.036 460.746 113.137C479.5 106.116 499.294 102.422 511.658 74.9533C550.694 59.582 569.889 29.6608 589.439 0C606.835 17.2582 615.62 84.0968 644.5 88.5944C660.883 115.715 649.202 145.574 664.393 158.392C669.965 157.802 697.169 213.62 701.5 209.304L701.5 227.594C697.449 227.721 463.616 227.721 0 227.594Z"/><path id="shape1" transform="translate(0, 24.0416299285335)" fill="#c3dfeb" fill-rule="evenodd" stroke="#c3dfeb" stroke-width="9.9999999999992" stroke-linecap="square" stroke-linejoin="bevel" d="M0 214.253C19.505 228.466 37.0614 180.721 61.5183 192.458C99.3845 210.512 123.595 183.873 147.078 154.856C154.139 162.664 162.809 165.647 172.534 165.463C182.788 141.736 199.619 122.394 217.789 103.945C245.436 69.2965 246.771 34.6482 260.215 0C300.141 39.6928 291.222 91.5967 381.131 118.794C403.38 109.477 414.461 92.0371 422.143 72.1249C432.592 83.3774 443.756 94.0746 465.983 96.1665C474.436 89.7829 479.043 81.0921 480.833 70.7107C492.661 82.6649 507.453 84.742 523.259 83.4386C548.664 129.4 577.377 114.161 605.283 113.844C668.725 139.225 737.466 154.007 807.516 166.17C851.014 204.331 904.778 259.744 955.5 283.458L0 289.458C2.66667 301.08 2.66667 276.012 0 214.253Z"/><path id="shape2" transform="translate(452.000011328488, 205.00000513792)" fill="#70aedd" fill-rule="evenodd" stroke="#70aedd" stroke-width="9.9999999999992" stroke-linecap="square" stroke-linejoin="bevel" d="M0 136L184 126C224.096 103.185 251.161 72.2257 305 58C333.539 46.6028 352.521 30.4269 366 11.5C380.333 25.2432 394.667 23.8427 409 25C422.926 24.4576 429.267 19.581 430 11.5C444.127 22.1723 445.53 6.9481 451 0C492.224 24.527 533.902 41.3273 577 34C594.283 36.283 601.861 28.8613 610 22C636.003 46.9744 666.413 36.6925 696 33C714.938 28.7619 734.557 24.902 737 11.5C781.36 23.7307 812.145 51.9652 848 41.7803L848 150C848.667 150 566 145.333 0 136Z"/><path id="shape3" transform="translate(273.000006842206, 165.000004135399)" fill="#76c0e7" fill-rule="evenodd" stroke="#76c0e7" stroke-width="9.9999999999992" stroke-linecap="square" stroke-linejoin="bevel" d="M0 84C65.8632 60.2837 135.793 47.9549 193 0C191.69 53.5729 222.425 72.4053 246 99C280.534 127.441 330.867 109.619 399 139C436.702 181.822 483 181.667 525 203L1 203C1 203 0.666667 163.333 0 84Z"/><path id="shape4" transform="translate(0, 186.000004661723)" fill="#368bc4" fill-rule="evenodd" stroke="#368bc4" stroke-width="9.9999999999992" stroke-linecap="square" stroke-linejoin="bevel" d="M0 53C22.732 61.8694 45.7226 70.2214 74 68C101.514 56.8557 134.893 55.0956 154 30.5C166.583 36.2291 175.042 25.0956 184 16C189.413 12.4126 193.354 7.3544 195 0C203.628 13.1792 220.044 17.0134 238 19C242.682 35.6424 257.376 49.8072 277 49C284.922 78.0783 306.226 93.7743 329 108C393.716 142.079 461.603 138.094 528 152C582.604 153.947 636.15 152.193 687 141C735.92 157.758 775.212 151.133 811 136C859.573 140.067 887.428 121.675 918 108C992 113.094 1066 119.491 1140 110C1188.86 103.621 1232.45 89.3474 1270 66C1281.21 69.7065 1295.64 57.5287 1305 52L1300 247L0 247C0 246.333 0 181.667 0 53Z"/>
</svg>
