<svg width="397" height="270" xmlns="http://www.w3.org/2000/svg">
    <g>
        <title>Panda Step 5</title>
        <path
            d="m324.77255,96.60618c-2.6785,-2.16662 -13.65251,3.52685 -15.0189,5.9397c2.64694,0.01992 7.05929,4.23425 13.237,12.64305c4.4376,-9.7599 5.0316,-15.95415 1.7819,-18.58275z"
            stroke-linejoin="bevel" stroke-linecap="square" stroke-width="2.4" stroke="#a68e7a" fill-rule="evenodd"
            fill="#1c150f" id="LeftEar" />
        <path
            d="m96.03605,232.29381c7.75439,13.96591 23.82494,14.70892 40.63041,14.28303c7.19451,-4.40181 5.14648,-8.02651 4.84932,-11.79848c-6.62406,-3.99471 -11.90649,-8.44726 -15.50289,-13.47518c8.20121,-19.07668 18.73249,-33.93039 19.7706,-58.73275c-20.46157,-23.47497 -34.68809,-15.59873 -47.67362,-1.48234c2.63126,20.66678 1.93999,44.40203 -2.07382,71.20571z"
            stroke-linejoin="bevel" stroke-linecap="square" stroke-width="2.4" stroke="#a68e7a" fill="#1c150f"
            id="BackLeft" />
        <path
            d="m180.42754,212.95004c2.39553,7.65747 34.43154,36.94341 45.79515,16.61282c-4.82304,-4.8483 -10.56075,-8.19249 -12.9049,-17.11714c5.89337,-26.09716 19.91303,-47.25258 31.32766,-69.99218c-4.48385,-21.57473 -23.4182,-32.78606 -42.99897,-23.05855c-12.07113,42.13242 -19.14408,73.31738 -21.21894,93.55504z"
            stroke-linejoin="bevel" stroke-linecap="square" stroke-width="2.4" stroke="#a68e7a" fill-rule="evenodd"
            fill="#1c150f" id="FrontLeft" />
        <path
            d="m65.78034,156.75441c16.2702,39.6753 68.5346,39.4073 116.6023,28.1583c42.788,-10.014 82.251,-28.73 90.038,-35.7183c3.768,5.5936 10.427,10.8018 23.76,15.12c8.32,2.072 16.64,4.4243 24.96,5.2803c10.262,0.102 16.453,-3.8668 19.68,-10.8003c-1.468,-5.7737 -3.21,-11.685 -7.2,-18.72c-3.253,-5.0017 -3.371,-9.5557 -2.16,-13.92c-1.657,-11.952 -9.081,-20.1966 -19.68,-26.4c-24.564,-3.032 -43.721,-16.8779 -64.8,-26.87996c-12.199,-5.79823 -31.907,-3.35346 -42.48,-1.91999c-10.573,1.43347 -11.617,0.84241 -17.52,1.67999c-16.074,1.70989 -66.2142,-7.7966 -71.5203,-2.88c-28.0568,8.72566 -42.7787,27.86916 -50.4,52.55996c-4.51465,2.3329 -8.0347,7.0527 -9.36,17.04c-1.0153,8.1784 2.3447,13.9784 10.08,17.4z"
            stroke-linejoin="bevel" stroke-linecap="square" stroke-width="2.4" stroke="#000000" fill-rule="evenodd"
            fill="#dad6ca" id="Body" />
        <path
            d="m205.10037,71.25447c8.824,44.6831 -6.0263,79.2991 -23.0005,113.2856c32.548,-6.359 67.5711,-22.7368 82.4345,-30.5472c-24.2999,-16.9244 -17.0877,-49.1044 -16.414,-80.0384c-10.6447,-4.88248 -24.9847,-5.78248 -43.02,-2.7z"
            stroke-linejoin="bevel" stroke-linecap="square" stroke-width="2.4" stroke="#a68e7a" fill-rule="evenodd"
            fill="#1c150f" id="BodyBlack" />
        <path
            d="m72.49147,218.10292c4.1141,15.43539 19.51816,20.0754 35.92003,23.76104c8.05081,-2.51423 6.94865,-6.52896 7.58041,-10.2595c-5.44977,-5.48961 -9.48676,-11.09604 -11.74831,-16.84925c12.60615,-16.50044 26.44207,-28.33716 33.49786,-52.13738c-14.11841,-27.75645 -29.83626,-23.58773 -45.87251,-13.06464c-2.48859,20.68445 -8.94775,43.53438 -19.37748,68.54974z"
            stroke-linejoin="bevel" stroke-linecap="square" stroke-width="2.4" stroke="#a68e7a" fill-rule="evenodd"
            fill="#1c150f" id="BackRight" />
        <path
            d="m235.52936,246.19618c13.38699,3.70926 26.88296,-0.41765 40.43082,-8.26396c5.47959,-6.6323 3.87265,-9.47236 2.18518,-12.26844c-7.289,-1.11314 -14.47258,-2.35527 -20.06771,-5.52705c-7.3014,-18.82707 -8.14277,-35.0575 -7.22535,-50.44446c0.32394,-11.20147 -2.03574,-19.80196 -7.75198,-31.29776c-23.73059,-8.48538 -10.4826,-21.6216 -31.1455,1.50376l-4.27841,35.45746c-0.40631,11.52926 8.87801,35.14288 27.85295,70.84046z"
            stroke-linejoin="bevel" stroke-linecap="square" stroke-width="2.4" stroke="#a68e7a" fill-rule="evenodd"
            fill="#1c150f" id="FrontRight" />
        <path
            d="m285.31606,114.00098c6.30245,-5.6805 11.81791,-8.7352 16.54631,-9.1641c2.1961,-4.0118 1.7667,-14.34233 -7.55191,-14.3401c-8.22655,0.00197 -11.22408,10.3428 -8.9944,23.5042z"
            stroke-linejoin="bevel" stroke-linecap="square" stroke-width="2.4" stroke="#a68e7a" fill-rule="evenodd"
            fill="#1c150f" id="RightEar" />
        <path
            d="m315.05696,126.26225c-4.25608,2.33679 -10.03113,3.75738 -7.50947,10.1823c1.41536,5.9706 -3.37334,6.9892 -1.01823,13.5765c8.53898,-0.762 10.80284,-5.5549 11.45514,-6.1518c5.6852,-9.38931 4.7094,-15.2583 -2.92744,-17.607z"
            stroke-linejoin="bevel" stroke-linecap="square" stroke-width="2.4" stroke="#a68e7a" fill-rule="evenodd"
            fill="#1c150f" id="OutEye" />
        <path
            d="m311.62042,132.49893c1.02274,-1.62489 7.57272,1.47245 7.08521,3.18198c-0.64069,2.24674 -8.13781,-1.50964 -7.08521,-3.18198z"
            stroke-linejoin="bevel" stroke-linecap="square" stroke-width="2.4" stroke="#ffffff" fill-rule="evenodd"
            fill="#ffffff" id="Eye" />
    </g>
</svg>