<svg width="397" height="270" xmlns="http://www.w3.org/2000/svg">
    <g> 
        <title>Panda Step 1</title>
        <path
            d="m325.10041,96.43965c-2.6785,-2.16662 -13.65251,3.52685 -15.0189,5.9397c2.64694,0.01992 7.05929,4.23425 13.237,12.64305c4.4376,-9.7599 5.0316,-15.95415 1.7819,-18.58275z"
            stroke-linejoin="bevel" stroke-linecap="square" stroke-width="2.4" stroke="#a68e7a" fill-rule="evenodd"
            fill="#1c150f" id="LeftEar" />
        <path
            d="m100.3106,238.5116c9.80199,12.61341 25.79672,10.88619 42.33866,7.8913c6.43541,-5.45182 3.85637,-8.72006 2.98498,-12.40201c-7.15775,-2.93299 -13.05983,-6.52391 -17.3839,-10.94166c5.18254,-20.10773 13.31447,-36.39921 10.54146,-61.06791c-23.81569,-20.06396 -36.66797,-10.10163 -47.33813,5.83713c5.76566,20.0199 8.71798,43.58096 8.85694,70.68315z"
            stroke-linejoin="bevel" stroke-linecap="square" stroke-width="2.4" stroke="#a68e7a" fill="#1c150f"
            id="BackLeft" />
        <path
            d="m215.00586,238.56324c5.28592,6.0361 46.42487,19.87656 48.60258,-3.31228c-6.37103,-2.48551 -12.97082,-3.22554 -18.72186,-10.44149c-5.15643,-26.25271 -0.88261,-51.26945 0.36817,-76.6824c-12.82069,-17.92215 -34.67085,-20.52485 -48.64994,-3.71366c5.98626,43.41679 12.11995,74.8 18.40106,94.14983z"
            stroke-linejoin="bevel" stroke-linecap="square" stroke-width="2.4" stroke="#a68e7a" fill-rule="evenodd"
            fill="#1c150f" id="FrontLeft" />
        <path
            d="m66.1082,156.58788c16.2702,39.6753 68.5346,39.4073 116.6023,28.1583c42.788,-10.014 82.251,-28.73 90.038,-35.7183c3.768,5.5936 10.427,10.8018 23.76,15.12c8.32,2.072 16.64,4.4243 24.96,5.2803c10.262,0.102 16.453,-3.8668 19.68,-10.8003c-1.468,-5.7737 -3.21,-11.685 -7.2,-18.72c-3.253,-5.0017 -3.371,-9.5557 -2.16,-13.92c-1.657,-11.952 -9.081,-20.1966 -19.68,-26.4c-24.564,-3.032 -43.721,-16.8779 -64.8,-26.87996c-12.199,-5.79823 -31.907,-3.35346 -42.48,-1.91999c-10.573,1.43347 -11.617,0.84241 -17.52,1.67999c-16.074,1.70989 -66.2142,-7.7966 -71.5203,-2.88c-28.0568,8.72566 -42.7787,27.86916 -50.4,52.55996c-4.51465,2.3329 -8.0347,7.0527 -9.36,17.04c-1.0153,8.1784 2.3447,13.9784 10.08,17.4z"
            stroke-linejoin="bevel" stroke-linecap="square" stroke-width="2.4" stroke="#000000" fill-rule="evenodd"
            fill="#dad6ca" id="Body" />
        <path
            d="m205.42823,71.08794c8.824,44.6831 -6.0263,79.2991 -23.0005,113.2856c32.548,-6.359 67.5711,-22.7368 82.4345,-30.5472c-24.2999,-16.9244 -17.0877,-49.1044 -16.414,-80.0384c-10.6447,-4.88248 -24.9847,-5.78248 -43.02,-2.7z"
            stroke-linejoin="bevel" stroke-linecap="square" stroke-width="2.4" stroke="#a68e7a" fill-rule="evenodd"
            fill="#1c150f" id="BodyBlack" />
        <path
            d="m58.35098,219.47022c2.18512,15.82411 16.90183,22.32282 32.72611,27.99708c8.29885,-1.50531 7.69866,-5.6251 8.78429,-9.24966c-4.73348,-6.11801 -8.05054,-12.17824 -9.58758,-18.16586c14.53922,-14.82534 29.72548,-24.87114 39.65394,-47.62329c-10.59867,-29.2817 -26.70981,-27.0771 -43.91819,-18.60549c-5.01284,20.22154 -14.23236,42.10397 -27.65857,65.64722z"
            stroke-linejoin="bevel" stroke-linecap="square" stroke-width="2.4" stroke="#a68e7a" fill-rule="evenodd"
            fill="#1c150f" id="BackRight" />
        <path
            d="m245.15087,236.06847c13.86915,0.77887 26.17994,-6.12167 37.75134,-16.66674c3.94478,-7.64619 1.77133,-10.07896 -0.47176,-12.45259c-7.35938,0.46024 -14.64278,0.77317 -20.78413,-1.13721c-11.13538,-16.84555 -12.12554,-30.98188 -14.49882,-46.21247c-2.06377,-11.01448 -9.1869,-28.11328 -0.69831,-40.10281c-24.99174,-3.2488 -23.82423,-7.67505 -39.10108,19.31299l-4.46786,33.95425c2.0529,11.35219 16.14305,32.4536 42.27062,63.30459z"
            stroke-linejoin="bevel" stroke-linecap="square" stroke-width="2.4" stroke="#a68e7a" fill-rule="evenodd"
            fill="#1c150f" id="FrontRight" />
        <path
            d="m285.64392,113.83444c6.30245,-5.6805 11.81791,-8.7352 16.54631,-9.1641c2.1961,-4.0118 1.7667,-14.34233 -7.55191,-14.3401c-8.22655,0.00197 -11.22408,10.3428 -8.9944,23.5042z"
            stroke-linejoin="bevel" stroke-linecap="square" stroke-width="2.4" stroke="#a68e7a" fill-rule="evenodd"
            fill="#1c150f" id="RightEar" />
        <path
            d="m315.38483,126.09572c-4.25608,2.33679 -10.03113,3.75738 -7.50947,10.1823c1.41536,5.9706 -3.37334,6.9892 -1.01823,13.5765c8.53898,-0.762 10.80284,-5.5549 11.45514,-6.1518c5.6852,-9.38931 4.7094,-15.2583 -2.92744,-17.607z"
            stroke-linejoin="bevel" stroke-linecap="square" stroke-width="2.4" stroke="#a68e7a" fill-rule="evenodd"
            fill="#1c150f" id="OutEye" />
        <path
            d="m311.94829,132.3324c1.02274,-1.62489 7.57272,1.47245 7.08521,3.18198c-0.64069,2.24674 -8.13781,-1.50964 -7.08521,-3.18198z"
            stroke-linejoin="bevel" stroke-linecap="square" stroke-width="2.4" stroke="#ffffff" fill-rule="evenodd"
            fill="#ffffff" id="Eye" />
    </g>
</svg>