<svg width="397" height="270" xmlns="http://www.w3.org/2000/svg">
    <g>
        <title>Panda Step 2</title>
        <path
            d="m324.8175,96.73843c-2.6785,-2.16662 -13.65251,3.52685 -15.0189,5.9397c2.64694,0.01992 7.05929,4.23425 13.237,12.64305c4.4376,-9.7599 5.0316,-15.95415 1.7819,-18.58275z"
            stroke-linejoin="bevel" stroke-linecap="square" stroke-width="2.4" stroke="#a68e7a" fill-rule="evenodd"
            fill="#1c150f" id="LeftEar" />
        <path
            d="m115.30042,238.52604c13.68392,8.24181 27.98596,0.87523 42.34244,-7.87101c4.04279,-7.40221 0.46054,-9.5236 -1.67728,-12.64542c-7.73368,-0.16114 -14.53252,-1.38795 -20.15654,-3.95398c-2.39948,-20.62576 -0.67398,-38.75207 -12.13728,-60.77087c-29.43985,-10.15112 -37.84683,3.76835 -42.06748,22.47885c12.58284,16.60456 23.8149,37.52538 33.69614,62.76244z"
            stroke-linejoin="bevel" stroke-linecap="square" stroke-width="2.4" stroke="#a68e7a" fill="#1c150f"
            id="BackLeft" />
        <path
            d="m187.84562,224.64534c2.57326,7.59959 35.28278,36.1313 46.16971,15.54152c-4.93467,-4.73464 -10.74873,-7.94425 -13.30014,-16.81187c5.28384,-26.22736 18.80688,-47.70363 29.68869,-70.70295c-4.98521,-21.46442 -24.17559,-32.23163 -43.52445,-22.05063c-11.08639,42.40218 -17.43096,73.74343 -19.03382,94.02394z"
            stroke-linejoin="bevel" stroke-linecap="square" stroke-width="2.4" stroke="#a68e7a" fill-rule="evenodd"
            fill="#1c150f" id="FrontLeft" />
        <path
            d="m65.82529,156.88666c16.2702,39.6753 68.5346,39.4073 116.6023,28.1583c42.788,-10.014 82.251,-28.73 90.038,-35.7183c3.768,5.5936 10.427,10.8018 23.76,15.12c8.32,2.072 16.64,4.4243 24.96,5.2803c10.262,0.102 16.453,-3.8668 19.68,-10.8003c-1.468,-5.7737 -3.21,-11.685 -7.2,-18.72c-3.253,-5.0017 -3.371,-9.5557 -2.16,-13.92c-1.657,-11.952 -9.081,-20.1966 -19.68,-26.4c-24.564,-3.032 -43.721,-16.8779 -64.8,-26.87996c-12.199,-5.79823 -31.907,-3.35346 -42.48,-1.91999c-10.573,1.43347 -11.617,0.84241 -17.52,1.67999c-16.074,1.70989 -66.2142,-7.7966 -71.5203,-2.88c-28.0568,8.72566 -42.7787,27.86916 -50.4,52.55996c-4.51465,2.3329 -8.0347,7.0527 -9.36,17.04c-1.0153,8.1784 2.3447,13.9784 10.08,17.4z"
            stroke-linejoin="bevel" stroke-linecap="square" stroke-width="2.4" stroke="#000000" fill-rule="evenodd"
            fill="#dad6ca" id="Body" />
        <path
            d="m205.14532,71.38672c8.824,44.6831 -6.0263,79.2991 -23.0005,113.2856c32.548,-6.359 67.5711,-22.7368 82.4345,-30.5472c-24.2999,-16.9244 -17.0877,-49.1044 -16.414,-80.0384c-10.6447,-4.88248 -24.9847,-5.78248 -43.02,-2.7z"
            stroke-linejoin="bevel" stroke-linecap="square" stroke-width="2.4" stroke="#a68e7a" fill-rule="evenodd"
            fill="#1c150f" id="BodyBlack" />
        <path
            d="m41.2748,209.22171c-3.31996,15.62546 8.31421,26.73675 21.27014,37.44885c8.31673,1.40316 9.15164,-2.67554 11.40392,-5.71582c-2.37386,-7.36211 -3.43514,-14.18874 -2.8469,-20.34245c18.71062,-9.00513 36.40628,-13.29512 53.47288,-31.32192c-0.02202,-31.1408 -15.92406,-34.53994 -34.98689,-32.41741c-11.58366,17.31641 -27.68805,34.76601 -48.31315,52.34876z"
            stroke-linejoin="bevel" stroke-linecap="square" stroke-width="2.4" stroke="#a68e7a" fill-rule="evenodd"
            fill="#1c150f" id="BackRight" />
        <path
            d="m276.92852,229.10079c13.42382,-3.57226 22.97867,-13.95868 30.69755,-27.57906c1.3717,-8.49376 -1.45046,-10.13011 -4.32042,-11.68861c-6.85146,2.72577 -13.6765,5.28791 -20.10743,5.38184c-15.82139,-12.54802 -21.15805,-25.67571 -28.14953,-39.41334c-5.38634,-9.82676 -17.47311,-23.86306 -13.13338,-37.89772c-24.76305,4.68325 -25.02973,0.11339 -31.15754,30.51382l6.31145,33.66033c5.48102,10.15111 25.43403,25.82525 59.85931,47.02274z"
            stroke-linejoin="bevel" stroke-linecap="square" stroke-width="2.4" stroke="#a68e7a" fill-rule="evenodd"
            fill="#1c150f" id="FrontRight" />
        <path
            d="m285.36101,114.13323c6.30245,-5.6805 11.81791,-8.7352 16.54631,-9.1641c2.1961,-4.0118 1.7667,-14.34233 -7.55191,-14.3401c-8.22655,0.00197 -11.22408,10.3428 -8.9944,23.5042z"
            stroke-linejoin="bevel" stroke-linecap="square" stroke-width="2.4" stroke="#a68e7a" fill-rule="evenodd"
            fill="#1c150f" id="RightEar" />
        <path
            d="m315.10191,126.3945c-4.25608,2.33679 -10.03113,3.75738 -7.50947,10.1823c1.41536,5.9706 -3.37334,6.9892 -1.01823,13.5765c8.53898,-0.762 10.80284,-5.5549 11.45514,-6.1518c5.6852,-9.38931 4.7094,-15.2583 -2.92744,-17.607z"
            stroke-linejoin="bevel" stroke-linecap="square" stroke-width="2.4" stroke="#a68e7a" fill-rule="evenodd"
            fill="#1c150f" id="OutEye" />
        <path
            d="m311.66538,132.63118c1.02274,-1.62489 7.57272,1.47245 7.08521,3.18198c-0.64069,2.24674 -8.13781,-1.50964 -7.08521,-3.18198z"
            stroke-linejoin="bevel" stroke-linecap="square" stroke-width="2.4" stroke="#ffffff" fill-rule="evenodd"
            fill="#ffffff" id="Eye" />
    </g>
</svg>