<svg width="397" height="270" xmlns="http://www.w3.org/2000/svg">
    <g>
        <title>Panda Step 7</title>
        <path
            d="m325.10041,96.36361c-2.6785,-2.16662 -13.65251,3.52685 -15.0189,5.9397c2.64694,0.01992 7.05929,4.23425 13.237,12.64305c4.4376,-9.7599 5.0316,-15.95415 1.7819,-18.58275z"
            stroke-linejoin="bevel" stroke-linecap="square" stroke-width="2.4" stroke="#a68e7a" fill-rule="evenodd"
            fill="#1c150f" id="LeftEar" />
        <path
            d="m60.35523,213.26155c-0.04423,15.9742 13.62173,24.4628 28.49947,32.28956c8.4277,-0.33263 8.40823,-4.49586 9.98898,-7.93349c-3.83351,-6.71863 -6.27253,-13.18241 -6.95906,-19.32593c16.46561,-12.65162 32.90502,-20.48017 45.91102,-41.6244c-6.40924,-30.47411 -22.67039,-30.53911 -40.89249,-24.55149c-7.78536,19.32427 -19.96801,39.70621 -36.54792,61.14575z"
            stroke-linejoin="bevel" stroke-linecap="square" stroke-width="2.4" stroke="#a68e7a" fill="#1c150f"
            id="BackLeft" />
        <path
            d="m272.48677,225.37502c7.89469,1.43153 48.70288,-13.35574 35.96732,-32.85626c-6.53282,2.02238 -12.15775,5.55298 -21.15106,3.48788c-20.38212,-17.33097 -32.61577,-39.56699 -47.46156,-60.23061c-21.19176,-6.04011 -39.90944,5.52933 -40.37938,27.3882c31.7194,30.24455 56.06093,50.98142 73.02469,62.21079z"
            stroke-linejoin="bevel" stroke-linecap="square" stroke-width="2.4" stroke="#a68e7a" fill-rule="evenodd"
            fill="#1c150f" id="FrontLeft" />
        <path
            d="m66.1082,156.51184c16.2702,39.6753 68.5346,39.4073 116.6023,28.1583c42.788,-10.014 82.251,-28.73 90.038,-35.7183c3.768,5.5936 10.427,10.8018 23.76,15.12c8.32,2.072 16.64,4.4243 24.96,5.2803c10.262,0.102 16.453,-3.8668 19.68,-10.8003c-1.468,-5.7737 -3.21,-11.685 -7.2,-18.72c-3.253,-5.0017 -3.371,-9.5557 -2.16,-13.92c-1.657,-11.952 -9.081,-20.1966 -19.68,-26.4c-24.564,-3.032 -43.721,-16.8779 -64.8,-26.87996c-12.199,-5.79823 -31.907,-3.35346 -42.48,-1.91999c-10.573,1.43347 -11.617,0.84241 -17.52,1.67999c-16.074,1.70989 -66.2142,-7.7966 -71.5203,-2.88c-28.0568,8.72566 -42.7787,27.86916 -50.4,52.55996c-4.51465,2.3329 -8.0347,7.0527 -9.36,17.04c-1.0153,8.1784 2.3447,13.9784 10.08,17.4z"
            stroke-linejoin="bevel" stroke-linecap="square" stroke-width="2.4" stroke="#000000" fill-rule="evenodd"
            fill="#dad6ca" id="Body" />
        <path
            d="m205.42823,71.0119c8.824,44.6831 -6.0263,79.2991 -23.0005,113.2856c32.548,-6.359 67.5711,-22.7368 82.4345,-30.5472c-24.2999,-16.9244 -17.0877,-49.1044 -16.414,-80.0384c-10.6447,-4.88248 -24.9847,-5.78248 -43.02,-2.7z"
            stroke-linejoin="bevel" stroke-linecap="square" stroke-width="2.4" stroke="#a68e7a" fill-rule="evenodd"
            fill="#1c150f" id="BodyBlack" />
        <path
            d="m114.60532,231.51843c11.8618,10.69929 27.30588,6.19427 43.06641,0.34527c5.37977,-6.49576 2.26762,-9.26115 0.76413,-12.73327c-7.56114,-1.63249 -14.00142,-4.13289 -19.03312,-7.724c1.57651,-20.70493 6.72586,-38.16988 -0.32967,-61.97018c-26.9648,-15.57721 -37.87114,-3.51567 -45.58125,14.0471c9.18668,18.69877 16.22452,41.37715 21.1135,68.03508z"
            stroke-linejoin="bevel" stroke-linecap="square" stroke-width="2.4" stroke="#a68e7a" fill-rule="evenodd"
            fill="#1c150f" id="BackRight" />
        <path
            d="m192.16362,236.3489c10.96471,8.52908 25.0153,9.85434 40.5305,7.76033c7.59327,-4.04585 7.18905,-7.28296 6.69382,-10.51106c-6.31542,-3.8058 -12.48428,-7.69051 -16.4492,-12.75498c0.42085,-20.18891 5.82561,-35.51601 12.53521,-49.3935c4.56647,-10.23353 15.31156,-21.565 14.40537,-34.37155c-14.68237,-4.65109 -0.16275,-20.54098 -28.07686,-7.0302l-15.68322,27.53506c-13.2497,12.27598 -17.9016,38.53138 -13.95562,78.76589z"
            stroke-linejoin="bevel" stroke-linecap="square" stroke-width="2.4" stroke="#a68e7a" fill-rule="evenodd"
            fill="#1c150f" id="FrontRight" />
        <path
            d="m285.64392,113.7584c6.30245,-5.6805 11.81791,-8.7352 16.54631,-9.1641c2.1961,-4.0118 1.7667,-14.34233 -7.55191,-14.3401c-8.22655,0.00197 -11.22408,10.3428 -8.9944,23.5042z"
            stroke-linejoin="bevel" stroke-linecap="square" stroke-width="2.4" stroke="#a68e7a" fill-rule="evenodd"
            fill="#1c150f" id="RightEar" />
        <path
            d="m315.38483,126.01968c-4.25608,2.33679 -10.03113,3.75738 -7.50947,10.1823c1.41536,5.9706 -3.37334,6.9892 -1.01823,13.5765c8.53898,-0.762 10.80284,-5.5549 11.45514,-6.1518c5.6852,-9.38931 4.7094,-15.2583 -2.92744,-17.607z"
            stroke-linejoin="bevel" stroke-linecap="square" stroke-width="2.4" stroke="#a68e7a" fill-rule="evenodd"
            fill="#1c150f" id="OutEye" />
        <path
            d="m311.94829,132.25636c1.02274,-1.62489 7.57272,1.47245 7.08521,3.18198c-0.64069,2.24674 -8.13781,-1.50964 -7.08521,-3.18198z"
            stroke-linejoin="bevel" stroke-linecap="square" stroke-width="2.4" stroke="#ffffff" fill-rule="evenodd"
            fill="#ffffff" id="Eye" />
    </g>
</svg>