<svg width="397" height="270" xmlns="http://www.w3.org/2000/svg">
    <g>
        <title>Panda Standing</title>
        <path
            d="m282.54365,29.70995c-3.33611,0.85965 -5.30425,13.06502 -4.18101,15.60021c1.59347,-2.11366 7.60722,-3.14526 18.04127,-3.09473c-5.1927,-9.37997 -9.81277,-13.54849 -13.86026,-12.50548z"
            stroke-linejoin="bevel" stroke-linecap="square" stroke-width="2.4" stroke="#a68e7a" fill-rule="evenodd"
            fill="#1c150f" id="LeftEar" />
        <path
            d="m100.04445,238.7736c9.80199,12.61341 25.79672,10.88619 42.33866,7.8913c6.43541,-5.45182 3.85637,-8.72006 2.98498,-12.40201c-7.15775,-2.93299 -13.05983,-6.52391 -17.3839,-10.94166c5.18254,-20.10773 13.31447,-36.39921 10.54146,-61.06791c-23.81569,-20.06396 -36.66797,-10.10163 -47.33813,5.83713c5.76566,20.0199 8.71798,43.58096 8.85694,70.68315z"
            stroke-linejoin="bevel" stroke-linecap="square" stroke-width="2.4" stroke="#a68e7a" fill="#1c150f"
            id="BackLeft" />
        <path
            d="m214.7397,238.82524c5.28592,6.0361 46.42487,19.87656 48.60258,-3.31228c-6.37103,-2.48551 -12.97082,-3.22554 -18.72186,-10.44149c-5.15643,-26.25271 -0.88261,-51.26945 0.36817,-76.6824c-12.82069,-17.92215 -34.67085,-20.52485 -48.64994,-3.71366c5.98626,43.41679 12.11995,74.8 18.40106,94.14983z"
            stroke-linejoin="bevel" stroke-linecap="square" stroke-width="2.4" stroke="#a68e7a" fill-rule="evenodd"
            fill="#1c150f" id="FrontLeft" />
        <path
            d="m65.84206,156.85015c16.2702,39.675 68.5346,39.407 116.60229,28.158c42.788,-10.014 83.319,-30.316 91.10599,-37.304c4.956,-4.928 16.278,-10.2377 26.726,-22.5506c10.357,-8.28 19.003,-24.4449 28.341,-29.3591c10.432,-5.4977 20.363,-16.9951 23.589,-23.9285c-1.467,-5.7737 -1.334,-1.7897 -5.324,-8.8247c-3.253,-5.0017 -17.6,6.6902 -27.6,-9.7513c-14.452,-13.30266 -12.819,-10.51941 -30.546,-12.6498c-21.339,2.39853 -21.791,25.4024 -40.494,33.0498c-12.199,-5.7983 -33.107,-4.0735 -43.68,-2.64c-10.573,1.4334 -11.617,0.8424 -17.52,1.68c-16.074,1.7099 -66.2142,-7.7966 -71.5203,-2.88c-28.0568,8.7256 -42.7787,27.8691 -50.4,52.56c-4.51465,2.3328 -8.0347,7.0527 -9.36,17.04c-1.0153,8.1782 2.3447,13.9782 10.08,17.4002z"
            stroke-linejoin="bevel" stroke-linecap="square" stroke-width="2.4" stroke="#000000" fill-rule="evenodd"
            fill="#dad6ca" id="Body" />
        <path
            d="m205.16206,71.34994c8.824,44.6831 -6.0263,79.2991 -23.0005,113.28559c32.548,-6.359 67.5711,-22.7368 82.4345,-30.5472c-24.2999,-16.9244 -17.0877,-49.1044 -16.414,-80.0384c-10.6447,-4.88247 -24.9847,-5.78248 -43.02,-2.7z"
            stroke-linejoin="bevel" stroke-linecap="square" stroke-width="2.4" stroke="#a68e7a" fill-rule="evenodd"
            fill="#1c150f" id="BodyBlack" />
        <path
            d="m97.37752,243.25529c8.61511,13.45202 24.70063,13.18556 41.44629,11.7064c6.90424,-4.84441 4.63289,-8.33351 4.09973,-12.07941c-6.86158,-3.57135 -12.41289,-7.6838 -16.31758,-12.47624c6.9885,-19.55353 16.56735,-35.03855 16.04772,-59.85719c-21.89372,-22.14531 -35.59819,-13.39223 -47.67272,1.51086c3.92239,20.46104 4.72125,44.19291 2.39657,71.19557z"
            stroke-linejoin="bevel" stroke-linecap="square" stroke-width="2.4" stroke="#a68e7a" fill-rule="evenodd"
            fill="#1c150f" id="BackRight" />
        <path
            d="m198.76035,248.64862c11.70028,7.48756 25.8131,7.51982 41.07106,4.01401c7.19052,-4.7246 6.4914,-7.91105 5.70256,-11.08018c-6.63737,-3.21211 -13.13622,-6.51525 -17.5486,-11.19463c-1.43076,-20.14254 4.64681,-32.94408 10.05665,-47.37796c3.60959,-10.6089 5.7986,-29.00227 19.07999,-35.27998c-20.17755,-15.09993 -16.98737,-18.38285 -43.5461,-2.37128l-20.56209,27.3871c-3.78486,10.89777 -1.86933,36.19861 5.74653,75.90291z"
            stroke-linejoin="bevel" stroke-linecap="square" stroke-width="2.4" stroke="#a68e7a" fill-rule="evenodd"
            fill="#1c150f" id="FrontRight" />
        <path
            d="m272.99739,71.76068c-0.80551,-8.44631 0.02852,-14.69578 2.50205,-18.74836c-1.91274,-4.15437 -10.4642,-9.96615 -16.01594,-2.48185c-4.90112,6.60721 1.6163,15.17699 13.51389,21.2302z"
            stroke-linejoin="bevel" stroke-linecap="square" stroke-width="2.4" stroke="#a68e7a" fill-rule="evenodd"
            fill="#1c150f" id="RightEar" />
        <path
            d="m300.56776,55.18554c-0.65998,4.81033 -2.96093,10.29438 3.70118,12.09846c5.63797,2.42169 3.60205,6.87413 10.29529,8.90871c4.477,-7.31104 1.97741,-11.98533 1.88683,-12.86486c-4.15159,-10.16095 -9.44601,-12.87506 -15.8833,-8.1423z"
            stroke-linejoin="bevel" stroke-linecap="square" stroke-width="2.4" stroke="#a68e7a" fill-rule="evenodd"
            fill="#1c150f" id="OutEye" />
        <path
            d="m303.52786,61.66196c-0.6953,-1.78964 5.69544,-5.20348 6.77768,-3.79319c1.42234,1.85345 -6.06208,5.63509 -6.77768,3.79319z"
            stroke-linejoin="bevel" stroke-linecap="square" stroke-width="2.4" stroke="#ffffff" fill-rule="evenodd"
            fill="#ffffff" id="Eye" />
    </g>
</svg>