<svg width="397" height="270" xmlns="http://www.w3.org/2000/svg">
    <g>
        <title>Panda Step 8</title>
        <path
            d="m325.05506,96.46384c-2.6785,-2.16662 -13.65251,3.52685 -15.0189,5.9397c2.64694,0.01992 7.05929,4.23425 13.237,12.64305c4.4376,-9.7599 5.0316,-15.95415 1.7819,-18.58275z"
            stroke-linejoin="bevel" stroke-linecap="square" stroke-width="2.4" stroke="#a68e7a" fill-rule="evenodd"
            fill="#1c150f" id="LeftEar" />
        <path
            d="m50.13769,208.06162c-2.74751,15.73621 9.28441,26.41552 22.62265,36.64766c8.3624,1.09871 9.04791,-3.00774 11.18773,-6.1282c-2.64095,-7.27057 -3.95066,-14.05393 -3.58739,-20.225c18.36952,-9.68197 35.89683,-14.61489 52.29419,-33.25253c-1.15848,-31.11925 -17.17398,-33.93579 -36.14664,-31.11899c-10.94399,17.72762 -26.40084,35.75332 -46.37053,54.07705z"
            stroke-linejoin="bevel" stroke-linecap="square" stroke-width="2.4" stroke="#a68e7a" fill="#1c150f"
            id="BackLeft" />
        <path
            d="m285.54105,222.02052c8.01327,0.40365 46.57912,-19.51233 31.43992,-37.21173c-6.21823,2.84628 -11.34203,7.0714 -20.52633,6.18084c-22.44298,-14.56385 -37.43649,-35.04061 -54.81807,-53.62187c-21.79286,-3.26268 -38.86601,10.61935 -36.51899,32.35694c35.34785,25.91104 62.15563,43.34293 80.42346,52.29583z"
            stroke-linejoin="bevel" stroke-linecap="square" stroke-width="2.4" stroke="#a68e7a" fill-rule="evenodd"
            fill="#1c150f" id="FrontLeft" />
        <path
            d="m66.06285,156.61207c16.2702,39.6753 68.5346,39.4073 116.6023,28.1583c42.788,-10.014 82.251,-28.73 90.038,-35.7183c3.768,5.5936 10.427,10.8018 23.76,15.12c8.32,2.072 16.64,4.4243 24.96,5.2803c10.262,0.102 16.453,-3.8668 19.68,-10.8003c-1.468,-5.7737 -3.21,-11.685 -7.2,-18.72c-3.253,-5.0017 -3.371,-9.5557 -2.16,-13.92c-1.657,-11.952 -9.081,-20.1966 -19.68,-26.4c-24.564,-3.032 -43.721,-16.8779 -64.8,-26.87996c-12.199,-5.79823 -31.907,-3.35346 -42.48,-1.91999c-10.573,1.43347 -11.617,0.84241 -17.52,1.67999c-16.074,1.70989 -66.2142,-7.7966 -71.5203,-2.88c-28.0568,8.72566 -42.7787,27.86916 -50.4,52.55996c-4.51465,2.3329 -8.0347,7.0527 -9.36,17.04c-1.0153,8.1784 2.3447,13.9784 10.08,17.4z"
            stroke-linejoin="bevel" stroke-linecap="square" stroke-width="2.4" stroke="#000000" fill-rule="evenodd"
            fill="#dad6ca" id="Body" />
        <path
            d="m205.38288,71.11213c8.824,44.6831 -6.0263,79.2991 -23.0005,113.2856c32.548,-6.359 67.5711,-22.7368 82.4345,-30.5472c-24.2999,-16.9244 -17.0877,-49.1044 -16.414,-80.0384c-10.6447,-4.88248 -24.9847,-5.78248 -43.02,-2.7z"
            stroke-linejoin="bevel" stroke-linecap="square" stroke-width="2.4" stroke="#a68e7a" fill-rule="evenodd"
            fill="#1c150f" id="BodyBlack" />
        <path
            d="m121.35896,235.18902c13.17194,9.03754 27.88504,2.53068 42.73418,-5.3502c4.47397,-7.14985 1.02361,-9.47963 -0.92563,-12.72255c-7.71058,-0.61875 -14.42485,-2.24595 -19.88707,-5.14047c-1.17406,-20.73165 1.62162,-38.72399 -8.51788,-61.38288c-28.78717,-11.87638 -38.00355,1.52091 -43.3246,19.94869c11.57765,17.32043 21.55132,38.86958 29.92099,64.6474z"
            stroke-linejoin="bevel" stroke-linecap="square" stroke-width="2.4" stroke="#a68e7a" fill-rule="evenodd"
            fill="#1c150f" id="BackRight" />
        <path
            d="m181.84864,228.49224c8.90244,10.66333 22.35055,14.94396 37.95589,16.19549c8.27957,-2.33995 8.57264,-5.58938 8.77466,-8.84899c-5.3622,-5.06139 -10.56472,-10.16821 -13.36318,-15.95909c4.70121,-19.63842 13.23946,-33.46713 22.74464,-45.60187c6.63677,-9.02958 14.74643,-14.67903 16.58222,-27.38568c-13.38039,-7.63638 -0.8758,-10.25625 -21.14396,-15.97567l-21.17599,23.57363c-15.55571,9.18027 -25.68041,33.84758 -30.37429,74.00218z"
            stroke-linejoin="bevel" stroke-linecap="square" stroke-width="2.4" stroke="#a68e7a" fill-rule="evenodd"
            fill="#1c150f" id="FrontRight" />
        <path
            d="m285.59857,113.85863c6.30245,-5.6805 11.81791,-8.7352 16.54631,-9.1641c2.1961,-4.0118 1.7667,-14.34233 -7.55191,-14.3401c-8.22655,0.00197 -11.22408,10.3428 -8.9944,23.5042z"
            stroke-linejoin="bevel" stroke-linecap="square" stroke-width="2.4" stroke="#a68e7a" fill-rule="evenodd"
            fill="#1c150f" id="RightEar" />
        <path
            d="m315.33948,126.11991c-4.25608,2.33679 -10.03113,3.75738 -7.50947,10.1823c1.41536,5.9706 -3.37334,6.9892 -1.01823,13.5765c8.53898,-0.762 10.80284,-5.5549 11.45514,-6.1518c5.6852,-9.38931 4.7094,-15.2583 -2.92744,-17.607z"
            stroke-linejoin="bevel" stroke-linecap="square" stroke-width="2.4" stroke="#a68e7a" fill-rule="evenodd"
            fill="#1c150f" id="OutEye" />
        <path
            d="m311.90294,132.35659c1.02274,-1.62489 7.57272,1.47245 7.08521,3.18198c-0.64069,2.24674 -8.13781,-1.50964 -7.08521,-3.18198z"
            stroke-linejoin="bevel" stroke-linecap="square" stroke-width="2.4" stroke="#ffffff" fill-rule="evenodd"
            fill="#ffffff" id="Eye" />
    </g>
</svg>