<svg width="397" height="270" xmlns="http://www.w3.org/2000/svg">
    <g>
        <title>Panda Step 10</title>
        <path
            d="m324.90386,96.38013c-2.6785,-2.16662 -13.65251,3.52685 -15.0189,5.9397c2.64694,0.01992 7.05929,4.23425 13.237,12.64305c4.4376,-9.7599 5.0316,-15.95415 1.7819,-18.58275z"
            stroke-linejoin="bevel" stroke-linecap="square" stroke-width="2.4" stroke="#a68e7a" fill-rule="evenodd"
            fill="#1c150f" id="LeftEar" />
        <path
            d="m41.88848,192.42417c-5.76206,14.89885 3.95752,27.71855 15.04551,40.35428c7.98785,2.7076 9.46062,-1.18647 12.16763,-3.82998c-1.17314,-7.64589 -1.13554,-14.55442 0.4236,-20.53632c19.90436,-5.91574 38.05701,-7.33769 57.77264,-22.42174c4.9294,-30.74818 -10.22993,-36.63239 -29.38774,-37.5677c-14.18949,15.25443 -32.86338,29.9216 -56.02164,44.00146z"
            stroke-linejoin="bevel" stroke-linecap="square" stroke-width="2.4" stroke="#a68e7a" fill="#1c150f"
            id="BackLeft" />
        <path
            d="m239.54728,234.2896c6.37935,4.86614 49.44751,10.26111 46.97674,-12.89834c-6.73773,-1.17077 -13.35304,-0.58541 -20.42255,-6.51553c-10.26728,-24.7058 -11.04668,-50.07301 -14.8676,-75.22819c-16.12452,-15.01911 -38.05634,-13.23073 -48.41845,6.02175c14.48921,41.36322 26.73316,70.90326 36.73187,88.62031z"
            stroke-linejoin="bevel" stroke-linecap="square" stroke-width="2.4" stroke="#a68e7a" fill-rule="evenodd"
            fill="#1c150f" id="FrontLeft" />
        <path
            d="m65.91165,156.52836c16.2702,39.6753 68.5346,39.4073 116.6023,28.1583c42.788,-10.014 82.251,-28.73 90.038,-35.7183c3.768,5.5936 10.427,10.8018 23.76,15.12c8.32,2.072 16.64,4.4243 24.96,5.2803c10.262,0.102 16.453,-3.8668 19.68,-10.8003c-1.468,-5.7737 -3.21,-11.685 -7.2,-18.72c-3.253,-5.0017 -3.371,-9.5557 -2.16,-13.92c-1.657,-11.952 -9.081,-20.1966 -19.68,-26.4c-24.564,-3.032 -43.721,-16.8779 -64.8,-26.87996c-12.199,-5.79823 -31.907,-3.35346 -42.48,-1.91999c-10.573,1.43347 -11.617,0.84241 -17.52,1.67999c-16.074,1.70989 -66.2142,-7.7966 -71.5203,-2.88c-28.0568,8.72566 -42.7787,27.86916 -50.4,52.55996c-4.51465,2.3329 -8.0347,7.0527 -9.36,17.04c-1.0153,8.1784 2.3447,13.9784 10.08,17.4z"
            stroke-linejoin="bevel" stroke-linecap="square" stroke-width="2.4" stroke="#000000" fill-rule="evenodd"
            fill="#dad6ca" id="Body" />
        <path
            d="m205.23169,71.02842c8.824,44.6831 -6.0263,79.2991 -23.0005,113.2856c32.548,-6.359 67.5711,-22.7368 82.4345,-30.5472c-24.2999,-16.9244 -17.0877,-49.1044 -16.414,-80.0384c-10.6447,-4.88248 -24.9847,-5.78248 -43.02,-2.7z"
            stroke-linejoin="bevel" stroke-linecap="square" stroke-width="2.4" stroke="#a68e7a" fill-rule="evenodd"
            fill="#1c150f" id="BodyBlack" />
        <path
            d="m111.40349,238.7092c11.28912,11.3019 26.94665,7.60645 42.99013,2.58529c5.71042,-6.20709 2.74636,-9.13064 1.42553,-12.67627c-7.46597,-2.02364 -13.76745,-4.85571 -18.60551,-8.70373c2.65153,-20.59488 8.70251,-37.76829 2.89472,-61.90341c-26.11789,-16.95893 -37.63696,-5.48112 -46.25031,11.65675c8.20145,19.15138 14.04994,42.16519 17.54544,69.04137z"
            stroke-linejoin="bevel" stroke-linecap="square" stroke-width="2.4" stroke="#a68e7a" fill-rule="evenodd"
            fill="#1c150f" id="BackRight" />
        <path
            d="m165.9996,224.47039c6.92646,12.04135 19.43322,18.58019 34.58857,22.50722c8.55865,-0.87412 9.40887,-4.02457 10.17055,-7.2c-4.40752,-5.9114 -8.6499,-11.83997 -10.40621,-18.02715c8.02224,-18.53151 18.82038,-30.67776 30.2785,-40.98868c8.09641,-7.74764 18.19798,-19.35472 22.20064,-31.55337c-11.86051,-9.83246 -0.22942,-2.81036 -19.20527,-11.94419l-24.92904,19.56228c-16.90742,6.35582 -31.14004,28.90384 -42.69774,67.64389z"
            stroke-linejoin="bevel" stroke-linecap="square" stroke-width="2.4" stroke="#a68e7a" fill-rule="evenodd"
            fill="#1c150f" id="FrontRight" />
        <path
            d="m285.44738,113.77493c6.30245,-5.6805 11.81791,-8.7352 16.54631,-9.1641c2.1961,-4.0118 1.7667,-14.34233 -7.55191,-14.3401c-8.22655,0.00197 -11.22408,10.3428 -8.9944,23.5042z"
            stroke-linejoin="bevel" stroke-linecap="square" stroke-width="2.4" stroke="#a68e7a" fill-rule="evenodd"
            fill="#1c150f" id="RightEar" />
        <path
            d="m315.18828,126.0362c-4.25608,2.33679 -10.03113,3.75738 -7.50947,10.1823c1.41536,5.9706 -3.37334,6.9892 -1.01823,13.5765c8.53898,-0.762 10.80284,-5.5549 11.45514,-6.1518c5.6852,-9.38931 4.7094,-15.2583 -2.92744,-17.607z"
            stroke-linejoin="bevel" stroke-linecap="square" stroke-width="2.4" stroke="#a68e7a" fill-rule="evenodd"
            fill="#1c150f" id="OutEye" />
        <path
            d="m311.75174,132.27288c1.02274,-1.62489 7.57272,1.47245 7.08521,3.18198c-0.64069,2.24674 -8.13781,-1.50964 -7.08521,-3.18198z"
            stroke-linejoin="bevel" stroke-linecap="square" stroke-width="2.4" stroke="#ffffff" fill-rule="evenodd"
            fill="#ffffff" id="Eye" />
    </g>
</svg>