<svg width="397" height="270" xmlns="http://www.w3.org/2000/svg">
    <g>
        <title>Panda Step 3</title>
        <path
            d="m324.89261,96.6751c-2.6785,-2.16662 -13.65251,3.52685 -15.0189,5.9397c2.64694,0.01992 7.05929,4.23425 13.237,12.64305c4.4376,-9.7599 5.0316,-15.95415 1.7819,-18.58275z"
            stroke-linejoin="bevel" stroke-linecap="square" stroke-width="2.4" stroke="#a68e7a" fill-rule="evenodd"
            fill="#1c150f" id="LeftEar" />
        <path
            d="m146.96344,244.41541c15.16307,5.02579 27.49158,-5.30971 39.56936,-17.00298c2.31332,-8.11082 -1.64818,-9.3912 -4.42105,-11.96555c-7.57929,1.54603 -14.48138,1.84668 -20.53244,0.58224c-6.88305,-19.5909 -9.19194,-37.65217 -25.22306,-56.60574c-30.95263,-3.41824 -36.08767,12.01097 -36.084,31.1916c15.93078,13.42571 31.49452,31.35919 46.69119,53.80042z"
            stroke-linejoin="bevel" stroke-linecap="square" stroke-width="2.4" stroke="#a68e7a" fill="#1c150f"
            id="BackLeft" />
        <path
            d="m171.73093,218.38212c1.06691,7.95218 27.69253,42.23115 42.32869,24.11355c-3.93426,-5.59369 -9.02424,-9.85948 -9.82634,-19.05193c10.2192,-24.72572 27.61261,-43.2074 42.70619,-63.69073c-0.77306,-22.02217 -17.54024,-36.27227 -38.48336,-29.99398c-19.01817,39.48623 -31.25985,69.02721 -36.72518,88.62308z"
            stroke-linejoin="bevel" stroke-linecap="square" stroke-width="2.4" stroke="#a68e7a" fill-rule="evenodd"
            fill="#1c150f" id="FrontLeft" />
        <path
            d="m65.9004,156.82333c16.2702,39.6753 68.5346,39.4073 116.6023,28.1583c42.788,-10.014 82.251,-28.73 90.038,-35.7183c3.768,5.5936 10.427,10.8018 23.76,15.12c8.32,2.072 16.64,4.4243 24.96,5.2803c10.262,0.102 16.453,-3.8668 19.68,-10.8003c-1.468,-5.7737 -3.21,-11.685 -7.2,-18.72c-3.253,-5.0017 -3.371,-9.5557 -2.16,-13.92c-1.657,-11.952 -9.081,-20.1966 -19.68,-26.4c-24.564,-3.032 -43.721,-16.8779 -64.8,-26.87996c-12.199,-5.79823 -31.907,-3.35346 -42.48,-1.91999c-10.573,1.43347 -11.617,0.84241 -17.52,1.67999c-16.074,1.70989 -66.2142,-7.7966 -71.5203,-2.88c-28.0568,8.72566 -42.7787,27.86916 -50.4,52.55996c-4.51465,2.3329 -8.0347,7.0527 -9.36,17.04c-1.0153,8.1784 2.3447,13.9784 10.08,17.4z"
            stroke-linejoin="bevel" stroke-linecap="square" stroke-width="2.4" stroke="#000000" fill-rule="evenodd"
            fill="#dad6ca" id="Body" />
        <path
            d="m205.22043,71.32339c8.824,44.6831 -6.0263,79.2991 -23.0005,113.2856c32.548,-6.359 67.5711,-22.7368 82.4345,-30.5472c-24.2999,-16.9244 -17.0877,-49.1044 -16.414,-80.0384c-10.6447,-4.88248 -24.9847,-5.78248 -43.02,-2.7z"
            stroke-linejoin="bevel" stroke-linecap="square" stroke-width="2.4" stroke="#a68e7a" fill-rule="evenodd"
            fill="#1c150f" id="BodyBlack" />
        <path
            d="m37.6835,192.15839c-5.61081,14.95647 4.23814,27.67704 15.45359,40.19978c8.01487,2.62654 9.44812,-1.28226 12.1282,-3.95306c-1.25055,-7.63361 -1.28294,-14.54217 0.21552,-20.53956c19.84341,-6.1171 37.98071,-7.72289 57.54252,-23.00591c4.61762,-30.79655 -10.60055,-36.52687 -29.76685,-37.26803c-14.03421,15.39741 -32.55854,30.25302 -55.57297,44.56679z"
            stroke-linejoin="bevel" stroke-linecap="square" stroke-width="2.4" stroke="#a68e7a" fill-rule="evenodd"
            fill="#1c150f" id="BackRight" />
        <path
            d="m285.64317,247.75685c13.42441,-3.57145 22.97925,-13.95787 30.69755,-27.57906c1.37229,-8.49295 -1.45046,-10.13011 -4.32042,-11.68861c-6.85087,2.72658 -13.67591,5.28872 -20.10702,5.38241c-15.82139,-12.54802 -21.15805,-25.67571 -28.14947,-39.41326c-5.3864,-9.82684 -17.47311,-23.86306 -13.13342,-37.89777c-24.76306,4.68324 -32.96217,1.02236 -39.08998,31.42282l14.24387,32.75131c5.48108,10.15119 25.43409,25.82534 59.8589,47.02217z"
            stroke-linejoin="bevel" stroke-linecap="square" stroke-width="2.4" stroke="#a68e7a" fill-rule="evenodd"
            fill="#1c150f" id="FrontRight" />
        <path
            d="m285.43612,114.0699c6.30245,-5.6805 11.81791,-8.7352 16.54631,-9.1641c2.1961,-4.0118 1.7667,-14.34233 -7.55191,-14.3401c-8.22655,0.00197 -11.22408,10.3428 -8.9944,23.5042z"
            stroke-linejoin="bevel" stroke-linecap="square" stroke-width="2.4" stroke="#a68e7a" fill-rule="evenodd"
            fill="#1c150f" id="RightEar" />
        <path
            d="m315.17702,126.33117c-4.25608,2.33679 -10.03113,3.75738 -7.50947,10.1823c1.41536,5.9706 -3.37334,6.9892 -1.01823,13.5765c8.53898,-0.762 10.80284,-5.5549 11.45514,-6.1518c5.6852,-9.38931 4.7094,-15.2583 -2.92744,-17.607z"
            stroke-linejoin="bevel" stroke-linecap="square" stroke-width="2.4" stroke="#a68e7a" fill-rule="evenodd"
            fill="#1c150f" id="OutEye" />
        <path
            d="m311.74048,132.56785c1.02274,-1.62489 7.57272,1.47245 7.08521,3.18198c-0.64069,2.24674 -8.13781,-1.50964 -7.08521,-3.18198z"
            stroke-linejoin="bevel" stroke-linecap="square" stroke-width="2.4" stroke="#ffffff" fill-rule="evenodd"
            fill="#ffffff" id="Eye" />
    </g>
</svg>