<svg width="397" height="270" xmlns="http://www.w3.org/2000/svg">
    <g>
        <title>Panda Step 4</title>
        <path
            d="m325.05988,96.65077c-2.6785,-2.16662 -13.65251,3.52685 -15.0189,5.9397c2.64694,0.01992 7.05929,4.23425 13.237,12.64305c4.4376,-9.7599 5.0316,-15.95415 1.7819,-18.58275z"
            stroke-linejoin="bevel" stroke-linecap="square" stroke-width="2.4" stroke="#a68e7a" fill-rule="evenodd"
            fill="#1c150f" id="LeftEar" />
        <path
            d="m128.87517,245.11857c14.03008,7.63766 27.99751,-0.34517 41.95921,-9.70872c3.71638,-7.57135 0.04509,-9.53462 -2.22675,-12.56032c-7.73336,0.17603 -14.5792,-0.75333 -20.30969,-3.07185c-3.29603,-20.5016 -2.36208,-38.68589 -14.77402,-60.18422c-29.85424,-8.85855 -37.64666,5.41406 -41.04793,24.2907c13.29448,16.04045 25.42755,36.45193 36.39918,61.23441z"
            stroke-linejoin="bevel" stroke-linecap="square" stroke-width="2.4" stroke="#a68e7a" fill="#1c150f"
            id="BackLeft" />
        <path
            d="m166.30127,205.4081c-0.31394,8.01729 20.03244,46.35782 37.56129,31.02146c-2.9157,-6.18599 -7.1979,-11.26217 -6.41019,-20.45586c14.31175,-22.60458 34.61941,-37.82634 53.00497,-55.41479c3.01856,-21.82801 -11.05369,-38.74472 -32.76365,-36.15455c-25.51379,35.63565 -42.64454,62.63685 -51.39242,81.00375z"
            stroke-linejoin="bevel" stroke-linecap="square" stroke-width="2.4" stroke="#a68e7a" fill-rule="evenodd"
            fill="#1c150f" id="FrontLeft" />
        <path
            d="m66.06767,156.799c16.2702,39.6753 68.5346,39.4073 116.6023,28.1583c42.788,-10.014 82.251,-28.73 90.038,-35.7183c3.768,5.5936 10.427,10.8018 23.76,15.12c8.32,2.072 16.64,4.4243 24.96,5.2803c10.262,0.102 16.453,-3.8668 19.68,-10.8003c-1.468,-5.7737 -3.21,-11.685 -7.2,-18.72c-3.253,-5.0017 -3.371,-9.5557 -2.16,-13.92c-1.657,-11.952 -9.081,-20.1966 -19.68,-26.4c-24.564,-3.032 -43.721,-16.8779 -64.8,-26.87996c-12.199,-5.79823 -31.907,-3.35346 -42.48,-1.91999c-10.573,1.43347 -11.617,0.84241 -17.52,1.67999c-16.074,1.70989 -66.2142,-7.7966 -71.5203,-2.88c-28.0568,8.72566 -42.7787,27.86916 -50.4,52.55996c-4.51465,2.3329 -8.0347,7.0527 -9.36,17.04c-1.0153,8.1784 2.3447,13.9784 10.08,17.4z"
            stroke-linejoin="bevel" stroke-linecap="square" stroke-width="2.4" stroke="#000000" fill-rule="evenodd"
            fill="#dad6ca" id="Body" />
        <path
            d="m205.3877,71.29905c8.824,44.6831 -6.0263,79.2991 -23.0005,113.2856c32.548,-6.359 67.5711,-22.7368 82.4345,-30.5472c-24.2999,-16.9244 -17.0877,-49.1044 -16.414,-80.0384c-10.6447,-4.88248 -24.9847,-5.78248 -43.02,-2.7z"
            stroke-linejoin="bevel" stroke-linecap="square" stroke-width="2.4" stroke="#a68e7a" fill-rule="evenodd"
            fill="#1c150f" id="BodyBlack" />
        <path
            d="m48.10692,201.69148c-2.01789,15.8463 10.49435,25.9586 24.29087,35.56387c8.40421,0.71137 8.89936,-3.42236 10.8928,-6.6383c-2.97388,-7.14086 -4.59544,-13.8565 -4.51754,-20.03776c17.90282,-10.51992 35.18364,-16.25698 50.70283,-35.63195c-2.5943,-31.03256 -18.72278,-33.10651 -37.54513,-29.41658c-10.11367,18.21409 -24.72162,36.93434 -43.82384,56.16071z"
            stroke-linejoin="bevel" stroke-linecap="square" stroke-width="2.4" stroke="#a68e7a" fill-rule="evenodd"
            fill="#1c150f" id="BackRight" />
        <path
            d="m268.61836,247.41525c13.87475,-0.67927 25.39381,-8.83305 35.79489,-20.5346c3.121,-8.01778 0.70436,-10.20916 -1.77533,-12.33441c-7.27051,1.22964 -14.4809,2.30481 -20.78864,1.04942c-12.84091,-15.58461 -18.73326,-30.73105 -22.69102,-45.62869c-3.20771,-10.73724 -12.07241,-17.2448 -13.58189,-31.12823c-25.19466,-0.6095 -20.33881,-13.39523 -32.70055,15.04639l7.0651,35.00887c3.23232,11.07423 19.45811,30.5813 48.67744,58.52126z"
            stroke-linejoin="bevel" stroke-linecap="square" stroke-width="2.4" stroke="#a68e7a" fill-rule="evenodd"
            fill="#1c150f" id="FrontRight" />
        <path
            d="m285.60339,114.04556c6.30245,-5.6805 11.81791,-8.7352 16.54631,-9.1641c2.1961,-4.0118 1.7667,-14.34233 -7.55191,-14.3401c-8.22655,0.00197 -11.22408,10.3428 -8.9944,23.5042z"
            stroke-linejoin="bevel" stroke-linecap="square" stroke-width="2.4" stroke="#a68e7a" fill-rule="evenodd"
            fill="#1c150f" id="RightEar" />
        <path
            d="m315.34429,126.30684c-4.25608,2.33679 -10.03113,3.75738 -7.50947,10.1823c1.41536,5.9706 -3.37334,6.9892 -1.01823,13.5765c8.53898,-0.762 10.80284,-5.5549 11.45514,-6.1518c5.6852,-9.38931 4.7094,-15.2583 -2.92744,-17.607z"
            stroke-linejoin="bevel" stroke-linecap="square" stroke-width="2.4" stroke="#a68e7a" fill-rule="evenodd"
            fill="#1c150f" id="OutEye" />
        <path
            d="m311.90776,132.54351c1.02274,-1.62489 7.57272,1.47245 7.08521,3.18198c-0.64069,2.24674 -8.13781,-1.50964 -7.08521,-3.18198z"
            stroke-linejoin="bevel" stroke-linecap="square" stroke-width="2.4" stroke="#ffffff" fill-rule="evenodd"
            fill="#ffffff" id="Eye" />
    </g>
</svg>