<svg width="397" height="270" xmlns="http://www.w3.org/2000/svg">
    <g>
        <title>Panda Step 9</title>
        <path
            d="m325.02152,96.48918c-2.6785,-2.16662 -13.65251,3.52685 -15.0189,5.9397c2.64694,0.01992 7.05929,4.23425 13.237,12.64305c4.4376,-9.7599 5.0316,-15.95415 1.7819,-18.58275z"
            stroke-linejoin="bevel" stroke-linecap="square" stroke-width="2.4" stroke="#a68e7a" fill-rule="evenodd"
            fill="#1c150f" id="LeftEar" />
        <path
            d="m42.97726,205.58514c-3.97422,15.472 7.18231,27.06279 19.67624,38.31032c8.25035,1.75171 9.25608,-2.28826 11.63423,-5.23112c-2.06211,-7.45544 -2.83532,-14.32067 -1.98879,-20.44418c19.07281,-8.2102 36.93325,-11.75212 54.74295,-29.04516c1.28776,-31.11417 -14.45724,-35.17913 -33.59247,-33.86026c-12.30173,16.81388 -29.12579,33.5707 -50.47217,50.2704z"
            stroke-linejoin="bevel" stroke-linecap="square" stroke-width="2.4" stroke="#a68e7a" fill="#1c150f"
            id="BackLeft" />
        <path
            d="m265.64579,235.96124c7.49884,2.85358 50.32537,-4.20759 41.37773,-25.71118c-6.79275,0.79137 -12.96927,3.23176 -21.43208,-0.44592c-16.86224,-20.77157 -24.81532,-44.87243 -35.6244,-67.90603c-19.72661,-9.82011 -40.24699,-1.87546 -44.71341,19.52739c25.64194,35.54355 45.77264,60.38873 60.39216,74.53574z"
            stroke-linejoin="bevel" stroke-linecap="square" stroke-width="2.4" stroke="#a68e7a" fill-rule="evenodd"
            fill="#1c150f" id="FrontLeft" />
        <path
            d="m66.02931,156.63741c16.2702,39.6753 68.5346,39.4073 116.6023,28.1583c42.788,-10.014 82.251,-28.73 90.038,-35.7183c3.768,5.5936 10.427,10.8018 23.76,15.12c8.32,2.072 16.64,4.4243 24.96,5.2803c10.262,0.102 16.453,-3.8668 19.68,-10.8003c-1.468,-5.7737 -3.21,-11.685 -7.2,-18.72c-3.253,-5.0017 -3.371,-9.5557 -2.16,-13.92c-1.657,-11.952 -9.081,-20.1966 -19.68,-26.4c-24.564,-3.032 -43.721,-16.8779 -64.8,-26.87996c-12.199,-5.79823 -31.907,-3.35346 -42.48,-1.91999c-10.573,1.43347 -11.617,0.84241 -17.52,1.67999c-16.074,1.70989 -66.2142,-7.7966 -71.5203,-2.88c-28.0568,8.72566 -42.7787,27.86916 -50.4,52.55996c-4.51465,2.3329 -8.0347,7.0527 -9.36,17.04c-1.0153,8.1784 2.3447,13.9784 10.08,17.4z"
            stroke-linejoin="bevel" stroke-linecap="square" stroke-width="2.4" stroke="#000000" fill-rule="evenodd"
            fill="#dad6ca" id="Body" />
        <path
            d="m205.34934,71.13747c8.824,44.6831 -6.0263,79.2991 -23.0005,113.2856c32.548,-6.359 67.5711,-22.7368 82.4345,-30.5472c-24.2999,-16.9244 -17.0877,-49.1044 -16.414,-80.0384c-10.6447,-4.88248 -24.9847,-5.78248 -43.02,-2.7z"
            stroke-linejoin="bevel" stroke-linecap="square" stroke-width="2.4" stroke="#a68e7a" fill-rule="evenodd"
            fill="#1c150f" id="BodyBlack" />
        <path
            d="m120.12868,240.37539c12.56056,9.86962 27.6633,4.32687 42.99056,-2.57824c4.92653,-6.84589 1.63388,-9.3937 -0.10178,-12.75577c-7.6545,-1.11559 -14.24962,-3.17316 -19.51343,-6.41451c0.16773,-20.76419 4.11994,-38.53834 -4.53453,-61.80494c-27.95978,-13.71132 -38.02242,-0.93743 -44.52285,17.1081c10.4345,18.03221 18.99519,40.18068 25.68204,66.44536z"
            stroke-linejoin="bevel" stroke-linecap="square" stroke-width="2.4" stroke="#a68e7a" fill-rule="evenodd"
            fill="#1c150f" id="BackRight" />
        <path
            d="m181.81509,228.51758c8.90244,10.66333 22.35055,14.94396 37.95589,16.19549c8.27957,-2.33995 8.57264,-5.58938 8.77466,-8.84899c-5.3622,-5.06139 -10.56472,-10.16821 -13.36318,-15.95909c4.70121,-19.63842 13.23946,-33.46713 22.74464,-45.60187c6.63677,-9.02958 14.74643,-14.67903 16.58222,-27.38568c-13.38039,-7.63638 -0.8758,-10.25625 -21.14396,-15.97567l-21.17599,23.57363c-15.55571,9.18027 -25.68041,33.84758 -30.37429,74.00218z"
            stroke-linejoin="bevel" stroke-linecap="square" stroke-width="2.4" stroke="#a68e7a" fill-rule="evenodd"
            fill="#1c150f" id="FrontRight" />
        <path
            d="m285.56503,113.88398c6.30245,-5.6805 11.81791,-8.7352 16.54631,-9.1641c2.1961,-4.0118 1.7667,-14.34233 -7.55191,-14.3401c-8.22655,0.00197 -11.22408,10.3428 -8.9944,23.5042z"
            stroke-linejoin="bevel" stroke-linecap="square" stroke-width="2.4" stroke="#a68e7a" fill-rule="evenodd"
            fill="#1c150f" id="RightEar" />
        <path
            d="m315.30593,126.14525c-4.25608,2.33679 -10.03113,3.75738 -7.50947,10.1823c1.41536,5.9706 -3.37334,6.9892 -1.01823,13.5765c8.53898,-0.762 10.80284,-5.5549 11.45514,-6.1518c5.6852,-9.38931 4.7094,-15.2583 -2.92744,-17.607z"
            stroke-linejoin="bevel" stroke-linecap="square" stroke-width="2.4" stroke="#a68e7a" fill-rule="evenodd"
            fill="#1c150f" id="OutEye" />
        <path
            d="m311.86939,132.38193c1.02274,-1.62489 7.57272,1.47245 7.08521,3.18198c-0.64069,2.24674 -8.13781,-1.50964 -7.08521,-3.18198z"
            stroke-linejoin="bevel" stroke-linecap="square" stroke-width="2.4" stroke="#ffffff" fill-rule="evenodd"
            fill="#ffffff" id="Eye" />
    </g>
</svg>