<svg width="397" height="270" xmlns="http://www.w3.org/2000/svg">
    <g>
        <title>Panda Normal</title>
        <path id="LeftEar" fill="#1c150f" fill-rule="evenodd" stroke="#a68e7a" stroke-width="2.4"
            stroke-linecap="square" stroke-linejoin="bevel"
            d="m324.86043,96.51394c-2.6785,-2.16662 -13.65251,3.52685 -15.0189,5.9397c2.64694,0.01992 7.05929,4.23425 13.237,12.64305c4.4376,-9.7599 5.0316,-15.95415 1.7819,-18.58275z" />
        <path id="BackLeft" fill="#1c150f" stroke="#a68e7a" stroke-width="2.4" stroke-linecap="square"
            stroke-linejoin="bevel"
            d="m100.39061,238.5859c9.80199,12.61341 25.79672,10.88619 42.33866,7.8913c6.43541,-5.45182 3.85637,-8.72006 2.98498,-12.40201c-7.15775,-2.93299 -13.05983,-6.52391 -17.3839,-10.94166c5.18254,-20.10773 13.31447,-36.39921 10.54146,-61.06791c-23.81569,-20.06396 -36.66797,-10.10163 -47.33813,5.83713c5.76566,20.0199 8.71798,43.58096 8.85694,70.683150z" />
        <path id="FrontLeft" fill="#1c150f" fill-rule="evenodd" stroke="#a68e7a" stroke-width="2.4"
            stroke-linecap="square" stroke-linejoin="bevel"
            d="m215.08588,238.63754c5.28592,6.0361 46.42487,19.87656 48.60258,-3.31228c-6.37103,-2.48551 -12.97082,-3.22554 -18.72186,-10.44149c-5.15643,-26.25271 -0.88261,-51.26945 0.36817,-76.6824c-12.82069,-17.92215 -34.67085,-20.52485 -48.64994,-3.71366c5.98626,43.41679 12.11995,74.8 18.40106,94.149830z" />
        <path id="Body" fill="#dad6ca" fill-rule="evenodd" stroke="#000000" stroke-width="2.4" stroke-linecap="square"
            stroke-linejoin="bevel"
            d="m66.10822,156.6622c16.2702,39.6753 68.5346,39.4073 116.60229,28.1583c42.788,-10.014 82.251,-28.73 90.03799,-35.7183c3.768,5.5936 10.427,10.8018 23.76,15.12c8.32,2.072 16.64,4.4243 24.96,5.2803c10.262,0.102 16.453,-3.8668 19.68,-10.8003c-1.468,-5.7737 -3.21,-11.685 -7.2,-18.72c-3.253,-5.0017 -3.371,-9.5557 -2.16,-13.92c-1.657,-11.952 -9.081,-20.1966 -19.68,-26.4c-24.564,-3.032 -43.721,-16.8779 -64.8,-26.87996c-12.199,-5.79823 -31.907,-3.35346 -42.48,-1.91999c-10.573,1.43347 -11.617,0.84241 -17.52,1.67999c-16.074,1.70989 -66.2142,-7.7966 -71.5203,-2.88c-28.0568,8.72566 -42.7787,27.86916 -50.4,52.55996c-4.51465,2.3329 -8.0347,7.0527 -9.36,17.04c-1.0153,8.1784 2.3447,13.9784 10.08,17.4002z" />
        <path id="BodyBlack" fill="#1c150f" fill-rule="evenodd" stroke="#a68e7a" stroke-width="2.4"
            stroke-linecap="square" stroke-linejoin="bevel"
            d="m205.50824,71.16223c8.824,44.6831 -6.0263,79.2991 -23.0005,113.2856c32.548,-6.359 67.5711,-22.7368 82.4345,-30.5472c-24.2999,-16.9244 -17.0877,-49.1044 -16.414,-80.0384c-10.6447,-4.88248 -24.9847,-5.78248 -43.02,-2.7z" />
        <path id="BackRight" fill="#1c150f" fill-rule="evenodd" stroke="#a68e7a" stroke-width="2.4"
            stroke-linecap="square" stroke-linejoin="bevel"
            d="m97.72368,243.06762c8.61511,13.45202 24.70063,13.18556 41.44629,11.70641c6.90424,-4.84441 4.63289,-8.33351 4.09973,-12.07941c-6.86158,-3.57135 -12.41289,-7.6838 -16.31758,-12.47624c6.9885,-19.55353 16.56735,-35.03856 16.04772,-59.85719c-21.89372,-22.14531 -35.59819,-13.39223 -47.67272,1.51086c3.92239,20.46104 4.72125,44.19292 2.39657,71.195570z" />
        <path id="FrontRight" fill="#1c150f" fill-rule="evenodd" stroke="#a68e7a" stroke-width="2.4"
            stroke-linecap="square" stroke-linejoin="bevel"
            d="m199.10652,248.46094c11.70028,7.48756 25.8131,7.51982 41.07106,4.01401c7.19052,-4.7246 6.4914,-7.91105 5.70256,-11.08018c-6.63737,-3.21211 -13.13622,-6.51525 -17.5486,-11.19463c-1.43076,-20.14254 4.64681,-32.94408 10.05665,-47.37796c3.60959,-10.6089 5.7986,-29.00227 19.07999,-35.27998c-20.17755,-15.09993 -16.98737,-18.38285 -43.5461,-2.37128l-20.56209,27.3871c-3.78486,10.89777 -1.86933,36.19861 5.74653,75.90291z" />
        <path id="RightEar" fill="#1c150f" fill-rule="evenodd" stroke="#a68e7a" stroke-width="2.4"
            stroke-linecap="square" stroke-linejoin="bevel"
            d="m285.64392,113.90874c6.30245,-5.6805 11.81791,-8.7352 16.54631,-9.1641c2.1961,-4.0118 1.7667,-14.34233 -7.55191,-14.3401c-8.22655,0.00197 -11.22408,10.3428 -8.9944,23.5042z" />
        <path id="OutEye" fill="#1c150f" fill-rule="evenodd" stroke="#a68e7a" stroke-width="2.4" stroke-linecap="square"
            stroke-linejoin="bevel"
            d="m315.38483,126.17001c-4.25608,2.33679 -10.03113,3.75738 -7.50947,10.1823c1.41536,5.9706 -3.37334,6.9892 -1.01823,13.5765c8.53898,-0.762 10.80284,-5.5549 11.45514,-6.1518c5.6852,-9.38931 4.7094,-15.2583 -2.92744,-17.607z" />
        <path id="Eye" fill="#ffffff" fill-rule="evenodd" stroke="#ffffff" stroke-width="2.4" stroke-linecap="square"
            stroke-linejoin="bevel"
            d="m311.9483,132.40669c1.02274,-1.62489 7.57272,1.47245 7.08521,3.18198c-0.64069,2.24674 -8.13781,-1.50964 -7.08521,-3.18198z" />
    </g>
</svg>