<svg width="397" height="270" xmlns="http://www.w3.org/2000/svg">
    <g>
        <title>Panda Step 6</title>
        <path
            d="m325.10041,96.58171c-2.6785,-2.16662 -13.65251,3.52685 -15.0189,5.9397c2.64694,0.01992 7.05929,4.23425 13.237,12.64305c4.4376,-9.7599 5.0316,-15.95415 1.7819,-18.58275z"
            stroke-linejoin="bevel" stroke-linecap="square" stroke-width="2.4" stroke="#a68e7a" fill-rule="evenodd"
            fill="#1c150f" id="LeftEar" />
        <path
            d="m72.72004,222.04432c3.37977,15.61263 18.54725,20.97569 34.75653,25.43262c8.16067,-2.1308 7.24954,-6.19316 8.05696,-9.88966c-5.18415,-5.74112 -8.95158,-11.53212 -10.93861,-17.38582c13.37213,-15.88602 27.75217,-27.05539 35.92525,-50.49543c-12.79041,-28.39287 -28.68776,-24.97189 -45.20356,-15.2187c-3.46369,20.54367 -10.99588,43.06268 -22.59657,67.557z"
            stroke-linejoin="bevel" stroke-linecap="square" stroke-width="2.4" stroke="#a68e7a" fill="#1c150f"
            id="BackLeft" />
        <path
            d="m228.37557,225.31587c6.59635,4.56767 49.86702,7.97667 46.334,-15.04468c-6.78444,-0.85973 -13.36583,0.02918 -20.70054,-5.56961c-11.39239,-24.20758 -13.33734,-49.51213 -18.31086,-74.46502c-16.79804,-14.26183 -38.62444,-11.46691 -48.09037,8.24165c16.37576,40.65326 29.965,69.59908 40.76776,86.83766z"
            stroke-linejoin="bevel" stroke-linecap="square" stroke-width="2.4" stroke="#a68e7a" fill-rule="evenodd"
            fill="#1c150f" id="FrontLeft" />
        <path
            d="m66.1082,156.72994c16.2702,39.6753 68.5346,39.4073 116.6023,28.1583c42.788,-10.014 82.251,-28.73 90.038,-35.7183c3.768,5.5936 10.427,10.8018 23.76,15.12c8.32,2.072 16.64,4.4243 24.96,5.2803c10.262,0.102 16.453,-3.8668 19.68,-10.8003c-1.468,-5.7737 -3.21,-11.685 -7.2,-18.72c-3.253,-5.0017 -3.371,-9.5557 -2.16,-13.92c-1.657,-11.952 -9.081,-20.1966 -19.68,-26.4c-24.564,-3.032 -43.721,-16.8779 -64.8,-26.87996c-12.199,-5.79823 -31.907,-3.35346 -42.48,-1.91999c-10.573,1.43347 -11.617,0.84241 -17.52,1.67999c-16.074,1.70989 -66.2142,-7.7966 -71.5203,-2.88c-28.0568,8.72566 -42.7787,27.86916 -50.4,52.55996c-4.51465,2.3329 -8.0347,7.0527 -9.36,17.04c-1.0153,8.1784 2.3447,13.9784 10.08,17.4z"
            stroke-linejoin="bevel" stroke-linecap="square" stroke-width="2.4" stroke="#000000" fill-rule="evenodd"
            fill="#dad6ca" id="Body" />
        <path
            d="m205.42823,71.23c8.824,44.6831 -6.0263,79.2991 -23.0005,113.2856c32.548,-6.359 67.5711,-22.7368 82.4345,-30.5472c-24.2999,-16.9244 -17.0877,-49.1044 -16.414,-80.0384c-10.6447,-4.88248 -24.9847,-5.78248 -43.02,-2.7z"
            stroke-linejoin="bevel" stroke-linecap="square" stroke-width="2.4" stroke="#a68e7a" fill-rule="evenodd"
            fill="#1c150f" id="BodyBlack" />
        <path
            d="m93.56186,223.05193c8.52105,13.5118 24.60803,13.35758 41.36361,11.9953c6.93787,-4.79612 4.69092,-8.30098 4.18391,-12.05051c-6.8365,-3.61914 -12.35898,-7.77022 -16.23014,-12.58978c7.12475,-19.50429 16.81142,-34.92211 16.46496,-59.74376c-21.73867,-22.29753 -35.50389,-13.64028 -47.6821,1.17821c3.77953,20.48791 4.41279,44.22478 1.89977,71.21056z"
            stroke-linejoin="bevel" stroke-linecap="square" stroke-width="2.4" stroke="#a68e7a" fill-rule="evenodd"
            fill="#1c150f" id="BackRight" />
        <path
            d="m197.85434,242.80742c12.08668,6.84706 26.18083,6.11865 41.22771,1.79458c6.92553,-5.10527 6.05568,-8.24941 5.09709,-11.37142c-6.80099,-2.84872 -13.46843,-5.79679 -18.12653,-10.23205c-2.5143,-20.03615 0.60827,-35.98548 5.2323,-50.68996c3.03256,-10.78802 12.01893,-23.55926 9.26329,-36.09861c-15.20202,-2.47048 -3.14283,-20.29978 -28.79999,-2.88l-11.52001,29.52003c-11.32733,14.06933 -12.11862,40.7219 -2.37386,79.95743z"
            stroke-linejoin="bevel" stroke-linecap="square" stroke-width="2.4" stroke="#a68e7a" fill-rule="evenodd"
            fill="#1c150f" id="FrontRight" />
        <path
            d="m285.64392,113.97651c6.30245,-5.6805 11.81791,-8.7352 16.54631,-9.1641c2.1961,-4.0118 1.7667,-14.34233 -7.55191,-14.3401c-8.22655,0.00197 -11.22408,10.3428 -8.9944,23.5042z"
            stroke-linejoin="bevel" stroke-linecap="square" stroke-width="2.4" stroke="#a68e7a" fill-rule="evenodd"
            fill="#1c150f" id="RightEar" />
        <path
            d="m315.38483,126.23778c-4.25608,2.33679 -10.03113,3.75738 -7.50947,10.1823c1.41536,5.9706 -3.37334,6.9892 -1.01823,13.5765c8.53898,-0.762 10.80284,-5.5549 11.45514,-6.1518c5.6852,-9.38931 4.7094,-15.2583 -2.92744,-17.607z"
            stroke-linejoin="bevel" stroke-linecap="square" stroke-width="2.4" stroke="#a68e7a" fill-rule="evenodd"
            fill="#1c150f" id="OutEye" />
        <path
            d="m311.94829,132.47446c1.02274,-1.62489 7.57272,1.47245 7.08521,3.18198c-0.64069,2.24674 -8.13781,-1.50964 -7.08521,-3.18198z"
            stroke-linejoin="bevel" stroke-linecap="square" stroke-width="2.4" stroke="#ffffff" fill-rule="evenodd"
            fill="#ffffff" id="Eye" />
    </g>
</svg>