<svg width="397" height="270" xmlns="http://www.w3.org/2000/svg">
    <g>
        <title>Panda Step 11</title>
        <path
            d="m325.01977,96.60516c-2.6785,-2.16662 -13.65251,3.52685 -15.0189,5.9397c2.64694,0.01992 7.05929,4.23425 13.237,12.64305c4.4376,-9.7599 5.0316,-15.95415 1.7819,-18.58275z"
            stroke-linejoin="bevel" stroke-linecap="square" stroke-width="2.4" stroke="#a68e7a" fill-rule="evenodd"
            fill="#1c150f" id="LeftEar" />
        <path
            d="m53.02353,202.10435c-0.0936,15.97399 13.54606,24.50478 28.39954,32.37748c8.42869,-0.30658 8.42209,-4.46985 10.01346,-7.90258c-3.81273,-6.73045 -6.23176,-13.20174 -6.8993,-19.34734c16.50463,-12.60067 32.96815,-20.37838 46.03944,-41.48232c-6.31503,-30.49377 -22.5759,-30.60902 -40.81642,-24.67775c-7.84504,19.30012 -20.09062,39.64431 -36.73671,61.03251z"
            stroke-linejoin="bevel" stroke-linecap="square" stroke-width="2.4" stroke="#a68e7a" fill="#1c150f"
            id="BackLeft" />
        <path
            d="m229.72713,233.33363c5.89764,5.43997 48.2748,14.82868 47.97505,-8.46026c-6.59915,-1.79414 -13.24022,-1.82838 -19.72577,-8.39207c-7.91803,-25.55578 -6.32786,-50.8851 -7.78572,-76.28702c-14.65328,-16.45768 -36.6563,-16.72282 -48.76905,1.47917c10.5678,42.53439 20.00297,73.08772 28.30549,91.66018z"
            stroke-linejoin="bevel" stroke-linecap="square" stroke-width="2.4" stroke="#a68e7a" fill-rule="evenodd"
            fill="#1c150f" id="FrontLeft" />
        <path
            d="m66.02756,156.75339c16.2702,39.6753 68.5346,39.4073 116.6023,28.1583c42.788,-10.014 82.251,-28.73 90.038,-35.7183c3.768,5.5936 10.427,10.8018 23.76,15.12c8.32,2.072 16.64,4.4243 24.96,5.2803c10.262,0.102 16.453,-3.8668 19.68,-10.8003c-1.468,-5.7737 -3.21,-11.685 -7.2,-18.72c-3.253,-5.0017 -3.371,-9.5557 -2.16,-13.92c-1.657,-11.952 -9.081,-20.1966 -19.68,-26.4c-24.564,-3.032 -43.721,-16.8779 -64.8,-26.87996c-12.199,-5.79823 -31.907,-3.35346 -42.48,-1.91999c-10.573,1.43347 -11.617,0.84241 -17.52,1.67999c-16.074,1.70989 -66.2142,-7.7966 -71.5203,-2.88c-28.0568,8.72566 -42.7787,27.86916 -50.4,52.55996c-4.51465,2.3329 -8.0347,7.0527 -9.36,17.04c-1.0153,8.1784 2.3447,13.9784 10.08,17.4z"
            stroke-linejoin="bevel" stroke-linecap="square" stroke-width="2.4" stroke="#000000" fill-rule="evenodd"
            fill="#dad6ca" id="Body" />
        <path
            d="m205.34759,71.25345c8.824,44.6831 -6.0263,79.2991 -23.0005,113.2856c32.548,-6.359 67.5711,-22.7368 82.4345,-30.5472c-24.2999,-16.9244 -17.0877,-49.1044 -16.414,-80.0384c-10.6447,-4.88248 -24.9847,-5.78248 -43.02,-2.7z"
            stroke-linejoin="bevel" stroke-linecap="square" stroke-width="2.4" stroke="#a68e7a" fill-rule="evenodd"
            fill="#1c150f" id="BodyBlack" />
        <path
            d="m74.93989,227.83807c5.21688,15.09839 20.91554,18.61505 37.54056,21.10786c7.84846,-3.08846 6.45955,-7.01323 6.82054,-10.77962c-5.83159,-5.08217 -10.26251,-10.38275 -12.9332,-15.95783c11.38297,-17.36686 24.32894,-30.17085 29.6494,-54.41807c-16.08397,-26.66563 -31.46014,-21.37389 -46.69547,-9.72137c-0.98993,20.81008 -5.78387,44.06644 -14.38183,69.76902z"
            stroke-linejoin="bevel" stroke-linecap="square" stroke-width="2.4" stroke="#a68e7a" fill-rule="evenodd"
            fill="#1c150f" id="BackRight" />
        <path
            d="m179.70933,222.63114c8.62673,10.88804 21.96115,15.51068 37.52996,17.15944c8.33667,-2.12785 8.71252,-5.36856 8.99771,-8.62195c-5.23121,-5.19666 -10.30162,-10.43467 -12.9513,-16.29512c5.20116,-19.51197 14.08975,-33.11813 23.90169,-45.0062c6.86518,-8.85716 8.68054,-20.25827 10.84018,-32.91386c-13.18103,-7.97556 -0.76449,-4.56489 -20.88001,-10.80001l-15.18421,23.27538c-15.78506,8.78006 -26.53635,33.18078 -32.25402,73.20233z"
            stroke-linejoin="bevel" stroke-linecap="square" stroke-width="2.4" stroke="#a68e7a" fill-rule="evenodd"
            fill="#1c150f" id="FrontRight" />
        <path
            d="m285.56328,113.99996c6.30245,-5.6805 11.81791,-8.7352 16.54631,-9.1641c2.1961,-4.0118 1.7667,-14.34233 -7.55191,-14.3401c-8.22655,0.00197 -11.22408,10.3428 -8.9944,23.5042z"
            stroke-linejoin="bevel" stroke-linecap="square" stroke-width="2.4" stroke="#a68e7a" fill-rule="evenodd"
            fill="#1c150f" id="RightEar" />
        <path
            d="m315.30419,126.26123c-4.25608,2.33679 -10.03113,3.75738 -7.50947,10.1823c1.41536,5.9706 -3.37334,6.9892 -1.01823,13.5765c8.53898,-0.762 10.80284,-5.5549 11.45514,-6.1518c5.6852,-9.38931 4.7094,-15.2583 -2.92744,-17.607z"
            stroke-linejoin="bevel" stroke-linecap="square" stroke-width="2.4" stroke="#a68e7a" fill-rule="evenodd"
            fill="#1c150f" id="OutEye" />
        <path
            d="m311.86765,132.49791c1.02274,-1.62489 7.57272,1.47245 7.08521,3.18198c-0.64069,2.24674 -8.13781,-1.50964 -7.08521,-3.18198z"
            stroke-linejoin="bevel" stroke-linecap="square" stroke-width="2.4" stroke="#ffffff" fill-rule="evenodd"
            fill="#ffffff" id="Eye" />

    </g>
</svg>